M48
;Layer_Color=9474304
;FILE_FORMAT=2:5
INCH,LZ
;TYPE=PLATED
T1F00S00C0.00984
T2F00S00C0.03150
T3F00S00C0.03543
T4F00S00C0.04000
T5F00S00C0.04331
T6F00S00C0.11811
;TYPE=NON_PLATED
T7F00S00C0.04331
%
T01
X0063045Y-03185
X0075045Y-0318545
X0087045
X009885
X011085
X012285Y-03185
X013485
X014685Y-0318545
X0152Y-0315
X0158746Y-03185
X017085
X010074Y-0301996
X0113272Y-02215
X0114106Y-0216831
Y-02125
Y-0208169
X0118437
Y-02125
Y-0216831
X0079Y-02145
X0015Y-0191
X0007Y-01905
X0029835Y-0286669
Y-0291
Y-0295331
X0034165
Y-0291
Y-0286669
X0026016Y-0302
X0041Y-031
X004Y-0338
X0026Y-0186
X004Y-01355
X00515Y-0071
X00385Y-006
X0040335Y-0053831
X0044665
Y-00495
X0040335
Y-0045169
X0044665
X0024Y-00525
X000475Y-0075
X000785Y-009065
X0128Y-0076982
X0138Y-0076906
X01475Y-0091536
X0146Y-00995
X01575Y-0084
X0168
X0178Y-0076982
X01655Y-0155
X01525Y-01795
X01115Y-016065
X0138Y-00225
X0148Y-001
X001465Y-003
T02
X0056Y-03085
X0138854Y-0236
X0172Y-02555
X0176Y-02155
X0047Y-0302
X00975Y-016839
X0097Y-015
X0129041Y-0149541
X0161Y-01335
X0166Y-01205
X016Y-0179
X0170457Y-0031106
T03
X0065694Y-03577
Y-03477
X0077694
Y-03577
X0089694
Y-03477
X01015
Y-03577
X01135
Y-03477
X01255
Y-03577
X01375
Y-03477
X01495
Y-03577
X01615
Y-03477
X01735
Y-03577
X01855Y-03575
Y-03475
Y-03375
X01735Y-03377
X01615
X01495
X01375
X01255
X01135
X01015
X0089694
X0077694
X0065694
T04
X001Y-036
Y-035
X003Y-037
Y-038
X004
X005
Y-037
X004
X006
Y-038
X007
X008
X009
X01
X011
X012
X013
X014
X015
X016
X017
X018
X019
X02
Y-037
X019
X018
X017
X016
X015
X014
X013
X012
X011
X01
X009
X008
X007
X02Y-034
Y-033
Y-032
Y-031
Y-03
Y-029
Y-028
Y-027
Y-025
Y-024
Y-023
Y-022
Y-021
Y-02
Y-019
X001Y-02
Y-021
Y-022
Y-023
Y-024
Y-025
Y-026
Y-027
Y-029
Y-03
Y-031
Y-032
Y-033
Y-034
Y-018
Y-017
Y-016
Y-015
Y-014
Y-013
Y-012
Y-011
X02Y-0114
Y-0104
Y-0094
Y-0084
Y-0074
Y-0124
Y-0134
Y-0144
Y-0154
Y-0164
Y-018
T05
X0179Y-016815
Y-015815
Y-0129291
Y-0119291
X01795Y-0097291
Y-0087291
X0051Y-00155
X0041
T06
X001Y-038
X02Y-0355
X001Y-0055
X02Y-006
T07
X0189Y-016815
Y-015815
Y-0129291
Y-0119291
X01895Y-0097291
Y-0087291
X0051Y-00055
X0041
M30
