G04*
G04 #@! TF.GenerationSoftware,Altium Limited,Altium Designer,18.1.11 (251)*
G04*
G04 Layer_Color=16711935*
%FSLAX25Y25*%
%MOIN*%
G70*
G01*
G75*
%ADD12C,0.00394*%
%ADD13C,0.00787*%
D12*
X40138Y-43201D02*
G03*
X40138Y-43201I-1969J0D01*
G01*
X113909Y-206201D02*
G03*
X113909Y-206201I-1969J0D01*
G01*
X125689Y-154331D02*
G03*
X125689Y-154331I-1969J0D01*
G01*
X175638Y-11441D02*
G03*
X180362Y-11441I2362J0D01*
G01*
X165638D02*
G03*
X170362Y-11441I2362J0D01*
G01*
X155638D02*
G03*
X160362Y-11441I2362J0D01*
G01*
X145638D02*
G03*
X150362Y-11441I2362J0D01*
G01*
X135638D02*
G03*
X140362Y-11441I2362J0D01*
G01*
X125638D02*
G03*
X130362Y-11441I2362J0D01*
G01*
X180362Y-66559D02*
G03*
X175638Y-66559I-2362J0D01*
G01*
X170362D02*
G03*
X165638Y-66559I-2362J0D01*
G01*
X160362D02*
G03*
X155638Y-66559I-2362J0D01*
G01*
X150362D02*
G03*
X145638Y-66559I-2362J0D01*
G01*
X140362D02*
G03*
X135638Y-66559I-2362J0D01*
G01*
X130362D02*
G03*
X125638Y-66559I-2362J0D01*
G01*
X29638Y-284701D02*
G03*
X29638Y-284701I-1969J0D01*
G01*
X34626Y-59342D02*
Y-39658D01*
X50374Y-59342D02*
Y-39658D01*
X34626D02*
X50374D01*
X34626Y-59342D02*
X50374D01*
X108398Y-222342D02*
Y-202658D01*
X124146Y-222342D02*
Y-202658D01*
X108398D02*
X124146D01*
X108398Y-222342D02*
X124146D01*
X113175Y-233347D02*
X116915D01*
X113175Y-226654D02*
X116915D01*
X113175Y-233347D02*
Y-226654D01*
X116915Y-233347D02*
Y-226654D01*
X120049Y-235118D02*
Y-224882D01*
X133041Y-235118D02*
Y-224882D01*
X120049D02*
X133041D01*
X120049Y-235118D02*
X133041D01*
X98486Y-235748D02*
Y-224252D01*
X103604Y-235748D02*
Y-224252D01*
X98486D02*
X103604D01*
X98486Y-235748D02*
X103604D01*
X108273Y-226654D02*
X111817D01*
X108273Y-233347D02*
X111817D01*
Y-226654D01*
X108273Y-233347D02*
Y-226654D01*
X119702Y-305858D02*
Y-238142D01*
X189387Y-305858D02*
Y-238142D01*
X119702D02*
X189387D01*
X119702Y-305858D02*
X189387D01*
X145405Y-116055D02*
X158595D01*
X145405Y-122945D02*
X158595D01*
X145405D02*
Y-116055D01*
X158595Y-122945D02*
Y-116055D01*
X145653Y-135370D02*
X152347D01*
X145653Y-131630D02*
X152347D01*
Y-135370D02*
Y-131630D01*
X145653Y-135370D02*
Y-131630D01*
X145653Y-125630D02*
X152347D01*
X145653Y-129370D02*
X152347D01*
X145653D02*
Y-125630D01*
X152347Y-129370D02*
Y-125630D01*
X120276Y-157874D02*
X154724D01*
X120276Y-142126D02*
X154724D01*
X120276Y-157874D02*
Y-142126D01*
X154724Y-157874D02*
Y-142126D01*
X103905Y-149945D02*
X117095D01*
X103905Y-143055D02*
X117095D01*
Y-149945D02*
Y-143055D01*
X103905Y-149945D02*
Y-143055D01*
X114630Y-160846D02*
Y-154154D01*
X118370Y-160846D02*
Y-154154D01*
X114630Y-160846D02*
X118370D01*
X114630Y-154154D02*
X118370D01*
X104154Y-156370D02*
X110846D01*
X104154Y-152630D02*
X110846D01*
Y-156370D02*
Y-152630D01*
X104154Y-156370D02*
Y-152630D01*
X117882Y-180496D02*
X128118D01*
X117882Y-167504D02*
X128118D01*
X117882Y-180496D02*
Y-167504D01*
X128118Y-180496D02*
Y-167504D01*
X104382Y-180496D02*
X114618D01*
X104382Y-167504D02*
X114618D01*
X104382Y-180496D02*
Y-167504D01*
X114618Y-180496D02*
Y-167504D01*
X119600Y-199094D02*
Y-185906D01*
X126490Y-199094D02*
Y-185906D01*
X119600Y-199094D02*
X126490D01*
X119600Y-185906D02*
X126490D01*
X128927Y-186004D02*
X139163D01*
X128927Y-198996D02*
X139163D01*
Y-186004D01*
X128927Y-198996D02*
Y-186004D01*
X179894Y-235669D02*
X187669Y-227894D01*
X146331Y-235669D02*
X179894D01*
X146331D02*
Y-194331D01*
X179894D01*
X187669Y-202106D01*
Y-227894D02*
Y-202106D01*
X166795Y-152244D02*
X191205D01*
Y-174055D02*
Y-152244D01*
X166795Y-174055D02*
Y-152244D01*
Y-174055D02*
X191205D01*
X166795Y-113386D02*
X191205D01*
Y-135197D02*
Y-113386D01*
X166795Y-135197D02*
Y-113386D01*
Y-135197D02*
X191205D01*
X167295Y-81386D02*
X191705D01*
Y-103197D02*
Y-81386D01*
X167295Y-103197D02*
Y-81386D01*
Y-103197D02*
X191705D01*
X184496Y-66559D02*
Y-11441D01*
X180362D02*
X184496D01*
X170362D02*
X175638D01*
X160362D02*
X165638D01*
X150362D02*
X155638D01*
X140362D02*
X145638D01*
X130362D02*
X135638D01*
X121504D02*
X125638D01*
X121504Y-66559D02*
Y-11441D01*
X180362Y-66559D02*
X184496D01*
X170362D02*
X175638D01*
X160362D02*
X165638D01*
X150362D02*
X155638D01*
X140362D02*
X145638D01*
X130362D02*
X135638D01*
X121504D02*
X125638D01*
X104502Y-9516D02*
X114984Y-19998D01*
Y-61484D02*
Y-19998D01*
X63016Y-61484D02*
X114984D01*
X63016D02*
Y-19998D01*
X73498Y-9516D01*
X104502D01*
X2350Y-21579D02*
Y-8980D01*
X8650Y-21579D02*
Y-8980D01*
X2350Y-21579D02*
X8650D01*
X2350Y-8980D02*
X8650D01*
X17799Y-21579D02*
Y-8980D01*
X11500Y-21579D02*
Y-8980D01*
X17799D01*
X11500Y-21579D02*
X17799D01*
X27000D02*
Y-8980D01*
X20701Y-21579D02*
Y-8980D01*
X27000D01*
X20701Y-21579D02*
X27000D01*
X29728Y-14653D02*
X33272D01*
X29728Y-21346D02*
X33272D01*
Y-14653D01*
X29728Y-21346D02*
Y-14653D01*
X56906Y-27705D02*
Y-3295D01*
X35094Y-27705D02*
X56906D01*
X35094Y-3295D02*
X56906D01*
X35094Y-27705D02*
Y-3295D01*
X41405Y-36945D02*
X54594D01*
X41405Y-30055D02*
X54594D01*
Y-36945D02*
Y-30055D01*
X41405Y-36945D02*
Y-30055D01*
X21252Y-35059D02*
X32748D01*
X21252Y-29941D02*
X32748D01*
X21252Y-35059D02*
Y-29941D01*
X32748Y-35059D02*
Y-29941D01*
X15228Y-37154D02*
X18772D01*
X15228Y-43846D02*
X18772D01*
Y-37154D01*
X15228Y-43846D02*
Y-37154D01*
X26370Y-48346D02*
Y-41653D01*
X22630Y-48346D02*
Y-41653D01*
X26370D01*
X22630Y-48346D02*
X26370D01*
X19913Y-58870D02*
Y-55130D01*
X26606Y-58870D02*
Y-55130D01*
X19913D02*
X26606D01*
X19913Y-58870D02*
X26606D01*
X47957Y-77693D02*
X55043D01*
X47957Y-64307D02*
X55043D01*
X47957Y-77693D02*
Y-64307D01*
X55043Y-77693D02*
Y-64307D01*
X40465Y-65114D02*
X45386Y-70035D01*
Y-91886D02*
Y-70035D01*
X18614Y-91886D02*
X45386D01*
X18614D02*
Y-70035D01*
X23535Y-65114D01*
X40465D01*
X75984Y-151002D02*
Y-119998D01*
X65502Y-109516D02*
X75984Y-119998D01*
X24016Y-109516D02*
X65502D01*
X24016Y-161484D02*
Y-109516D01*
Y-161484D02*
X65502D01*
X75984Y-151002D01*
Y-211502D02*
Y-180498D01*
X65502Y-170016D02*
X75984Y-180498D01*
X24016Y-170016D02*
X65502D01*
X24016Y-221984D02*
Y-170016D01*
Y-221984D02*
X65502D01*
X75984Y-211502D01*
X20303Y-227303D02*
X70697D01*
X20303Y-277697D02*
X70697D01*
X20303D02*
Y-227303D01*
X70697Y-277697D02*
Y-227303D01*
X94630Y-291653D02*
X98370D01*
X94630Y-298346D02*
X98370D01*
Y-291653D01*
X94630Y-298346D02*
Y-291653D01*
X89303Y-289272D02*
Y-285728D01*
X95996Y-289272D02*
Y-285728D01*
X89303D02*
X95996D01*
X89303Y-289272D02*
X95996D01*
X89153Y-278130D02*
X95846D01*
X89153Y-281870D02*
X95846D01*
X89153D02*
Y-278130D01*
X95846Y-281870D02*
Y-278130D01*
X74402Y-281441D02*
X85898D01*
X74402Y-286559D02*
X85898D01*
Y-281441D01*
X74402Y-286559D02*
Y-281441D01*
X49406Y-282055D02*
X62594D01*
X49406Y-288945D02*
X62594D01*
X49406D02*
Y-282055D01*
X62594Y-288945D02*
Y-282055D01*
X24126Y-300842D02*
X39874D01*
X24126Y-281157D02*
X39874D01*
Y-300842D02*
Y-281157D01*
X24126Y-300842D02*
Y-281157D01*
X20307Y-311043D02*
Y-303957D01*
X33693Y-311043D02*
Y-303957D01*
X20307D02*
X33693D01*
X20307Y-311043D02*
X33693D01*
X50894Y-317831D02*
X58669Y-325606D01*
Y-359169D02*
Y-325606D01*
X17331Y-359169D02*
X58669D01*
X17331D02*
Y-325606D01*
X25106Y-317831D01*
X50894D01*
X182653Y-330870D02*
X189347D01*
X182653Y-327130D02*
X189347D01*
Y-330870D02*
Y-327130D01*
X182653Y-330870D02*
Y-327130D01*
X170653Y-330870D02*
X177347D01*
X170653Y-327130D02*
X177347D01*
Y-330870D02*
Y-327130D01*
X170653Y-330870D02*
Y-327130D01*
X158549Y-330870D02*
X165242D01*
X158549Y-327130D02*
X165242D01*
Y-330870D02*
Y-327130D01*
X158549Y-330870D02*
Y-327130D01*
X146653Y-330870D02*
X153347D01*
X146653Y-327130D02*
X153347D01*
Y-330870D02*
Y-327130D01*
X146653Y-330870D02*
Y-327130D01*
X134653Y-330870D02*
X141347D01*
X134653Y-327130D02*
X141347D01*
Y-330870D02*
Y-327130D01*
X134653Y-330870D02*
Y-327130D01*
X122653Y-330870D02*
X129347D01*
X122653Y-327130D02*
X129347D01*
Y-330870D02*
Y-327130D01*
X122653Y-330870D02*
Y-327130D01*
X110653Y-330870D02*
X117347D01*
X110653Y-327130D02*
X117347D01*
Y-330870D02*
Y-327130D01*
X110653Y-330870D02*
Y-327130D01*
X98654Y-330870D02*
X105347D01*
X98654Y-327130D02*
X105347D01*
Y-330870D02*
Y-327130D01*
X98654Y-330870D02*
Y-327130D01*
X74848Y-330870D02*
X81541D01*
X74848Y-327130D02*
X81541D01*
Y-330870D02*
Y-327130D01*
X74848Y-330870D02*
Y-327130D01*
X86848Y-330870D02*
X93541D01*
X86848Y-327130D02*
X93541D01*
Y-330870D02*
Y-327130D01*
X86848Y-330870D02*
Y-327130D01*
X182653Y-321130D02*
X189347D01*
X182653Y-324870D02*
X189347D01*
X182653D02*
Y-321130D01*
X189347Y-324870D02*
Y-321130D01*
X170653D02*
X177347D01*
X170653Y-324870D02*
X177347D01*
X170653D02*
Y-321130D01*
X177347Y-324870D02*
Y-321130D01*
X158549D02*
X165242D01*
X158549Y-324870D02*
X165242D01*
X158549D02*
Y-321130D01*
X165242Y-324870D02*
Y-321130D01*
X146653D02*
X153347D01*
X146653Y-324870D02*
X153347D01*
X146653D02*
Y-321130D01*
X153347Y-324870D02*
Y-321130D01*
X134653D02*
X141347D01*
X134653Y-324870D02*
X141347D01*
X134653D02*
Y-321130D01*
X141347Y-324870D02*
Y-321130D01*
X122653D02*
X129347D01*
X122653Y-324870D02*
X129347D01*
X122653D02*
Y-321130D01*
X129347Y-324870D02*
Y-321130D01*
X110653D02*
X117347D01*
X110653Y-324870D02*
X117347D01*
X110653D02*
Y-321130D01*
X117347Y-324870D02*
Y-321130D01*
X98654D02*
X105347D01*
X98654Y-324870D02*
X105347D01*
X98654D02*
Y-321130D01*
X105347Y-324870D02*
Y-321130D01*
X86848D02*
X93541D01*
X86848Y-324870D02*
X93541D01*
X86848D02*
Y-321130D01*
X93541Y-324870D02*
Y-321130D01*
X74848D02*
X81541D01*
X74848Y-324870D02*
X81541D01*
X74848D02*
Y-321130D01*
X81541Y-324870D02*
Y-321130D01*
X62848Y-330870D02*
X69541D01*
X62848Y-327130D02*
X69541D01*
Y-330870D02*
Y-327130D01*
X62848Y-330870D02*
Y-327130D01*
X62848Y-321130D02*
X69541D01*
X62848Y-324870D02*
X69541D01*
X62848D02*
Y-321130D01*
X69541Y-324870D02*
Y-321130D01*
X84803Y-82606D02*
X135197D01*
X84803Y-133000D02*
X135197D01*
Y-82606D01*
X84803Y-133000D02*
Y-82606D01*
X144130Y-178847D02*
X147870D01*
X144130Y-172153D02*
X147870D01*
X144130Y-178847D02*
Y-172153D01*
X147870Y-178847D02*
Y-172153D01*
X145653Y-168370D02*
Y-164630D01*
X152347Y-168370D02*
Y-164630D01*
X145653D02*
X152347D01*
X145653Y-168370D02*
X152347D01*
X156555Y-173094D02*
X163445D01*
X156555Y-159906D02*
X163445D01*
X156555Y-173094D02*
Y-159906D01*
X163445Y-173094D02*
Y-159906D01*
X110600Y-185906D02*
X117490D01*
X110600Y-199094D02*
X117490D01*
Y-185906D01*
X110600Y-199094D02*
Y-185906D01*
X101600D02*
X108490D01*
X101600Y-199094D02*
X108490D01*
Y-185906D01*
X101600Y-199094D02*
Y-185906D01*
X96130Y-214154D02*
X99870D01*
X96130Y-220847D02*
X99870D01*
Y-214154D01*
X96130Y-220847D02*
Y-214154D01*
X141618Y-180496D02*
Y-167504D01*
X131382Y-180496D02*
Y-167504D01*
X141618D01*
X131382Y-180496D02*
X141618D01*
X63614Y-312965D02*
Y-296035D01*
Y-312965D02*
X68535Y-317886D01*
X90386D01*
Y-291114D01*
X68535D02*
X90386D01*
X63614Y-296035D02*
X68535Y-291114D01*
D13*
X170650Y-192248D02*
Y-180752D01*
Y-192248D02*
X189350D01*
Y-180752D01*
X170650D02*
X189350D01*
X207760Y-35417D02*
Y-4984D01*
Y-7701D02*
X245240D01*
X207760Y-32701D02*
Y-7701D01*
Y-32701D02*
X245240D01*
Y-7701D01*
X68350Y-104248D02*
Y-92752D01*
X49650D02*
X68350D01*
X49650Y-104248D02*
Y-92752D01*
Y-104248D02*
X68350D01*
X74752Y-271350D02*
X86248D01*
Y-252650D01*
X74752D02*
X86248D01*
X74752Y-271350D02*
Y-252650D01*
M02*
