G04*
G04 #@! TF.GenerationSoftware,Altium Limited,Altium Designer,18.1.11 (251)*
G04*
G04 Layer_Color=65535*
%FSLAX25Y25*%
%MOIN*%
G70*
G01*
G75*
%ADD10C,0.00984*%
%ADD11C,0.02362*%
%ADD12C,0.00394*%
%ADD13C,0.00787*%
%ADD14C,0.01000*%
%ADD15C,0.00700*%
D10*
X32264Y-38653D02*
G03*
X32264Y-38653I-492J0D01*
G01*
X106035Y-201654D02*
G03*
X106035Y-201654I-492J0D01*
G01*
X97600Y-222520D02*
G03*
X97600Y-222520I-492J0D01*
G01*
X119744Y-160335D02*
G03*
X119744Y-160335I-492J0D01*
G01*
X166516Y-186598D02*
G03*
X166516Y-186598I-492J0D01*
G01*
X179492Y-176614D02*
G03*
X179492Y-176614I-492J0D01*
G01*
Y-137756D02*
G03*
X179492Y-137756I-492J0D01*
G01*
X179992Y-105756D02*
G03*
X179992Y-105756I-492J0D01*
G01*
X184335Y-20201D02*
G03*
X184335Y-20201I-492J0D01*
G01*
X59957Y-15500D02*
G03*
X59957Y-15500I-492J0D01*
G01*
X20012Y-36437D02*
G03*
X20012Y-36437I-492J0D01*
G01*
X73469Y-98402D02*
G03*
X73469Y-98402I-492J0D01*
G01*
X88122Y-280063D02*
G03*
X88122Y-280063I-492J0D01*
G01*
X81091Y-275976D02*
G03*
X81091Y-275976I-492J0D01*
G01*
X21764Y-280153D02*
G03*
X21764Y-280153I-492J0D01*
G01*
D11*
X125295Y-152362D02*
G03*
X125295Y-152362I-1181J0D01*
G01*
D12*
X184251Y-8244D02*
G03*
X184251Y-8244I-197J0D01*
G01*
D13*
X36201Y-59342D02*
Y-39658D01*
X48799Y-59342D02*
Y-39658D01*
X36201D02*
X48799D01*
X36201Y-59342D02*
X48799D01*
X109972Y-222342D02*
Y-202658D01*
X122571Y-222342D02*
Y-202658D01*
X109972D02*
X122571D01*
X109972Y-222342D02*
X122571D01*
X116423Y-230197D02*
Y-229803D01*
X113667Y-230197D02*
Y-229803D01*
X124970Y-225177D02*
X128120D01*
X124970Y-234823D02*
X128120D01*
X100395Y-224252D02*
X103604D01*
Y-226850D02*
Y-224252D01*
X100395Y-235748D02*
X103604D01*
Y-233150D01*
X108864Y-224095D02*
X111226D01*
X133876Y-238260D02*
X175214D01*
X133876Y-305740D02*
X175214D01*
X150031Y-116350D02*
X153969D01*
X150031Y-122650D02*
X153969D01*
X148803Y-131925D02*
X149197D01*
X148803Y-135075D02*
X149197D01*
X148803Y-129075D02*
X149197D01*
X148803Y-125925D02*
X149197D01*
X120276Y-156299D02*
X154724D01*
X120276Y-143701D02*
X154724D01*
X120276Y-156299D02*
Y-143701D01*
X154724Y-156299D02*
Y-143701D01*
X108531Y-149650D02*
X112469D01*
X108531Y-143350D02*
X112469D01*
X118075Y-157697D02*
Y-157303D01*
X114925Y-157697D02*
Y-157303D01*
X107303Y-152925D02*
X107697D01*
X107303Y-156075D02*
X107697D01*
X118177Y-175575D02*
Y-172425D01*
X127823Y-175575D02*
Y-172425D01*
X104677Y-175575D02*
Y-172425D01*
X114323Y-175575D02*
Y-172425D01*
X119895Y-194468D02*
Y-190532D01*
X126195Y-194468D02*
Y-190532D01*
X138868Y-194075D02*
Y-190925D01*
X129222Y-194075D02*
Y-190925D01*
X187669Y-227894D02*
Y-221299D01*
X179894Y-235669D02*
X187669Y-227894D01*
X179894Y-194331D02*
X187669Y-202106D01*
Y-208701D02*
Y-202106D01*
X146331Y-235669D02*
X179894D01*
X146331D02*
Y-221299D01*
Y-208701D02*
Y-194331D01*
X179894D01*
X170650Y-180772D02*
Y-180752D01*
Y-192248D02*
Y-192228D01*
Y-192248D02*
X189350D01*
Y-180772D02*
Y-180752D01*
Y-192248D02*
Y-192228D01*
X170650Y-180752D02*
X189350D01*
X166795Y-174055D02*
X191205D01*
X166795D02*
Y-152244D01*
X191205D01*
Y-174055D02*
Y-171173D01*
Y-155126D02*
Y-152244D01*
X166795Y-135197D02*
X191205D01*
X166795D02*
Y-113386D01*
X191205D01*
Y-135197D02*
Y-132315D01*
Y-116268D02*
Y-113386D01*
X167295Y-103197D02*
X191705D01*
X167295D02*
Y-81386D01*
X191705D01*
Y-103197D02*
Y-100315D01*
Y-84268D02*
Y-81386D01*
X186343Y-35949D02*
X204847D01*
X186343D02*
Y-4453D01*
X204847D01*
X95201Y-9516D02*
X104502D01*
X114984Y-19998D01*
X63016D02*
X73498Y-9516D01*
X82799D01*
X114984Y-61484D02*
Y-19998D01*
X95201Y-61484D02*
X114984D01*
X63016D02*
X82799D01*
X63016D02*
Y-19998D01*
X2646Y-18823D02*
Y-11736D01*
X8354Y-18823D02*
Y-11736D01*
X17504Y-18823D02*
Y-11736D01*
X11795Y-18823D02*
Y-11736D01*
X26705Y-18823D02*
Y-11736D01*
X20996Y-18823D02*
Y-11736D01*
X30319Y-12094D02*
X32681D01*
X35094Y-3295D02*
X37976D01*
X54024D02*
X56906D01*
X35094Y-27705D02*
Y-3295D01*
Y-27705D02*
X56906D01*
Y-3295D01*
X46031Y-36650D02*
X49968D01*
X46031Y-30350D02*
X49968D01*
X21252Y-33150D02*
Y-29941D01*
X23850D01*
X32748Y-33150D02*
Y-29941D01*
X30150D02*
X32748D01*
X15819Y-34595D02*
X18181D01*
X22925Y-45197D02*
Y-44803D01*
X26075Y-45197D02*
Y-44803D01*
X23063Y-58378D02*
X23457D01*
X23063Y-55622D02*
X23457D01*
X48350Y-73165D02*
Y-68835D01*
X54650Y-73165D02*
Y-68835D01*
X36724Y-65114D02*
X40465D01*
X45386Y-70035D01*
X18614D02*
X23535Y-65114D01*
X27276D01*
X45386Y-91886D02*
Y-70035D01*
X36724Y-91886D02*
X45386D01*
X18614D02*
X27276D01*
X18614D02*
Y-70035D01*
X68350Y-104248D02*
Y-104228D01*
Y-92772D02*
Y-92752D01*
X49650D02*
X68350D01*
X49650Y-104248D02*
Y-104228D01*
Y-92772D02*
Y-92752D01*
Y-104248D02*
X68350D01*
X24016Y-109516D02*
X65502D01*
X24016Y-129299D02*
Y-109516D01*
Y-161484D02*
Y-141701D01*
Y-161484D02*
X65502D01*
X75984Y-129299D02*
Y-119998D01*
X65502Y-109516D02*
X75984Y-119998D01*
X65502Y-161484D02*
X75984Y-151002D01*
Y-141701D01*
X24016Y-170016D02*
X65502D01*
X24016Y-189799D02*
Y-170016D01*
Y-221984D02*
Y-202201D01*
Y-221984D02*
X65502D01*
X75984Y-189799D02*
Y-180498D01*
X65502Y-170016D02*
X75984Y-180498D01*
X65502Y-221984D02*
X75984Y-211502D01*
Y-202201D01*
X33492Y-227421D02*
X57508D01*
X33492Y-277579D02*
X57508D01*
X95122Y-295197D02*
Y-294803D01*
X97878Y-295197D02*
Y-294803D01*
X86744Y-288681D02*
Y-286319D01*
X92303Y-281575D02*
X92697D01*
X92303Y-278425D02*
X92697D01*
X85898Y-286559D02*
Y-283350D01*
X83300Y-286559D02*
X85898D01*
X74402D02*
Y-283350D01*
Y-286559D02*
X77000D01*
X74752Y-271350D02*
X74772D01*
X86228D02*
X86248D01*
Y-252650D01*
X74752D02*
X74772D01*
X86228D02*
X86248D01*
X74752Y-271350D02*
Y-252650D01*
X54031Y-282350D02*
X57968D01*
X54031Y-288650D02*
X57968D01*
X25701Y-300842D02*
X38299D01*
X25701Y-281157D02*
X38299D01*
Y-300842D02*
Y-281157D01*
X25701Y-300842D02*
Y-281157D01*
X24835Y-304350D02*
X29165D01*
X24835Y-310650D02*
X29165D01*
X44299Y-317831D02*
X50894D01*
X58669Y-325606D01*
X17331D02*
X25106Y-317831D01*
X31701D01*
X58669Y-359169D02*
Y-325606D01*
X44299Y-359169D02*
X58669D01*
X17331D02*
X31701D01*
X17331D02*
Y-325606D01*
X70695Y-362700D02*
Y-332700D01*
X60694D02*
X70695D01*
X60694Y-362700D02*
Y-332700D01*
Y-362700D02*
X70695D01*
X82695D02*
Y-332700D01*
X72694D02*
X82695D01*
X72694Y-362700D02*
Y-332700D01*
Y-362700D02*
X82695D01*
X94695D02*
Y-332700D01*
X84694D02*
X94695D01*
X84694Y-362700D02*
Y-332700D01*
Y-362700D02*
X94695D01*
X106500D02*
Y-332700D01*
X96500D02*
X106500D01*
X96500Y-362700D02*
Y-332700D01*
Y-362700D02*
X106500D01*
X118500D02*
Y-332700D01*
X108500D02*
X118500D01*
X108500Y-362700D02*
Y-332700D01*
Y-362700D02*
X118500D01*
X130500D02*
Y-332700D01*
X120500D02*
X130500D01*
X120500Y-362700D02*
Y-332700D01*
Y-362700D02*
X130500D01*
X142500D02*
Y-332700D01*
X132500D02*
X142500D01*
X132500Y-362700D02*
Y-332700D01*
Y-362700D02*
X142500D01*
X154500D02*
Y-332700D01*
X144500D02*
X154500D01*
X144500Y-362700D02*
Y-332700D01*
Y-362700D02*
X154500D01*
X166500D02*
Y-332700D01*
X156500D02*
X166500D01*
X156500Y-362700D02*
Y-332700D01*
Y-362700D02*
X166500D01*
X178500D02*
Y-332700D01*
X168500D02*
X178500D01*
X168500Y-362700D02*
Y-332700D01*
Y-362700D02*
X178500D01*
X190500Y-362500D02*
Y-332500D01*
X180500D02*
X190500D01*
X180500Y-362500D02*
Y-332500D01*
Y-362500D02*
X190500D01*
X185803Y-327425D02*
X186197D01*
X185803Y-330575D02*
X186197D01*
X173803Y-327425D02*
X174197D01*
X173803Y-330575D02*
X174197D01*
X161698Y-327425D02*
X162092D01*
X161698Y-330575D02*
X162092D01*
X149803Y-327425D02*
X150197D01*
X149803Y-330575D02*
X150197D01*
X137803Y-327425D02*
X138197D01*
X137803Y-330575D02*
X138197D01*
X125803Y-327425D02*
X126197D01*
X125803Y-330575D02*
X126197D01*
X113803Y-327425D02*
X114197D01*
X113803Y-330575D02*
X114197D01*
X101803Y-327425D02*
X102197D01*
X101803Y-330575D02*
X102197D01*
X77998Y-327425D02*
X78391D01*
X77998Y-330575D02*
X78391D01*
X89998Y-327425D02*
X90391D01*
X89998Y-330575D02*
X90391D01*
X185803Y-324575D02*
X186197D01*
X185803Y-321425D02*
X186197D01*
X173803Y-324575D02*
X174197D01*
X173803Y-321425D02*
X174197D01*
X161698Y-324575D02*
X162092D01*
X161698Y-321425D02*
X162092D01*
X149803Y-324575D02*
X150197D01*
X149803Y-321425D02*
X150197D01*
X137803Y-324575D02*
X138197D01*
X137803Y-321425D02*
X138197D01*
X125803Y-324575D02*
X126197D01*
X125803Y-321425D02*
X126197D01*
X113803Y-324575D02*
X114197D01*
X113803Y-321425D02*
X114197D01*
X101803Y-324575D02*
X102197D01*
X101803Y-321425D02*
X102197D01*
X89998Y-324575D02*
X90391D01*
X89998Y-321425D02*
X90391D01*
X77998Y-324575D02*
X78391D01*
X77998Y-321425D02*
X78391D01*
X65998Y-327425D02*
X66391D01*
X65998Y-330575D02*
X66391D01*
X65998Y-324575D02*
X66391D01*
X65998Y-321425D02*
X66391D01*
X135079Y-119811D02*
Y-95795D01*
X84921Y-119811D02*
Y-95795D01*
X147575Y-175697D02*
Y-175303D01*
X144425Y-175697D02*
Y-175303D01*
X148803Y-168075D02*
X149197D01*
X148803Y-164925D02*
X149197D01*
X156850Y-168468D02*
Y-164532D01*
X163150Y-168468D02*
Y-164532D01*
X117194Y-194468D02*
Y-190532D01*
X110895Y-194468D02*
Y-190532D01*
X108194Y-194468D02*
Y-190532D01*
X101895Y-194468D02*
Y-190532D01*
X96425Y-217697D02*
Y-217303D01*
X99575Y-217697D02*
Y-217303D01*
X141323Y-175575D02*
Y-172425D01*
X131677Y-175575D02*
Y-172425D01*
X68535Y-317886D02*
X90386D01*
Y-309224D01*
Y-299776D02*
Y-291114D01*
X68535D02*
X90386D01*
X63614Y-312965D02*
Y-309224D01*
Y-312965D02*
X68535Y-317886D01*
X63614Y-296035D02*
X68535Y-291114D01*
X63614Y-299776D02*
Y-296035D01*
D14*
X195000Y-265000D02*
X205000D01*
X195000Y-345000D02*
Y-265000D01*
Y-345000D02*
X205000D01*
Y-265000D01*
X195000Y-175000D02*
X205000D01*
X195000Y-255000D02*
Y-175000D01*
Y-255000D02*
X205000D01*
Y-175000D01*
X5000Y-185000D02*
X15000D01*
Y-105000D01*
X5000D02*
X15000D01*
X5000Y-185000D02*
Y-105000D01*
Y-275000D02*
X15000D01*
Y-195000D01*
X5000D02*
X15000D01*
X5000Y-275000D02*
Y-195000D01*
Y-365000D02*
X15000D01*
Y-285000D01*
X5000D02*
X15000D01*
X5000Y-365000D02*
Y-285000D01*
X205000Y-385000D02*
Y-365000D01*
X25000D02*
X205000D01*
X25000Y-385000D02*
Y-365000D01*
Y-385000D02*
X205000D01*
Y-169000D02*
Y-69000D01*
X195000Y-169000D02*
X205000D01*
X195000D02*
Y-69000D01*
X205000D01*
D15*
X40335Y-60501D02*
Y-63000D01*
X40835Y-63500D01*
X41834D01*
X42334Y-63000D01*
Y-60501D01*
X45333Y-63500D02*
X43334D01*
X45333Y-61501D01*
Y-61001D01*
X44833Y-60501D01*
X43834D01*
X43334Y-61001D01*
X58248Y-3001D02*
X60247D01*
X31772D02*
X33771D01*
X32771Y-2001D02*
Y-4000D01*
X58000Y-9000D02*
Y-6001D01*
X59500D01*
X59999Y-6501D01*
Y-7501D01*
X59500Y-8000D01*
X58000D01*
X61499Y-9000D02*
X62499D01*
X62998Y-8500D01*
Y-7501D01*
X62499Y-7001D01*
X61499D01*
X60999Y-7501D01*
Y-8500D01*
X61499Y-9000D01*
X63998Y-7001D02*
Y-8500D01*
X64498Y-9000D01*
X64998Y-8500D01*
X65498Y-9000D01*
X65997Y-8500D01*
Y-7001D01*
X68497Y-9000D02*
X67497D01*
X66997Y-8500D01*
Y-7501D01*
X67497Y-7001D01*
X68497D01*
X68996Y-7501D01*
Y-8000D01*
X66997D01*
X69996Y-7001D02*
Y-9000D01*
Y-8000D01*
X70496Y-7501D01*
X70996Y-7001D01*
X71496D01*
X181000Y-80000D02*
Y-77001D01*
X182500D01*
X182999Y-77501D01*
Y-78500D01*
X182500Y-79000D01*
X181000D01*
X183999Y-78001D02*
Y-79500D01*
X184499Y-80000D01*
X185998D01*
Y-78001D01*
X186998Y-80000D02*
Y-78001D01*
X187498D01*
X187998Y-78500D01*
Y-80000D01*
Y-78500D01*
X188498Y-78001D01*
X188997Y-78500D01*
Y-80000D01*
X189997Y-81000D02*
Y-78001D01*
X191497D01*
X191996Y-78500D01*
Y-79500D01*
X191497Y-80000D01*
X189997D01*
X184999Y-109001D02*
X183000D01*
Y-110501D01*
X184000D01*
X183000D01*
Y-112000D01*
X186499Y-110001D02*
X187499D01*
X187998Y-110501D01*
Y-112000D01*
X186499D01*
X185999Y-111500D01*
X186499Y-111000D01*
X187998D01*
X188998Y-112000D02*
Y-110001D01*
X190498D01*
X190997Y-110501D01*
Y-112000D01*
X174000Y-151000D02*
Y-148001D01*
X175499D01*
X175999Y-148501D01*
Y-149501D01*
X175499Y-150000D01*
X174000D01*
X178499Y-151000D02*
X177499D01*
X176999Y-150500D01*
Y-149501D01*
X177499Y-149001D01*
X178499D01*
X178998Y-149501D01*
Y-150000D01*
X176999D01*
X179998Y-151000D02*
X180998D01*
X180498D01*
Y-148001D01*
X179998D01*
X182997Y-148501D02*
Y-149001D01*
X182497D01*
X183497D01*
X182997D01*
Y-150500D01*
X183497Y-151000D01*
X184996D02*
X185996D01*
X185496D01*
Y-149001D01*
X184996D01*
X188995Y-151000D02*
X187996D01*
X187496Y-150500D01*
Y-149501D01*
X187996Y-149001D01*
X188995D01*
X189495Y-149501D01*
Y-150000D01*
X187496D01*
X190495Y-149001D02*
Y-151000D01*
Y-150000D01*
X190995Y-149501D01*
X191494Y-149001D01*
X191994D01*
X114000Y-315500D02*
X113000D01*
Y-312501D01*
X114000D01*
X115499Y-315500D02*
X116499D01*
X115999D01*
Y-312501D01*
X115499Y-313001D01*
X117998Y-315500D02*
Y-315000D01*
X118498D01*
Y-315500D01*
X117998D01*
X120498D02*
Y-315000D01*
X120997D01*
Y-315500D01*
X120498D01*
X122997D02*
X123996D01*
X123497D01*
Y-312501D01*
X122997Y-313001D01*
X125496Y-315500D02*
X126496D01*
X125996D01*
Y-312501D01*
X125496Y-313001D01*
X127995Y-315500D02*
X128995D01*
Y-312501D01*
X127995D01*
X132000Y-202501D02*
Y-205000D01*
X132500Y-205500D01*
X133500D01*
X133999Y-205000D01*
Y-202501D01*
X134999Y-205500D02*
X135999D01*
X135499D01*
Y-202501D01*
X134999Y-203001D01*
X107500Y-240000D02*
Y-237001D01*
X109000D01*
X109499Y-237501D01*
Y-238500D01*
X109000Y-239000D01*
X107500D01*
X108500D02*
X109499Y-240000D01*
X110499D02*
X111499D01*
X110999D01*
Y-237001D01*
X110499Y-237501D01*
X133499Y-220021D02*
X133000Y-219521D01*
X132000D01*
X131500Y-220021D01*
Y-222020D01*
X132000Y-222520D01*
X133000D01*
X133499Y-222020D01*
X134499Y-220021D02*
X134999Y-219521D01*
X135999D01*
X136498Y-220021D01*
Y-220520D01*
X135999Y-221020D01*
X135499D01*
X135999D01*
X136498Y-221520D01*
Y-222020D01*
X135999Y-222520D01*
X134999D01*
X134499Y-222020D01*
X91999Y-231000D02*
Y-229001D01*
X91500Y-228501D01*
X90500D01*
X90000Y-229001D01*
Y-231000D01*
X90500Y-231500D01*
X91500D01*
X91000Y-230500D02*
X91999Y-231500D01*
X91500D02*
X91999Y-231000D01*
X92999Y-231500D02*
X93999D01*
X93499D01*
Y-228501D01*
X92999Y-229001D01*
X101500Y-237001D02*
Y-240000D01*
X102999D01*
X103499Y-239500D01*
Y-237501D01*
X102999Y-237001D01*
X101500D01*
X104499Y-240000D02*
X105499D01*
X104999D01*
Y-237001D01*
X104499Y-237501D01*
X111035Y-246501D02*
Y-249500D01*
X113035D01*
X114034D02*
X115034D01*
X114534D01*
Y-246501D01*
X114034Y-247001D01*
X198999Y-260001D02*
X198000D01*
X198500D01*
Y-262500D01*
X198000Y-263000D01*
X197500D01*
X197000Y-262500D01*
X199999D02*
X200499Y-263000D01*
X201499D01*
X201998Y-262500D01*
Y-260501D01*
X201499Y-260001D01*
X200499D01*
X199999Y-260501D01*
Y-261001D01*
X200499Y-261501D01*
X201998D01*
X199499Y-170501D02*
X198500D01*
X199000D01*
Y-173000D01*
X198500Y-173500D01*
X198000D01*
X197500Y-173000D01*
X200499Y-170501D02*
X202498D01*
Y-171001D01*
X200499Y-173000D01*
Y-173500D01*
X148500Y-114000D02*
Y-111001D01*
X149999D01*
X150499Y-111501D01*
Y-112501D01*
X149999Y-113000D01*
X148500D01*
X149500D02*
X150499Y-114000D01*
X151499D02*
X152499D01*
X151999D01*
Y-111001D01*
X151499Y-111501D01*
X155998Y-111001D02*
X153998D01*
Y-112501D01*
X154998Y-112001D01*
X155498D01*
X155998Y-112501D01*
Y-113500D01*
X155498Y-114000D01*
X154498D01*
X153998Y-113500D01*
X156100Y-135000D02*
Y-132001D01*
X157599D01*
X158099Y-132501D01*
Y-133501D01*
X157599Y-134000D01*
X156100D01*
X157100D02*
X158099Y-135000D01*
X161098D02*
X159099D01*
X161098Y-133001D01*
Y-132501D01*
X160599Y-132001D01*
X159599D01*
X159099Y-132501D01*
X162098D02*
X162598Y-132001D01*
X163598D01*
X164097Y-132501D01*
Y-134500D01*
X163598Y-135000D01*
X162598D01*
X162098Y-134500D01*
Y-132501D01*
X156100Y-128500D02*
Y-125501D01*
X157599D01*
X158099Y-126001D01*
Y-127000D01*
X157599Y-127500D01*
X156100D01*
X157100D02*
X158099Y-128500D01*
X161098D02*
X159099D01*
X161098Y-126501D01*
Y-126001D01*
X160599Y-125501D01*
X159599D01*
X159099Y-126001D01*
X162098Y-128500D02*
X163098D01*
X162598D01*
Y-125501D01*
X162098Y-126001D01*
X121423Y-132501D02*
Y-135000D01*
X121923Y-135500D01*
X122922D01*
X123422Y-135000D01*
Y-132501D01*
X124422Y-133001D02*
X124922Y-132501D01*
X125921D01*
X126421Y-133001D01*
Y-133501D01*
X125921Y-134001D01*
X125422D01*
X125921D01*
X126421Y-134500D01*
Y-135000D01*
X125921Y-135500D01*
X124922D01*
X124422Y-135000D01*
X107000Y-141000D02*
Y-138001D01*
X108500D01*
X108999Y-138501D01*
Y-139500D01*
X108500Y-140000D01*
X107000D01*
X108000D02*
X108999Y-141000D01*
X109999D02*
X110999D01*
X110499D01*
Y-138001D01*
X109999Y-138501D01*
X113998Y-141000D02*
Y-138001D01*
X112498Y-139500D01*
X114498D01*
X102500Y-164000D02*
Y-161001D01*
X103999D01*
X104499Y-161501D01*
Y-162501D01*
X103999Y-163000D01*
X102500D01*
X103500D02*
X104499Y-164000D01*
X105499D02*
X106499D01*
X105999D01*
Y-161001D01*
X105499Y-161501D01*
X109998Y-161001D02*
X108998Y-161501D01*
X107998Y-162501D01*
Y-163500D01*
X108498Y-164000D01*
X109498D01*
X109998Y-163500D01*
Y-163000D01*
X109498Y-162501D01*
X107998D01*
X92500Y-159000D02*
Y-156001D01*
X93999D01*
X94499Y-156501D01*
Y-157501D01*
X93999Y-158000D01*
X92500D01*
X93500D02*
X94499Y-159000D01*
X95499D02*
X96499D01*
X95999D01*
Y-156001D01*
X95499Y-156501D01*
X97998Y-156001D02*
X99998D01*
Y-156501D01*
X97998Y-158500D01*
Y-159000D01*
X97999Y-173501D02*
X97500Y-173001D01*
X96500D01*
X96000Y-173501D01*
Y-175500D01*
X96500Y-176000D01*
X97500D01*
X97999Y-175500D01*
X98999Y-176000D02*
X99999D01*
X99499D01*
Y-173001D01*
X98999Y-173501D01*
X101498Y-176000D02*
X102498D01*
X101998D01*
Y-173001D01*
X101498Y-173501D01*
X94500Y-194000D02*
Y-191001D01*
X95999D01*
X96499Y-191501D01*
Y-192500D01*
X95999Y-193000D01*
X94500D01*
X95500D02*
X96499Y-194000D01*
X99498Y-191001D02*
X97499D01*
Y-192500D01*
X98499Y-192001D01*
X98999D01*
X99498Y-192500D01*
Y-193500D01*
X98999Y-194000D01*
X97999D01*
X97499Y-193500D01*
X143322Y-184501D02*
X142822Y-184001D01*
X141823D01*
X141323Y-184501D01*
Y-186500D01*
X141823Y-187000D01*
X142822D01*
X143322Y-186500D01*
X144322Y-187000D02*
X145322D01*
X144822D01*
Y-184001D01*
X144322Y-184501D01*
X186999Y-195001D02*
X186500Y-194501D01*
X185500D01*
X185000Y-195001D01*
Y-197000D01*
X185500Y-197500D01*
X186500D01*
X186999Y-197000D01*
X189499Y-197500D02*
Y-194501D01*
X187999Y-196001D01*
X189998D01*
X171000Y-176001D02*
Y-179000D01*
X172500D01*
X172999Y-178500D01*
Y-176501D01*
X172500Y-176001D01*
X171000D01*
X175998Y-179000D02*
X173999D01*
X175998Y-177001D01*
Y-176501D01*
X175499Y-176001D01*
X174499D01*
X173999Y-176501D01*
X195999Y-37501D02*
X195000D01*
X195500D01*
Y-40000D01*
X195000Y-40500D01*
X194500D01*
X194000Y-40000D01*
X196999Y-38001D02*
X197499Y-37501D01*
X198499D01*
X198998Y-38001D01*
Y-38501D01*
X198499Y-39000D01*
X197999D01*
X198499D01*
X198998Y-39500D01*
Y-40000D01*
X198499Y-40500D01*
X197499D01*
X196999Y-40000D01*
X113999Y-3501D02*
X113000D01*
X113499D01*
Y-6000D01*
X113000Y-6500D01*
X112500D01*
X112000Y-6000D01*
X114999Y-6500D02*
X115999D01*
X115499D01*
Y-3501D01*
X114999Y-4001D01*
X119498Y-6500D02*
X117498D01*
X119498Y-4501D01*
Y-4001D01*
X118998Y-3501D01*
X117998D01*
X117498Y-4001D01*
X111499Y-11001D02*
X111000Y-10501D01*
X110000D01*
X109500Y-11001D01*
Y-13000D01*
X110000Y-13500D01*
X111000D01*
X111499Y-13000D01*
X112499Y-11001D02*
X112999Y-10501D01*
X113999D01*
X114498Y-11001D01*
Y-11501D01*
X113999Y-12000D01*
X114498Y-12500D01*
Y-13000D01*
X113999Y-13500D01*
X112999D01*
X112499Y-13000D01*
Y-12500D01*
X112999Y-12000D01*
X112499Y-11501D01*
Y-11001D01*
X112999Y-12000D02*
X113999D01*
X1500Y-5000D02*
Y-2001D01*
X2999D01*
X3499Y-2501D01*
Y-3500D01*
X2999Y-4000D01*
X1500D01*
X2500D02*
X3499Y-5000D01*
X4499D02*
X5499D01*
X4999D01*
Y-2001D01*
X4499Y-2501D01*
X8998Y-5000D02*
X6998D01*
X8998Y-3001D01*
Y-2501D01*
X8498Y-2001D01*
X7498D01*
X6998Y-2501D01*
X11000Y-5000D02*
Y-2001D01*
X12500D01*
X12999Y-2501D01*
Y-3500D01*
X12500Y-4000D01*
X11000D01*
X12000D02*
X12999Y-5000D01*
X13999D02*
X14999D01*
X14499D01*
Y-2001D01*
X13999Y-2501D01*
X16498Y-5000D02*
X17498D01*
X16998D01*
Y-2001D01*
X16498Y-2501D01*
X20012Y-5000D02*
Y-2001D01*
X21511D01*
X22011Y-2501D01*
Y-3500D01*
X21511Y-4000D01*
X20012D01*
X21012D02*
X22011Y-5000D01*
X23011D02*
X24011D01*
X23511D01*
Y-2001D01*
X23011Y-2501D01*
X25510D02*
X26010Y-2001D01*
X27010D01*
X27509Y-2501D01*
Y-3001D01*
X27010Y-3500D01*
X26510D01*
X27010D01*
X27509Y-4000D01*
Y-4500D01*
X27010Y-5000D01*
X26010D01*
X25510Y-4500D01*
X29000Y-6517D02*
Y-9516D01*
X30500D01*
X30999Y-9016D01*
Y-7017D01*
X30500Y-6517D01*
X29000D01*
X33998D02*
X31999D01*
Y-8016D01*
X32999Y-7516D01*
X33499D01*
X33998Y-8016D01*
Y-9016D01*
X33499Y-9516D01*
X32499D01*
X31999Y-9016D01*
X58500Y-34000D02*
Y-31001D01*
X60000D01*
X60499Y-31501D01*
Y-32500D01*
X60000Y-33000D01*
X58500D01*
X59500D02*
X60499Y-34000D01*
X61499Y-31501D02*
X61999Y-31001D01*
X62999D01*
X63498Y-31501D01*
Y-32001D01*
X62999Y-32500D01*
X63498Y-33000D01*
Y-33500D01*
X62999Y-34000D01*
X61999D01*
X61499Y-33500D01*
Y-33000D01*
X61999Y-32500D01*
X61499Y-32001D01*
Y-31501D01*
X61999Y-32500D02*
X62999D01*
X16999Y-27000D02*
Y-25001D01*
X16499Y-24501D01*
X15500D01*
X15000Y-25001D01*
Y-27000D01*
X15500Y-27500D01*
X16499D01*
X16000Y-26500D02*
X16999Y-27500D01*
X16499D02*
X16999Y-27000D01*
X19998Y-27500D02*
X17999D01*
X19998Y-25501D01*
Y-25001D01*
X19499Y-24501D01*
X18499D01*
X17999Y-25001D01*
X8500Y-38501D02*
Y-41500D01*
X10000D01*
X10499Y-41000D01*
Y-39001D01*
X10000Y-38501D01*
X8500D01*
X11499Y-39001D02*
X11999Y-38501D01*
X12999D01*
X13498Y-39001D01*
Y-39501D01*
X12999Y-40001D01*
X12499D01*
X12999D01*
X13498Y-40500D01*
Y-41000D01*
X12999Y-41500D01*
X11999D01*
X11499Y-41000D01*
X16500Y-49500D02*
Y-46501D01*
X18000D01*
X18499Y-47001D01*
Y-48000D01*
X18000Y-48500D01*
X16500D01*
X17500D02*
X18499Y-49500D01*
X19499Y-46501D02*
X21498D01*
Y-47001D01*
X19499Y-49000D01*
Y-49500D01*
X20500Y-63000D02*
Y-60001D01*
X22000D01*
X22499Y-60501D01*
Y-61501D01*
X22000Y-62000D01*
X20500D01*
X21500D02*
X22499Y-63000D01*
X25498Y-60001D02*
X24499Y-60501D01*
X23499Y-61501D01*
Y-62500D01*
X23999Y-63000D01*
X24999D01*
X25498Y-62500D01*
Y-62000D01*
X24999Y-61501D01*
X23499D01*
X58499Y-70001D02*
X57999Y-69501D01*
X57000D01*
X56500Y-70001D01*
Y-72000D01*
X57000Y-72500D01*
X57999D01*
X58499Y-72000D01*
X61498Y-69501D02*
X60499Y-70001D01*
X59499Y-71000D01*
Y-72000D01*
X59999Y-72500D01*
X60999D01*
X61498Y-72000D01*
Y-71500D01*
X60999Y-71000D01*
X59499D01*
X19999Y-96501D02*
X19500Y-96001D01*
X18500D01*
X18000Y-96501D01*
Y-98500D01*
X18500Y-99000D01*
X19500D01*
X19999Y-98500D01*
X22998Y-96001D02*
X20999D01*
Y-97500D01*
X21999Y-97001D01*
X22499D01*
X22998Y-97500D01*
Y-98500D01*
X22499Y-99000D01*
X21499D01*
X20999Y-98500D01*
X56000Y-105501D02*
Y-108500D01*
X57499D01*
X57999Y-108000D01*
Y-106001D01*
X57499Y-105501D01*
X56000D01*
X60499Y-108500D02*
Y-105501D01*
X58999Y-107001D01*
X60998D01*
X73999Y-158501D02*
X73500Y-158001D01*
X72500D01*
X72000Y-158501D01*
Y-160500D01*
X72500Y-161000D01*
X73500D01*
X73999Y-160500D01*
X74999Y-158001D02*
X76998D01*
Y-158501D01*
X74999Y-160500D01*
Y-161000D01*
X73999Y-171001D02*
X73500Y-170501D01*
X72500D01*
X72000Y-171001D01*
Y-173000D01*
X72500Y-173500D01*
X73500D01*
X73999Y-173000D01*
X74999Y-170501D02*
X76998D01*
Y-171001D01*
X74999Y-173000D01*
Y-173500D01*
X74772Y-226804D02*
Y-229803D01*
X76771D01*
X79770D02*
X77771D01*
X79770Y-227804D01*
Y-227304D01*
X79270Y-226804D01*
X78271D01*
X77771Y-227304D01*
X100000Y-296500D02*
Y-293501D01*
X101499D01*
X101999Y-294001D01*
Y-295001D01*
X101499Y-295500D01*
X100000D01*
X101000D02*
X101999Y-296500D01*
X104998Y-293501D02*
X103999Y-294001D01*
X102999Y-295001D01*
Y-296000D01*
X103499Y-296500D01*
X104499D01*
X104998Y-296000D01*
Y-295500D01*
X104499Y-295001D01*
X102999D01*
X100000Y-285651D02*
Y-288650D01*
X101499D01*
X101999Y-288150D01*
Y-286150D01*
X101499Y-285651D01*
X100000D01*
X102999Y-286150D02*
X103499Y-285651D01*
X104499D01*
X104998Y-286150D01*
Y-286650D01*
X104499Y-287150D01*
X103999D01*
X104499D01*
X104998Y-287650D01*
Y-288150D01*
X104499Y-288650D01*
X103499D01*
X102999Y-288150D01*
X91000Y-276500D02*
Y-273501D01*
X92500D01*
X92999Y-274001D01*
Y-275001D01*
X92500Y-275500D01*
X91000D01*
X92000D02*
X92999Y-276500D01*
X93999Y-273501D02*
X95998D01*
Y-274001D01*
X93999Y-276000D01*
Y-276500D01*
X69999Y-281500D02*
Y-279501D01*
X69499Y-279001D01*
X68500D01*
X68000Y-279501D01*
Y-281500D01*
X68500Y-282000D01*
X69499D01*
X69000Y-281000D02*
X69999Y-282000D01*
X69499D02*
X69999Y-281500D01*
X72998Y-282000D02*
X70999D01*
X72998Y-280001D01*
Y-279501D01*
X72499Y-279001D01*
X71499D01*
X70999Y-279501D01*
X88000Y-259501D02*
Y-262500D01*
X89499D01*
X89999Y-262000D01*
Y-260001D01*
X89499Y-259501D01*
X88000D01*
X92499Y-262500D02*
Y-259501D01*
X90999Y-261000D01*
X92998D01*
X49000Y-280153D02*
Y-277154D01*
X50499D01*
X50999Y-277654D01*
Y-278654D01*
X50499Y-279154D01*
X49000D01*
X50000D02*
X50999Y-280153D01*
X51999Y-277654D02*
X52499Y-277154D01*
X53499D01*
X53998Y-277654D01*
Y-278154D01*
X53499Y-278654D01*
X53998Y-279154D01*
Y-279654D01*
X53499Y-280153D01*
X52499D01*
X51999Y-279654D01*
Y-279154D01*
X52499Y-278654D01*
X51999Y-278154D01*
Y-277654D01*
X52499Y-278654D02*
X53499D01*
X34000Y-276501D02*
Y-279000D01*
X34500Y-279500D01*
X35500D01*
X35999Y-279000D01*
Y-276501D01*
X38998Y-279500D02*
X36999D01*
X38998Y-277501D01*
Y-277001D01*
X38499Y-276501D01*
X37499D01*
X36999Y-277001D01*
X38999Y-304001D02*
X38500Y-303501D01*
X37500D01*
X37000Y-304001D01*
Y-306000D01*
X37500Y-306500D01*
X38500D01*
X38999Y-306000D01*
X41998Y-303501D02*
X40999Y-304001D01*
X39999Y-305000D01*
Y-306000D01*
X40499Y-306500D01*
X41499D01*
X41998Y-306000D01*
Y-305500D01*
X41499Y-305000D01*
X39999D01*
X19499Y-316501D02*
X19000Y-316001D01*
X18000D01*
X17500Y-316501D01*
Y-318500D01*
X18000Y-319000D01*
X19000D01*
X19499Y-318500D01*
X22498Y-319000D02*
X20499D01*
X22498Y-317001D01*
Y-316501D01*
X21999Y-316001D01*
X20999D01*
X20499Y-316501D01*
X8999Y-100501D02*
X8000D01*
X8500D01*
Y-103000D01*
X8000Y-103500D01*
X7500D01*
X7000Y-103000D01*
X11998Y-100501D02*
X9999D01*
Y-102000D01*
X10999Y-101501D01*
X11499D01*
X11998Y-102000D01*
Y-103000D01*
X11499Y-103500D01*
X10499D01*
X9999Y-103000D01*
X9499Y-191001D02*
X8500D01*
X8999D01*
Y-193500D01*
X8500Y-194000D01*
X8000D01*
X7500Y-193500D01*
X12498Y-191001D02*
X11499Y-191501D01*
X10499Y-192500D01*
Y-193500D01*
X10999Y-194000D01*
X11999D01*
X12498Y-193500D01*
Y-193000D01*
X11999Y-192500D01*
X10499D01*
X8999Y-280001D02*
X8000D01*
X8500D01*
Y-282500D01*
X8000Y-283000D01*
X7500D01*
X7000Y-282500D01*
X9999Y-280501D02*
X10499Y-280001D01*
X11499D01*
X11998Y-280501D01*
Y-281001D01*
X11499Y-281501D01*
X11998Y-282000D01*
Y-282500D01*
X11499Y-283000D01*
X10499D01*
X9999Y-282500D01*
Y-282000D01*
X10499Y-281501D01*
X9999Y-281001D01*
Y-280501D01*
X10499Y-281501D02*
X11499D01*
X18999Y-369001D02*
X18000D01*
X18499D01*
Y-371500D01*
X18000Y-372000D01*
X17500D01*
X17000Y-371500D01*
X19999Y-372000D02*
X20999D01*
X20499D01*
Y-369001D01*
X19999Y-369501D01*
X22498Y-372000D02*
X23498D01*
X22998D01*
Y-369001D01*
X22498Y-369501D01*
X102114Y-320500D02*
Y-317501D01*
X103614D01*
X104113Y-318001D01*
Y-319001D01*
X103614Y-319500D01*
X102114D01*
X103114D02*
X104113Y-320500D01*
X105113Y-320000D02*
X105613Y-320500D01*
X106613D01*
X107113Y-320000D01*
Y-318001D01*
X106613Y-317501D01*
X105613D01*
X105113Y-318001D01*
Y-318501D01*
X105613Y-319001D01*
X107113D01*
X101000Y-315500D02*
Y-312501D01*
X102499D01*
X102999Y-313001D01*
Y-314001D01*
X102499Y-314500D01*
X101000D01*
X102000D02*
X102999Y-315500D01*
X103999D02*
X104999D01*
X104499D01*
Y-312501D01*
X103999Y-313001D01*
X106498D02*
X106998Y-312501D01*
X107998D01*
X108498Y-313001D01*
Y-315000D01*
X107998Y-315500D01*
X106998D01*
X106498Y-315000D01*
Y-313001D01*
X84000Y-74101D02*
Y-77100D01*
X85999D01*
X88998D02*
X86999D01*
X88998Y-75101D01*
Y-74601D01*
X88499Y-74101D01*
X87499D01*
X86999Y-74601D01*
X143600Y-166800D02*
Y-163801D01*
X145099D01*
X145599Y-164301D01*
Y-165301D01*
X145099Y-165800D01*
X143600D01*
X144600D02*
X145599Y-166800D01*
X146599D02*
X147599D01*
X147099D01*
Y-163801D01*
X146599Y-164301D01*
X149098Y-166300D02*
X149598Y-166800D01*
X150598D01*
X151098Y-166300D01*
Y-164301D01*
X150598Y-163801D01*
X149598D01*
X149098Y-164301D01*
Y-164801D01*
X149598Y-165301D01*
X151098D01*
X143700Y-160700D02*
Y-157701D01*
X145200D01*
X145699Y-158201D01*
Y-159201D01*
X145200Y-159700D01*
X143700D01*
X144700D02*
X145699Y-160700D01*
X146699D02*
X147699D01*
X147199D01*
Y-157701D01*
X146699Y-158201D01*
X149198D02*
X149698Y-157701D01*
X150698D01*
X151198Y-158201D01*
Y-158701D01*
X150698Y-159201D01*
X151198Y-159700D01*
Y-160200D01*
X150698Y-160700D01*
X149698D01*
X149198Y-160200D01*
Y-159700D01*
X149698Y-159201D01*
X149198Y-158701D01*
Y-158201D01*
X149698Y-159201D02*
X150698D01*
X156100Y-154600D02*
Y-151601D01*
X157599D01*
X158099Y-152101D01*
Y-153101D01*
X157599Y-153600D01*
X156100D01*
X157100D02*
X158099Y-154600D01*
X159099D02*
X160099D01*
X159599D01*
Y-151601D01*
X159099Y-152101D01*
X163598Y-151601D02*
X161598D01*
Y-153101D01*
X162598Y-152601D01*
X163098D01*
X163598Y-153101D01*
Y-154100D01*
X163098Y-154600D01*
X162098D01*
X161598Y-154100D01*
X95600Y-208800D02*
Y-205801D01*
X97100D01*
X97599Y-206301D01*
Y-207300D01*
X97100Y-207800D01*
X95600D01*
X96600D02*
X97599Y-208800D01*
X100598D02*
X98599D01*
X100598Y-206801D01*
Y-206301D01*
X100099Y-205801D01*
X99099D01*
X98599Y-206301D01*
X62799Y-285101D02*
X62300Y-284601D01*
X61300D01*
X60800Y-285101D01*
Y-287100D01*
X61300Y-287600D01*
X62300D01*
X62799Y-287100D01*
X65798Y-284601D02*
X63799D01*
Y-286101D01*
X64799Y-285601D01*
X65299D01*
X65798Y-286101D01*
Y-287100D01*
X65299Y-287600D01*
X64299D01*
X63799Y-287100D01*
X197199Y-62801D02*
X196200D01*
X196700D01*
Y-65300D01*
X196200Y-65800D01*
X195700D01*
X195200Y-65300D01*
X199699Y-65800D02*
Y-62801D01*
X198199Y-64301D01*
X200198D01*
M02*
