G04*
G04 #@! TF.GenerationSoftware,Altium Limited,Altium Designer,18.1.11 (251)*
G04*
G04 Layer_Color=16711935*
%FSLAX25Y25*%
%MOIN*%
G70*
G01*
G75*
%ADD32R,0.19685X0.06299*%
%ADD72C,0.07800*%
%ADD73C,0.07099*%
%ADD74R,0.07099X0.07099*%
%ADD75R,0.07099X0.07099*%
%ADD76R,0.06706X0.06706*%
%ADD77C,0.06706*%
%ADD78C,0.16548*%
%ADD79C,0.02965*%
D32*
X197917Y-31106D02*
D03*
Y-9295D02*
D03*
D72*
X200000Y-340000D02*
D03*
Y-330000D02*
D03*
Y-320000D02*
D03*
Y-310000D02*
D03*
Y-300000D02*
D03*
Y-290000D02*
D03*
Y-280000D02*
D03*
Y-270000D02*
D03*
Y-250000D02*
D03*
Y-240000D02*
D03*
Y-230000D02*
D03*
Y-220000D02*
D03*
Y-210000D02*
D03*
Y-200000D02*
D03*
Y-190000D02*
D03*
Y-180000D02*
D03*
X10000Y-110000D02*
D03*
Y-120000D02*
D03*
Y-130000D02*
D03*
Y-140000D02*
D03*
Y-150000D02*
D03*
Y-160000D02*
D03*
Y-170000D02*
D03*
Y-180000D02*
D03*
Y-200000D02*
D03*
Y-210000D02*
D03*
Y-220000D02*
D03*
Y-230000D02*
D03*
Y-240000D02*
D03*
Y-250000D02*
D03*
Y-260000D02*
D03*
Y-270000D02*
D03*
Y-290000D02*
D03*
Y-300000D02*
D03*
Y-310000D02*
D03*
Y-320000D02*
D03*
Y-330000D02*
D03*
Y-340000D02*
D03*
Y-350000D02*
D03*
Y-360000D02*
D03*
X30000Y-380000D02*
D03*
X40000D02*
D03*
X50000D02*
D03*
X60000D02*
D03*
X70000D02*
D03*
X80000D02*
D03*
X90000D02*
D03*
X100000D02*
D03*
X110000D02*
D03*
X120000D02*
D03*
X130000D02*
D03*
X140000D02*
D03*
X150000D02*
D03*
X160000D02*
D03*
X170000D02*
D03*
X180000D02*
D03*
X190000D02*
D03*
X30000Y-370000D02*
D03*
X40000D02*
D03*
X50000D02*
D03*
X60000D02*
D03*
X70000D02*
D03*
X80000D02*
D03*
X90000D02*
D03*
X100000D02*
D03*
X110000D02*
D03*
X200000Y-380000D02*
D03*
X120000Y-370000D02*
D03*
X130000D02*
D03*
X140000D02*
D03*
X150000D02*
D03*
X160000D02*
D03*
X170000D02*
D03*
X180000D02*
D03*
X190000D02*
D03*
X200000D02*
D03*
Y-164000D02*
D03*
Y-154000D02*
D03*
Y-74000D02*
D03*
Y-84000D02*
D03*
Y-94000D02*
D03*
Y-104000D02*
D03*
Y-114000D02*
D03*
Y-124000D02*
D03*
Y-134000D02*
D03*
Y-144000D02*
D03*
D73*
X179000Y-158150D02*
D03*
Y-119291D02*
D03*
X179500Y-87291D02*
D03*
X41000Y-15500D02*
D03*
D74*
X179000Y-168150D02*
D03*
Y-129291D02*
D03*
X179500Y-97291D02*
D03*
D75*
X51000Y-15500D02*
D03*
D76*
X65694Y-357700D02*
D03*
X77694D02*
D03*
X89694D02*
D03*
X101500D02*
D03*
X113500D02*
D03*
X125500D02*
D03*
X137500D02*
D03*
X149500D02*
D03*
X161500D02*
D03*
X173500D02*
D03*
X185500Y-357500D02*
D03*
D77*
X65694Y-347700D02*
D03*
Y-337700D02*
D03*
X77694Y-347700D02*
D03*
Y-337700D02*
D03*
X89694Y-347700D02*
D03*
Y-337700D02*
D03*
X101500Y-347700D02*
D03*
Y-337700D02*
D03*
X113500Y-347700D02*
D03*
Y-337700D02*
D03*
X125500Y-347700D02*
D03*
Y-337700D02*
D03*
X137500Y-347700D02*
D03*
Y-337700D02*
D03*
X149500Y-347700D02*
D03*
Y-337700D02*
D03*
X161500Y-347700D02*
D03*
Y-337700D02*
D03*
X173500Y-347700D02*
D03*
Y-337700D02*
D03*
X185500Y-347500D02*
D03*
Y-337500D02*
D03*
X170457Y-31106D02*
D03*
X138854Y-236000D02*
D03*
X166000Y-120500D02*
D03*
X161000Y-133500D02*
D03*
X172000Y-255500D02*
D03*
X97500Y-168390D02*
D03*
X56000Y-308500D02*
D03*
X47000Y-302000D02*
D03*
X176000Y-215500D02*
D03*
X160000Y-179000D02*
D03*
X129041Y-149541D02*
D03*
X97000Y-150000D02*
D03*
D78*
X200000Y-60000D02*
D03*
X10000Y-380000D02*
D03*
X200000Y-355000D02*
D03*
X10000Y-55000D02*
D03*
D79*
X165500Y-155000D02*
D03*
X40335Y-53831D02*
D03*
X44665D02*
D03*
X40335Y-49500D02*
D03*
X44665D02*
D03*
X40335Y-45169D02*
D03*
X44665D02*
D03*
X114106Y-208169D02*
D03*
X118437D02*
D03*
X114106Y-212500D02*
D03*
X118437D02*
D03*
X114106Y-216831D02*
D03*
X118437D02*
D03*
X34165Y-295331D02*
D03*
X29835D02*
D03*
X34165Y-291000D02*
D03*
X29835D02*
D03*
X34165Y-286669D02*
D03*
X29835D02*
D03*
X26016Y-302000D02*
D03*
X26000Y-186000D02*
D03*
X15000Y-191000D02*
D03*
X40000Y-135500D02*
D03*
X146000Y-99500D02*
D03*
X51500Y-71000D02*
D03*
X100740Y-301996D02*
D03*
X113272Y-221500D02*
D03*
X7850Y-90650D02*
D03*
X38500Y-60000D02*
D03*
X148000Y-10000D02*
D03*
X4750Y-75000D02*
D03*
X41000Y-310000D02*
D03*
X79000Y-214500D02*
D03*
X7000Y-190500D02*
D03*
X24000Y-52500D02*
D03*
X14650Y-30000D02*
D03*
X40000Y-338000D02*
D03*
X138000Y-76906D02*
D03*
X128000Y-76982D02*
D03*
X152000Y-315000D02*
D03*
X111500Y-160650D02*
D03*
X152500Y-179500D02*
D03*
X138000Y-22500D02*
D03*
X147500Y-91536D02*
D03*
X168000Y-84000D02*
D03*
X157500D02*
D03*
X178000Y-76982D02*
D03*
X170850Y-318500D02*
D03*
X158746D02*
D03*
X146850Y-318545D02*
D03*
X134850Y-318500D02*
D03*
X122850D02*
D03*
X110850Y-318545D02*
D03*
X98850D02*
D03*
X87045D02*
D03*
X75045D02*
D03*
X63045Y-318500D02*
D03*
M02*
