G04*
G04 #@! TF.GenerationSoftware,Altium Limited,Altium Designer,18.1.11 (251)*
G04*
G04 Layer_Physical_Order=1*
G04 Layer_Color=255*
%FSLAX25Y25*%
%MOIN*%
G70*
G01*
G75*
%ADD16R,0.09449X0.12205*%
%ADD17R,0.05709X0.02362*%
%ADD18R,0.03543X0.02756*%
%ADD19R,0.04921X0.10433*%
%ADD20R,0.03543X0.03150*%
%ADD21R,0.03150X0.03150*%
%ADD22R,0.14370X0.68268*%
%ADD23R,0.04528X0.07087*%
%ADD24R,0.03543X0.03937*%
G04:AMPARAMS|DCode=25|XSize=21.65mil|YSize=49.21mil|CornerRadius=1.95mil|HoleSize=0mil|Usage=FLASHONLY|Rotation=180.000|XOffset=0mil|YOffset=0mil|HoleType=Round|Shape=RoundedRectangle|*
%AMROUNDEDRECTD25*
21,1,0.02165,0.04532,0,0,180.0*
21,1,0.01776,0.04921,0,0,180.0*
1,1,0.00390,-0.00888,0.02266*
1,1,0.00390,0.00888,0.02266*
1,1,0.00390,0.00888,-0.02266*
1,1,0.00390,-0.00888,-0.02266*
%
%ADD25ROUNDEDRECTD25*%
%ADD26R,0.03937X0.03543*%
%ADD27R,0.10433X0.04921*%
%ADD28R,0.07087X0.04528*%
%ADD29R,0.17323X0.10236*%
%ADD30R,0.07008X0.08504*%
%ADD31R,0.19685X0.04724*%
%ADD32R,0.19685X0.06299*%
%ADD33R,0.04724X0.13780*%
%ADD34R,0.10039X0.15354*%
%ADD35R,0.06496X0.02756*%
%ADD36R,0.03150X0.03543*%
%ADD37R,0.02756X0.03543*%
%ADD38R,0.07087X0.13780*%
%ADD39R,0.15354X0.10039*%
%ADD40R,0.13386X0.50945*%
%ADD41R,0.03150X0.03150*%
%ADD42R,0.08504X0.07008*%
%ADD43R,0.10236X0.17323*%
%ADD44R,0.50945X0.13386*%
%ADD45R,0.13780X0.07087*%
%ADD80C,0.05000*%
%ADD81C,0.04000*%
%ADD82C,0.01500*%
%ADD83C,0.03000*%
%ADD84C,0.02000*%
%ADD85R,0.10045X0.12971*%
%ADD86C,0.07000*%
%ADD87C,0.06299*%
%ADD88R,0.06299X0.06299*%
%ADD89R,0.06299X0.06299*%
%ADD90R,0.05906X0.05906*%
%ADD91C,0.05906*%
%ADD92C,0.15748*%
%ADD93C,0.02165*%
G36*
X208471Y-5146D02*
X198417D01*
Y-9295D01*
Y-13445D01*
X208471D01*
Y-16839D01*
X187075D01*
Y-18162D01*
X181362D01*
Y-3551D01*
X174638D01*
Y-19331D01*
X176484D01*
X176558Y-19442D01*
X178759Y-21643D01*
X179420Y-22085D01*
X180201Y-22240D01*
X187075D01*
Y-23563D01*
X208471D01*
Y-26957D01*
X198417D01*
Y-31106D01*
Y-35256D01*
X208471D01*
Y-55962D01*
X207971Y-56087D01*
X207414Y-55046D01*
X206305Y-53695D01*
X204954Y-52586D01*
X203412Y-51762D01*
X201740Y-51254D01*
X200500Y-51132D01*
Y-60000D01*
Y-68868D01*
X201740Y-68746D01*
X203412Y-68238D01*
X204954Y-67414D01*
X206305Y-66305D01*
X207414Y-64954D01*
X207971Y-63913D01*
X208471Y-64038D01*
X208471Y-350962D01*
X207971Y-351087D01*
X207414Y-350046D01*
X206305Y-348695D01*
X204954Y-347586D01*
X203412Y-346762D01*
X201740Y-346254D01*
X200500Y-346132D01*
Y-355000D01*
Y-363868D01*
X201740Y-363746D01*
X203412Y-363238D01*
X204954Y-362414D01*
X206305Y-361305D01*
X207414Y-359954D01*
X207971Y-358913D01*
X208471Y-359038D01*
Y-383366D01*
X203366Y-388471D01*
X159000D01*
X158415Y-388587D01*
X157919Y-388919D01*
X148366Y-398471D01*
X20633D01*
X11440Y-389278D01*
X11627Y-388757D01*
X11740Y-388746D01*
X13412Y-388238D01*
X14954Y-387414D01*
X16305Y-386305D01*
X17414Y-384954D01*
X18238Y-383412D01*
X18746Y-381740D01*
X18868Y-380500D01*
X10000D01*
Y-380000D01*
X9500D01*
Y-371132D01*
X8260Y-371254D01*
X6588Y-371762D01*
X5046Y-372586D01*
X3695Y-373695D01*
X2586Y-375046D01*
X2029Y-376087D01*
X1529Y-375962D01*
Y-324706D01*
X1991Y-324515D01*
X5817Y-328340D01*
X5616Y-328825D01*
X5461Y-330000D01*
X5616Y-331175D01*
X6069Y-332269D01*
X6791Y-333209D01*
X7731Y-333931D01*
X8825Y-334384D01*
X10000Y-334539D01*
X11175Y-334384D01*
X12269Y-333931D01*
X13209Y-333209D01*
X13931Y-332269D01*
X14384Y-331175D01*
X14539Y-330000D01*
X14384Y-328825D01*
X13931Y-327731D01*
X13209Y-326791D01*
X12269Y-326069D01*
X11175Y-325616D01*
X10000Y-325461D01*
X8825Y-325616D01*
X8340Y-325817D01*
X4284Y-321761D01*
X4284Y-77989D01*
X5249Y-77024D01*
X5563Y-76962D01*
X6251Y-76502D01*
X6712Y-75813D01*
X6874Y-75000D01*
X6712Y-74187D01*
X6251Y-73498D01*
X5563Y-73038D01*
X4750Y-72877D01*
X3937Y-73038D01*
X3249Y-73498D01*
X2788Y-74187D01*
X2726Y-74501D01*
X1991Y-75235D01*
X1529Y-75044D01*
Y-59038D01*
X2029Y-58913D01*
X2586Y-59954D01*
X3695Y-61305D01*
X5046Y-62414D01*
X6588Y-63238D01*
X8260Y-63746D01*
X9500Y-63868D01*
Y-55000D01*
Y-46132D01*
X8260Y-46254D01*
X6588Y-46762D01*
X5046Y-47586D01*
X3695Y-48695D01*
X2586Y-50046D01*
X2029Y-51087D01*
X1529Y-50962D01*
Y-24154D01*
X3746D01*
X3852Y-24683D01*
X4238Y-25262D01*
X10238Y-31262D01*
X10817Y-31648D01*
X11500Y-31784D01*
X13571D01*
X13837Y-31962D01*
X14650Y-32124D01*
X15462Y-31962D01*
X16151Y-31501D01*
X16611Y-30813D01*
X16773Y-30000D01*
X16611Y-29187D01*
X16434Y-28922D01*
Y-24153D01*
X18898D01*
Y-19398D01*
X10402D01*
Y-24153D01*
X12865D01*
Y-28216D01*
X12239D01*
X8639Y-24615D01*
X8830Y-24154D01*
X9748D01*
Y-19398D01*
X1529D01*
Y-11161D01*
X5000D01*
Y-8783D01*
Y-6406D01*
X1529D01*
Y-1529D01*
X208471D01*
Y-5146D01*
D02*
G37*
%LPC*%
G36*
X41000Y-2307D02*
X40174Y-2416D01*
X39404Y-2735D01*
X38743Y-3243D01*
X38235Y-3904D01*
X37916Y-4674D01*
X37807Y-5500D01*
X37916Y-6326D01*
X38192Y-6993D01*
X37768Y-7276D01*
X36780Y-6287D01*
X36049Y-5726D01*
X35197Y-5374D01*
X34284Y-5253D01*
X14650D01*
X13736Y-5374D01*
X12885Y-5726D01*
X12153Y-6287D01*
X12063Y-6406D01*
X10402D01*
Y-11161D01*
X12063D01*
X12153Y-11280D01*
X12885Y-11841D01*
X13736Y-12193D01*
X14650Y-12314D01*
X28925D01*
Y-14350D01*
X34075D01*
Y-14221D01*
X34537Y-14029D01*
X36937Y-16429D01*
X36957Y-16583D01*
X37375Y-17593D01*
X38041Y-18460D01*
X38208Y-18588D01*
X38343Y-18915D01*
X38904Y-19646D01*
X45755Y-26496D01*
X46486Y-27057D01*
X47337Y-27410D01*
X48251Y-27530D01*
X76780D01*
X77693Y-27410D01*
X78545Y-27057D01*
X79276Y-26496D01*
X85315Y-20457D01*
X95020D01*
Y-3102D01*
X82980D01*
Y-12807D01*
X75317Y-20470D01*
X49713D01*
X49355Y-20111D01*
X49546Y-19650D01*
X50500D01*
Y-16000D01*
X46850D01*
Y-16954D01*
X46389Y-17145D01*
X45326Y-16082D01*
X45403Y-15500D01*
X45282Y-14586D01*
X44930Y-13735D01*
X44369Y-13004D01*
X44238Y-12904D01*
X43960Y-12540D01*
X43093Y-11875D01*
X42083Y-11457D01*
X41929Y-11437D01*
X39224Y-8732D01*
X39507Y-8308D01*
X40174Y-8584D01*
X41000Y-8693D01*
X41826Y-8584D01*
X42596Y-8265D01*
X43257Y-7758D01*
X43765Y-7096D01*
X44084Y-6326D01*
X44193Y-5500D01*
X44084Y-4674D01*
X43765Y-3904D01*
X43257Y-3243D01*
X42596Y-2735D01*
X41826Y-2416D01*
X41000Y-2307D01*
D02*
G37*
G36*
X9748Y-6406D02*
X6000D01*
Y-8283D01*
X9748D01*
Y-6406D01*
D02*
G37*
G36*
X51000Y-2307D02*
X50174Y-2416D01*
X49404Y-2735D01*
X48742Y-3243D01*
X48235Y-3904D01*
X47916Y-4674D01*
X47807Y-5500D01*
X47916Y-6326D01*
X48235Y-7096D01*
X48742Y-7758D01*
X49404Y-8265D01*
X50174Y-8584D01*
X51000Y-8693D01*
X51826Y-8584D01*
X52596Y-8265D01*
X53258Y-7758D01*
X53765Y-7096D01*
X54084Y-6326D01*
X54193Y-5500D01*
X54084Y-4674D01*
X53765Y-3904D01*
X53258Y-3243D01*
X52596Y-2735D01*
X51826Y-2416D01*
X51000Y-2307D01*
D02*
G37*
G36*
X197417Y-5146D02*
X187075D01*
Y-8795D01*
X197417D01*
Y-5146D01*
D02*
G37*
G36*
X171362Y-3551D02*
X168500D01*
Y-10941D01*
X171362D01*
Y-3551D01*
D02*
G37*
G36*
X167500D02*
X164638D01*
Y-10941D01*
X167500D01*
Y-3551D01*
D02*
G37*
G36*
X161362D02*
X158500D01*
Y-10941D01*
X161362D01*
Y-3551D01*
D02*
G37*
G36*
X157500D02*
X154638D01*
Y-10941D01*
X157500D01*
Y-3551D01*
D02*
G37*
G36*
X9748Y-9284D02*
X6000D01*
Y-11161D01*
X9748D01*
Y-9284D01*
D02*
G37*
G36*
X197417Y-9795D02*
X187075D01*
Y-13445D01*
X197417D01*
Y-9795D01*
D02*
G37*
G36*
X55150Y-11350D02*
X51500D01*
Y-15000D01*
X55150D01*
Y-11350D01*
D02*
G37*
G36*
X50500D02*
X46850D01*
Y-15000D01*
X50500D01*
Y-11350D01*
D02*
G37*
G36*
X34075Y-15350D02*
X32000D01*
Y-17425D01*
X34075D01*
Y-15350D01*
D02*
G37*
G36*
X31000D02*
X28925D01*
Y-17425D01*
X31000D01*
Y-15350D01*
D02*
G37*
G36*
X171362Y-11941D02*
X168500D01*
Y-19331D01*
X171362D01*
Y-11941D01*
D02*
G37*
G36*
X167500D02*
X164638D01*
Y-19331D01*
X167500D01*
Y-11941D01*
D02*
G37*
G36*
X161362D02*
X158500D01*
Y-19331D01*
X161362D01*
Y-11941D01*
D02*
G37*
G36*
X157500D02*
X154638D01*
Y-19331D01*
X157500D01*
Y-11941D01*
D02*
G37*
G36*
X151362Y-3551D02*
X144638D01*
Y-19331D01*
X151362D01*
Y-3551D01*
D02*
G37*
G36*
X131362D02*
X124638D01*
Y-19331D01*
X131362D01*
Y-3551D01*
D02*
G37*
G36*
X55150Y-16000D02*
X51500D01*
Y-19650D01*
X55150D01*
Y-16000D01*
D02*
G37*
G36*
X34075Y-18575D02*
X28925D01*
Y-19736D01*
X28098D01*
Y-19398D01*
X19602D01*
Y-24153D01*
X28098D01*
Y-23815D01*
X30874D01*
X31328Y-23724D01*
X34075D01*
Y-18575D01*
D02*
G37*
G36*
X141362Y-3551D02*
X134638D01*
Y-19331D01*
X136216D01*
Y-21422D01*
X136038Y-21687D01*
X135877Y-22500D01*
X136038Y-23313D01*
X136498Y-24002D01*
X137187Y-24462D01*
X138000Y-24623D01*
X138813Y-24462D01*
X139502Y-24002D01*
X139962Y-23313D01*
X140123Y-22500D01*
X139962Y-21687D01*
X139784Y-21422D01*
Y-19331D01*
X141362D01*
Y-3551D01*
D02*
G37*
G36*
X170957Y-27185D02*
Y-30606D01*
X174378D01*
X174308Y-30074D01*
X173910Y-29113D01*
X173276Y-28287D01*
X172451Y-27654D01*
X171489Y-27255D01*
X170957Y-27185D01*
D02*
G37*
G36*
X169957D02*
X169425Y-27255D01*
X168464Y-27654D01*
X167638Y-28287D01*
X167005Y-29113D01*
X166606Y-30074D01*
X166536Y-30606D01*
X169957D01*
Y-27185D01*
D02*
G37*
G36*
X197417Y-26957D02*
X187075D01*
Y-30606D01*
X197417D01*
Y-26957D01*
D02*
G37*
G36*
X29575Y-25791D02*
X24425D01*
Y-26779D01*
X22437D01*
X21754Y-26915D01*
X21175Y-27301D01*
X21175Y-27301D01*
X15738Y-32738D01*
X15351Y-33317D01*
X15216Y-34000D01*
Y-34776D01*
X14425D01*
Y-39925D01*
X19575D01*
Y-34776D01*
X19455D01*
X19248Y-34276D01*
X23176Y-30347D01*
X24425D01*
Y-31335D01*
X29575D01*
Y-25791D01*
D02*
G37*
G36*
X45555Y-28957D02*
X42791D01*
Y-33000D01*
X45555D01*
Y-28957D01*
D02*
G37*
G36*
X41791D02*
X39028D01*
Y-33000D01*
X41791D01*
Y-28957D01*
D02*
G37*
G36*
X174378Y-31606D02*
X170957D01*
Y-35027D01*
X171489Y-34957D01*
X172451Y-34559D01*
X173276Y-33925D01*
X173910Y-33100D01*
X174308Y-32138D01*
X174378Y-31606D01*
D02*
G37*
G36*
X169957D02*
X166536D01*
X166606Y-32138D01*
X167005Y-33100D01*
X167638Y-33925D01*
X168464Y-34559D01*
X169425Y-34957D01*
X169957Y-35027D01*
Y-31606D01*
D02*
G37*
G36*
X197417Y-31606D02*
X187075D01*
Y-35256D01*
X197417D01*
Y-31606D01*
D02*
G37*
G36*
X33315Y-33665D02*
X31240D01*
Y-35937D01*
X33315D01*
Y-33665D01*
D02*
G37*
G36*
X30240D02*
X28165D01*
Y-35937D01*
X30240D01*
Y-33665D01*
D02*
G37*
G36*
X45555Y-34000D02*
X42791D01*
Y-38043D01*
X45555D01*
Y-34000D01*
D02*
G37*
G36*
X41791D02*
X39028D01*
Y-38043D01*
X41791D01*
Y-34000D01*
D02*
G37*
G36*
X33315Y-36937D02*
X31240D01*
Y-39209D01*
X33315D01*
Y-36937D01*
D02*
G37*
G36*
X30240D02*
X28165D01*
Y-39209D01*
X30240D01*
Y-36937D01*
D02*
G37*
G36*
X32272Y-39819D02*
Y-41500D01*
X35626D01*
Y-39819D01*
X32272D01*
D02*
G37*
G36*
X35626Y-42500D02*
X32272D01*
Y-44181D01*
X35626D01*
Y-42500D01*
D02*
G37*
G36*
X25835Y-33665D02*
X20685D01*
Y-39209D01*
X21531D01*
Y-44622D01*
X27468D01*
Y-44305D01*
X27917Y-44181D01*
X27968Y-44181D01*
X31272D01*
Y-42000D01*
Y-39819D01*
X27968D01*
X27917Y-39819D01*
X27468Y-39695D01*
Y-39079D01*
X26284D01*
Y-37677D01*
X26149Y-36994D01*
X25835Y-36525D01*
Y-33665D01*
D02*
G37*
G36*
X35626Y-44819D02*
X32272D01*
Y-46500D01*
X35626D01*
Y-44819D01*
D02*
G37*
G36*
X48224Y-42398D02*
X43000D01*
Y-49000D01*
X48224D01*
Y-42398D01*
D02*
G37*
G36*
X42000D02*
X36776D01*
Y-49000D01*
X42000D01*
Y-42398D01*
D02*
G37*
G36*
X35626Y-47500D02*
X32272D01*
Y-49181D01*
X35626D01*
Y-47500D01*
D02*
G37*
G36*
X48224Y-50000D02*
X43000D01*
Y-56602D01*
X48224D01*
Y-50000D01*
D02*
G37*
G36*
X95020Y-50543D02*
X89500D01*
Y-58720D01*
X95020D01*
Y-50543D01*
D02*
G37*
G36*
X88500D02*
X82980D01*
Y-58720D01*
X88500D01*
Y-50543D01*
D02*
G37*
G36*
X199500Y-51132D02*
X198260Y-51254D01*
X196588Y-51762D01*
X195046Y-52586D01*
X193695Y-53695D01*
X192586Y-55046D01*
X191762Y-56588D01*
X191254Y-58260D01*
X191132Y-59500D01*
X199500D01*
Y-51132D01*
D02*
G37*
G36*
X56972Y-28957D02*
X50445D01*
Y-38043D01*
X55439D01*
X56451Y-39056D01*
Y-39819D01*
X49374D01*
Y-44181D01*
X51757D01*
X51929Y-44438D01*
X51701Y-44819D01*
X49374D01*
Y-49181D01*
X51493D01*
X51698Y-49681D01*
X51559Y-49819D01*
X49374D01*
Y-54181D01*
X49924D01*
X50198Y-54681D01*
X50109Y-54819D01*
X49374D01*
Y-59181D01*
X49698D01*
Y-61564D01*
X40561D01*
X40294Y-61064D01*
X40462Y-60813D01*
X40624Y-60000D01*
X40462Y-59187D01*
X40001Y-58499D01*
X39642Y-58258D01*
X38448Y-57064D01*
X38640Y-56602D01*
X42000D01*
Y-50000D01*
X36776D01*
Y-54917D01*
X36335Y-55152D01*
X36280Y-55116D01*
X35626Y-54986D01*
Y-54819D01*
X28394D01*
Y-54238D01*
X28394D01*
X28853Y-54183D01*
X28874Y-54181D01*
X35626D01*
Y-49819D01*
X28985D01*
X28887Y-49681D01*
X29144Y-49181D01*
X31272D01*
Y-47000D01*
Y-44819D01*
X27917D01*
Y-45254D01*
X27468Y-45378D01*
Y-45378D01*
X21531D01*
Y-48301D01*
X21032Y-48508D01*
X19248Y-46724D01*
X19455Y-46224D01*
X19575D01*
Y-41075D01*
X14425D01*
Y-46224D01*
X15216D01*
Y-47000D01*
X15254Y-47194D01*
X15192Y-47275D01*
X14807Y-47507D01*
X13412Y-46762D01*
X11740Y-46254D01*
X10500Y-46132D01*
Y-55000D01*
Y-63868D01*
X11740Y-63746D01*
X13412Y-63238D01*
X14954Y-62414D01*
X16305Y-61305D01*
X17414Y-59954D01*
X17641Y-59530D01*
X18126Y-59651D01*
Y-59772D01*
X20181D01*
X20244Y-59784D01*
X20308Y-59772D01*
X22882D01*
Y-55073D01*
X23369Y-54781D01*
X23638Y-54930D01*
Y-59772D01*
X24807D01*
X24976Y-59884D01*
X25756Y-60039D01*
X26536Y-59884D01*
X26704Y-59772D01*
X28394D01*
Y-59181D01*
X34797D01*
X36474Y-60858D01*
X36267Y-61358D01*
X27457D01*
Y-77138D01*
X36543D01*
Y-69697D01*
X37616Y-68625D01*
X47970D01*
Y-71000D01*
X48090Y-71914D01*
X48443Y-72765D01*
X48732Y-73142D01*
X48485Y-73642D01*
X46957D01*
Y-76406D01*
X51500D01*
X56043D01*
Y-73642D01*
X54515D01*
X54268Y-73142D01*
X54557Y-72765D01*
X54910Y-71914D01*
X55030Y-71000D01*
Y-68358D01*
X56043D01*
Y-65447D01*
X56286Y-65131D01*
X56638Y-64280D01*
X56759Y-63366D01*
X56758Y-63366D01*
Y-59181D01*
X57083D01*
Y-54819D01*
X57471Y-54549D01*
X58444D01*
X64424Y-60528D01*
Y-93248D01*
X62468D01*
Y-103752D01*
X71476D01*
Y-100954D01*
X71975Y-100855D01*
X72802Y-100302D01*
X82950Y-90155D01*
X83528D01*
Y-95299D01*
X136472D01*
Y-79913D01*
X83528D01*
Y-85057D01*
X81894D01*
X80918Y-85251D01*
X80091Y-85804D01*
X71938Y-93957D01*
X71476Y-93765D01*
Y-93248D01*
X69521D01*
Y-59472D01*
X69327Y-58497D01*
X68775Y-57670D01*
X61302Y-50198D01*
X60475Y-49645D01*
X59500Y-49451D01*
X59232D01*
X59080Y-48951D01*
X59302Y-48802D01*
X60802Y-47302D01*
X61355Y-46475D01*
X61549Y-45500D01*
Y-38000D01*
X61355Y-37025D01*
X60802Y-36198D01*
X56972Y-32368D01*
Y-28957D01*
D02*
G37*
G36*
X95020Y-59720D02*
X89500D01*
Y-67898D01*
X95020D01*
Y-59720D01*
D02*
G37*
G36*
X88500D02*
X82980D01*
Y-67898D01*
X88500D01*
Y-59720D01*
D02*
G37*
G36*
X199500Y-60500D02*
X191132D01*
X191254Y-61740D01*
X191762Y-63412D01*
X192586Y-64954D01*
X193695Y-66305D01*
X195046Y-67414D01*
X196588Y-68238D01*
X198260Y-68746D01*
X199500Y-68868D01*
Y-60500D01*
D02*
G37*
G36*
X200000Y-69461D02*
X198825Y-69616D01*
X197731Y-70069D01*
X196791Y-70791D01*
X196069Y-71731D01*
X195616Y-72825D01*
X195461Y-74000D01*
X195616Y-75175D01*
X196069Y-76269D01*
X196791Y-77209D01*
X197731Y-77931D01*
X198825Y-78384D01*
X200000Y-78539D01*
X201175Y-78384D01*
X202269Y-77931D01*
X203209Y-77209D01*
X203931Y-76269D01*
X204384Y-75175D01*
X204539Y-74000D01*
X204384Y-72825D01*
X203931Y-71731D01*
X203209Y-70791D01*
X202269Y-70069D01*
X201175Y-69616D01*
X200000Y-69461D01*
D02*
G37*
G36*
X141362Y-58669D02*
X134638D01*
Y-74449D01*
X136216D01*
Y-75827D01*
X136038Y-76093D01*
X135877Y-76906D01*
X136038Y-77718D01*
X136498Y-78407D01*
X137187Y-78867D01*
X138000Y-79029D01*
X138813Y-78867D01*
X139502Y-78407D01*
X139962Y-77718D01*
X140123Y-76906D01*
X139962Y-76093D01*
X139784Y-75827D01*
Y-74449D01*
X141362D01*
Y-58669D01*
D02*
G37*
G36*
X181362D02*
X174638D01*
Y-74449D01*
X176216D01*
Y-75903D01*
X176038Y-76169D01*
X175876Y-76982D01*
X176038Y-77794D01*
X176498Y-78483D01*
X177187Y-78944D01*
X178000Y-79105D01*
X178813Y-78944D01*
X179501Y-78483D01*
X179962Y-77794D01*
X180123Y-76982D01*
X179962Y-76169D01*
X179784Y-75903D01*
Y-74449D01*
X181362D01*
Y-58669D01*
D02*
G37*
G36*
X131362D02*
X124638D01*
Y-74449D01*
X126216D01*
Y-75903D01*
X126038Y-76169D01*
X125876Y-76982D01*
X126038Y-77794D01*
X126498Y-78483D01*
X127187Y-78944D01*
X128000Y-79105D01*
X128813Y-78944D01*
X129501Y-78483D01*
X129962Y-77794D01*
X130123Y-76982D01*
X129962Y-76169D01*
X129784Y-75903D01*
Y-74449D01*
X131362D01*
Y-58669D01*
D02*
G37*
G36*
X56043Y-77406D02*
X52000D01*
Y-80169D01*
X56043D01*
Y-77406D01*
D02*
G37*
G36*
X51000D02*
X46957D01*
Y-80169D01*
X51000D01*
Y-77406D01*
D02*
G37*
G36*
X161362Y-58669D02*
X154638D01*
Y-74449D01*
X155716D01*
Y-82922D01*
X155538Y-83187D01*
X155377Y-84000D01*
X155538Y-84813D01*
X155999Y-85501D01*
X156687Y-85962D01*
X157500Y-86124D01*
X158313Y-85962D01*
X159002Y-85501D01*
X159462Y-84813D01*
X159624Y-84000D01*
X159462Y-83187D01*
X159284Y-82922D01*
Y-74449D01*
X161362D01*
Y-58669D01*
D02*
G37*
G36*
X36543Y-79862D02*
X32500D01*
Y-87252D01*
X36543D01*
Y-79862D01*
D02*
G37*
G36*
X31500D02*
X27457D01*
Y-87252D01*
X31500D01*
Y-79862D01*
D02*
G37*
G36*
X200000Y-79461D02*
X198825Y-79616D01*
X197731Y-80069D01*
X196791Y-80791D01*
X196069Y-81731D01*
X195616Y-82825D01*
X195461Y-84000D01*
X195616Y-85175D01*
X196069Y-86269D01*
X196791Y-87209D01*
X197731Y-87931D01*
X198825Y-88384D01*
X200000Y-88539D01*
X201175Y-88384D01*
X202269Y-87931D01*
X203209Y-87209D01*
X203931Y-86269D01*
X204384Y-85175D01*
X204539Y-84000D01*
X204384Y-82825D01*
X203931Y-81731D01*
X203209Y-80791D01*
X202269Y-80069D01*
X201175Y-79616D01*
X200000Y-79461D01*
D02*
G37*
G36*
X189500Y-84099D02*
X188674Y-84207D01*
X187904Y-84526D01*
X187242Y-85034D01*
X186735Y-85695D01*
X186416Y-86465D01*
X186307Y-87291D01*
X186416Y-88118D01*
X186735Y-88888D01*
X187242Y-89549D01*
X187904Y-90056D01*
X188674Y-90375D01*
X189500Y-90484D01*
X190326Y-90375D01*
X191096Y-90056D01*
X191758Y-89549D01*
X192265Y-88888D01*
X192584Y-88118D01*
X192693Y-87291D01*
X192584Y-86465D01*
X192265Y-85695D01*
X191758Y-85034D01*
X191096Y-84526D01*
X190326Y-84207D01*
X189500Y-84099D01*
D02*
G37*
G36*
X171362Y-58669D02*
X164638D01*
Y-74449D01*
X166216D01*
Y-82922D01*
X166038Y-83187D01*
X165876Y-84000D01*
X166038Y-84813D01*
X166355Y-85286D01*
X165615Y-85780D01*
X131088Y-120307D01*
X83528D01*
Y-124470D01*
X81221D01*
X80307Y-124590D01*
X79455Y-124943D01*
X78724Y-125504D01*
X74748Y-129480D01*
X67739D01*
X67548Y-129018D01*
X93536Y-103030D01*
X146000D01*
X146914Y-102910D01*
X147765Y-102557D01*
X148496Y-101996D01*
X149057Y-101265D01*
X149410Y-100414D01*
X149530Y-99500D01*
X149410Y-98586D01*
X149057Y-97735D01*
X148496Y-97004D01*
X147765Y-96443D01*
X146914Y-96090D01*
X146000Y-95970D01*
X92074D01*
X91160Y-96090D01*
X90309Y-96443D01*
X89578Y-97004D01*
X51004Y-135578D01*
X50443Y-136309D01*
X50090Y-137160D01*
X49970Y-138074D01*
Y-175779D01*
X50090Y-176693D01*
X50443Y-177545D01*
X51004Y-178276D01*
X65043Y-192315D01*
Y-199685D01*
X33458Y-231270D01*
X32996Y-231079D01*
Y-226028D01*
X17610D01*
Y-278972D01*
X32996D01*
Y-241717D01*
X72693Y-202020D01*
X82398D01*
Y-189980D01*
X72693D01*
X57030Y-174317D01*
Y-139536D01*
X64581Y-131985D01*
X65043Y-132176D01*
Y-141520D01*
X82398D01*
Y-131815D01*
X82683Y-131530D01*
X83528D01*
Y-135693D01*
X121505D01*
X121554Y-136193D01*
X121146Y-136274D01*
X120751Y-136538D01*
X120487Y-136933D01*
X120394Y-137400D01*
Y-141931D01*
X120487Y-142397D01*
X120535Y-142470D01*
X120268Y-142970D01*
X119472D01*
Y-141957D01*
X112945D01*
Y-145234D01*
X112799Y-145586D01*
X112679Y-146500D01*
X112799Y-147414D01*
X112945Y-147766D01*
Y-151043D01*
X112945D01*
X112916Y-151532D01*
X108378D01*
X108084Y-151532D01*
X108055Y-151043D01*
X108055Y-151032D01*
X108055Y-150628D01*
Y-147000D01*
X104791D01*
X101528D01*
Y-151043D01*
X101550D01*
X101579Y-151532D01*
X101579Y-151543D01*
Y-154000D01*
X104350D01*
X107122D01*
Y-151543D01*
X107122Y-151532D01*
X107150Y-151043D01*
X107555D01*
X107850Y-151043D01*
X107878Y-151532D01*
X107878Y-151542D01*
X107878Y-151946D01*
Y-157468D01*
X112973D01*
X113018Y-157472D01*
X113359Y-157568D01*
X113376Y-157587D01*
X113500Y-157819D01*
X113520Y-157929D01*
X113531Y-158069D01*
X113531Y-158321D01*
Y-158865D01*
X112578D01*
X112313Y-158688D01*
X111500Y-158526D01*
X110687Y-158688D01*
X109999Y-159148D01*
X109538Y-159837D01*
X109377Y-160650D01*
X109538Y-161462D01*
X109999Y-162151D01*
X110687Y-162611D01*
X111500Y-162773D01*
X112313Y-162611D01*
X112578Y-162434D01*
X113531D01*
Y-163421D01*
X119468D01*
Y-162119D01*
X120394D01*
Y-162600D01*
X120487Y-163067D01*
X120751Y-163462D01*
X121146Y-163726D01*
X121612Y-163819D01*
X123388D01*
X123854Y-163726D01*
X124249Y-163462D01*
X124513Y-163067D01*
X124606Y-162600D01*
Y-158069D01*
X124513Y-157603D01*
X124249Y-157207D01*
X123854Y-156943D01*
X123388Y-156851D01*
X121612D01*
X121146Y-156943D01*
X120751Y-157207D01*
X120487Y-157603D01*
X120394Y-158069D01*
Y-158550D01*
X119468D01*
Y-157878D01*
X114020D01*
X113979Y-157878D01*
X113949Y-157875D01*
X113884Y-157867D01*
X113595Y-157376D01*
X113597Y-157367D01*
X113640Y-157267D01*
X113640Y-157267D01*
X113695Y-157201D01*
X113761Y-157122D01*
X119468D01*
Y-156135D01*
X125611D01*
X125716Y-156239D01*
Y-157260D01*
X125487Y-157603D01*
X125394Y-158069D01*
Y-162600D01*
X125487Y-163067D01*
X125751Y-163462D01*
X126146Y-163726D01*
X126612Y-163819D01*
X128388D01*
X128854Y-163726D01*
X129249Y-163462D01*
X129513Y-163067D01*
X129606Y-162600D01*
Y-160175D01*
X130052Y-159946D01*
X130394Y-160169D01*
Y-162600D01*
X130487Y-163067D01*
X130751Y-163462D01*
X131146Y-163726D01*
X131612Y-163819D01*
X133388D01*
X133470Y-163802D01*
X133970Y-164204D01*
Y-164860D01*
X99306D01*
X98532Y-164539D01*
X97500Y-164403D01*
X96468Y-164539D01*
X95507Y-164937D01*
X94681Y-165571D01*
X94047Y-166396D01*
X93649Y-167358D01*
X93513Y-168390D01*
X93649Y-169422D01*
X94047Y-170383D01*
X94681Y-171209D01*
X95507Y-171843D01*
X96468Y-172241D01*
X97500Y-172377D01*
X98532Y-172241D01*
X99306Y-171920D01*
X136500D01*
X137028Y-171850D01*
X142717D01*
X143032Y-172220D01*
Y-175122D01*
X148969D01*
Y-170027D01*
X148972Y-169982D01*
X149068Y-169641D01*
X149087Y-169624D01*
X149319Y-169500D01*
X149428Y-169480D01*
X149569Y-169468D01*
X149821Y-169468D01*
X150365D01*
Y-179150D01*
X150406Y-179353D01*
X150376Y-179500D01*
X150538Y-180313D01*
X150998Y-181001D01*
X151687Y-181462D01*
X152500Y-181623D01*
X153313Y-181462D01*
X154001Y-181001D01*
X154462Y-180313D01*
X154623Y-179500D01*
X154462Y-178687D01*
X154001Y-177998D01*
X153934Y-177953D01*
Y-169468D01*
X154921D01*
Y-163531D01*
X154804D01*
X154523Y-163082D01*
X154520Y-163031D01*
X154606Y-162600D01*
Y-158069D01*
X154513Y-157603D01*
X154249Y-157207D01*
X153854Y-156943D01*
X153388Y-156851D01*
X151612D01*
X151146Y-156943D01*
X150751Y-157207D01*
X150487Y-157603D01*
X150394Y-158069D01*
Y-162600D01*
X150479Y-163027D01*
X150194Y-163435D01*
X149806D01*
X149521Y-163027D01*
X149606Y-162600D01*
Y-158069D01*
X149513Y-157603D01*
X149249Y-157207D01*
X148854Y-156943D01*
X148388Y-156851D01*
X146612D01*
X146146Y-156943D01*
X145751Y-157207D01*
X145728Y-157241D01*
X145197Y-157136D01*
X145159Y-156946D01*
X146556Y-155549D01*
X156444D01*
X157451Y-156556D01*
Y-157528D01*
X155457D01*
Y-164055D01*
X158576D01*
X159025Y-164355D01*
X160000Y-164549D01*
X166500D01*
X167475Y-164355D01*
X168302Y-163802D01*
X171302Y-160802D01*
X171855Y-159976D01*
X172049Y-159000D01*
Y-147056D01*
X180802Y-138302D01*
X181355Y-137476D01*
X181549Y-136500D01*
Y-133441D01*
X183150D01*
Y-125142D01*
X174850D01*
Y-133441D01*
X176451D01*
Y-135444D01*
X167987Y-143908D01*
X167487Y-143701D01*
Y-131552D01*
X167351Y-130869D01*
X166964Y-130290D01*
X166964Y-130290D01*
X164210Y-127536D01*
X163631Y-127149D01*
X162948Y-127013D01*
X157912D01*
X157911Y-127013D01*
X157229Y-127149D01*
X156650Y-127536D01*
X156650Y-127536D01*
X155383Y-128802D01*
X154921Y-128611D01*
Y-128000D01*
X152150D01*
Y-127500D01*
X151650D01*
Y-124531D01*
X149584D01*
X149555Y-124043D01*
X149555Y-124031D01*
Y-119841D01*
X153945Y-115451D01*
X154445Y-115658D01*
Y-119000D01*
X157209D01*
Y-114957D01*
X155147D01*
X154939Y-114457D01*
X169556Y-99840D01*
X175350D01*
Y-101441D01*
X183650D01*
Y-93142D01*
X175350D01*
Y-94742D01*
X168500D01*
X167525Y-94936D01*
X166698Y-95489D01*
X147230Y-114957D01*
X144301D01*
X144110Y-114495D01*
X168473Y-90132D01*
X176449D01*
X176541Y-90251D01*
X177407Y-90916D01*
X178417Y-91334D01*
X179500Y-91477D01*
X180583Y-91334D01*
X181593Y-90916D01*
X182459Y-90251D01*
X183125Y-89384D01*
X183543Y-88375D01*
X183685Y-87291D01*
X183543Y-86208D01*
X183125Y-85199D01*
X182459Y-84332D01*
X181593Y-83667D01*
X180583Y-83249D01*
X179500Y-83106D01*
X178417Y-83249D01*
X177407Y-83667D01*
X176541Y-84332D01*
X176002Y-85034D01*
X170370D01*
X170017Y-84534D01*
X170124Y-84000D01*
X169962Y-83187D01*
X169784Y-82922D01*
Y-74449D01*
X171362D01*
Y-58669D01*
D02*
G37*
G36*
X7850Y-88526D02*
X7038Y-88688D01*
X6349Y-89148D01*
X5889Y-89837D01*
X5727Y-90650D01*
X5889Y-91462D01*
X6349Y-92151D01*
X7038Y-92611D01*
X7850Y-92773D01*
X8663Y-92611D01*
X9352Y-92151D01*
X9812Y-91462D01*
X9974Y-90650D01*
X9812Y-89837D01*
X9352Y-89148D01*
X8663Y-88688D01*
X7850Y-88526D01*
D02*
G37*
G36*
X200500Y-89527D02*
Y-93500D01*
X204473D01*
X204384Y-92825D01*
X203931Y-91731D01*
X203209Y-90791D01*
X202269Y-90069D01*
X201175Y-89616D01*
X200500Y-89527D01*
D02*
G37*
G36*
X199500D02*
X198825Y-89616D01*
X197731Y-90069D01*
X196791Y-90791D01*
X196069Y-91731D01*
X195616Y-92825D01*
X195527Y-93500D01*
X199500D01*
Y-89527D01*
D02*
G37*
G36*
X151362Y-58669D02*
X144638D01*
Y-74449D01*
X145716D01*
Y-90457D01*
X145538Y-90723D01*
X145377Y-91536D01*
X145538Y-92348D01*
X145999Y-93037D01*
X146687Y-93497D01*
X147500Y-93659D01*
X148313Y-93497D01*
X149002Y-93037D01*
X149462Y-92348D01*
X149624Y-91536D01*
X149462Y-90723D01*
X149284Y-90457D01*
Y-74449D01*
X151362D01*
Y-58669D01*
D02*
G37*
G36*
X36543Y-88252D02*
X32500D01*
Y-95642D01*
X36543D01*
Y-88252D01*
D02*
G37*
G36*
X31500D02*
X27457D01*
Y-95642D01*
X31500D01*
Y-88252D01*
D02*
G37*
G36*
X55532Y-93248D02*
X51528D01*
Y-98000D01*
X55532D01*
Y-93248D01*
D02*
G37*
G36*
X50528D02*
X46524D01*
Y-98000D01*
X50528D01*
Y-93248D01*
D02*
G37*
G36*
X204473Y-94500D02*
X200500D01*
Y-98473D01*
X201175Y-98384D01*
X202269Y-97931D01*
X203209Y-97209D01*
X203931Y-96269D01*
X204384Y-95175D01*
X204473Y-94500D01*
D02*
G37*
G36*
X199500D02*
X195527D01*
X195616Y-95175D01*
X196069Y-96269D01*
X196791Y-97209D01*
X197731Y-97931D01*
X198825Y-98384D01*
X199500Y-98473D01*
Y-94500D01*
D02*
G37*
G36*
X189500Y-94099D02*
X188674Y-94208D01*
X187904Y-94526D01*
X187242Y-95034D01*
X186735Y-95695D01*
X186416Y-96465D01*
X186307Y-97291D01*
X186416Y-98118D01*
X186735Y-98888D01*
X187242Y-99549D01*
X187904Y-100056D01*
X188674Y-100375D01*
X189500Y-100484D01*
X190326Y-100375D01*
X191096Y-100056D01*
X191758Y-99549D01*
X192265Y-98888D01*
X192584Y-98118D01*
X192693Y-97291D01*
X192584Y-96465D01*
X192265Y-95695D01*
X191758Y-95034D01*
X191096Y-94526D01*
X190326Y-94208D01*
X189500Y-94099D01*
D02*
G37*
G36*
X200500Y-99527D02*
Y-103500D01*
X204473D01*
X204384Y-102825D01*
X203931Y-101731D01*
X203209Y-100791D01*
X202269Y-100069D01*
X201175Y-99616D01*
X200500Y-99527D01*
D02*
G37*
G36*
X199500D02*
X198825Y-99616D01*
X197731Y-100069D01*
X196791Y-100791D01*
X196069Y-101731D01*
X195616Y-102825D01*
X195527Y-103500D01*
X199500D01*
Y-99527D01*
D02*
G37*
G36*
X55532Y-99000D02*
X51528D01*
Y-103752D01*
X55532D01*
Y-99000D01*
D02*
G37*
G36*
X50528D02*
X46524D01*
Y-103752D01*
X50528D01*
Y-99000D01*
D02*
G37*
G36*
X204473Y-104500D02*
X200500D01*
Y-108473D01*
X201175Y-108384D01*
X202269Y-107931D01*
X203209Y-107209D01*
X203931Y-106269D01*
X204384Y-105175D01*
X204473Y-104500D01*
D02*
G37*
G36*
X199500D02*
X195527D01*
X195616Y-105175D01*
X196069Y-106269D01*
X196791Y-107209D01*
X197731Y-107931D01*
X198825Y-108384D01*
X199500Y-108473D01*
Y-104500D01*
D02*
G37*
G36*
X10000Y-105461D02*
X8825Y-105616D01*
X7731Y-106069D01*
X6791Y-106791D01*
X6069Y-107731D01*
X5616Y-108825D01*
X5461Y-110000D01*
X5616Y-111175D01*
X6069Y-112269D01*
X6791Y-113209D01*
X7731Y-113931D01*
X8825Y-114384D01*
X10000Y-114539D01*
X11175Y-114384D01*
X12269Y-113931D01*
X13209Y-113209D01*
X13931Y-112269D01*
X14384Y-111175D01*
X14539Y-110000D01*
X14384Y-108825D01*
X13931Y-107731D01*
X13209Y-106791D01*
X12269Y-106069D01*
X11175Y-105616D01*
X10000Y-105461D01*
D02*
G37*
G36*
X200000Y-109461D02*
X198825Y-109616D01*
X197731Y-110069D01*
X196791Y-110791D01*
X196069Y-111731D01*
X195616Y-112825D01*
X195461Y-114000D01*
X195616Y-115175D01*
X196069Y-116269D01*
X196791Y-117209D01*
X197731Y-117931D01*
X198825Y-118384D01*
X200000Y-118539D01*
X201175Y-118384D01*
X202269Y-117931D01*
X203209Y-117209D01*
X203931Y-116269D01*
X204384Y-115175D01*
X204539Y-114000D01*
X204384Y-112825D01*
X203931Y-111731D01*
X203209Y-110791D01*
X202269Y-110069D01*
X201175Y-109616D01*
X200000Y-109461D01*
D02*
G37*
G36*
X160972Y-114957D02*
X158209D01*
Y-119000D01*
X160972D01*
Y-114957D01*
D02*
G37*
G36*
X10500Y-115527D02*
Y-119500D01*
X14473D01*
X14384Y-118825D01*
X13931Y-117731D01*
X13209Y-116791D01*
X12269Y-116069D01*
X11175Y-115616D01*
X10500Y-115527D01*
D02*
G37*
G36*
X9500D02*
X8825Y-115616D01*
X7731Y-116069D01*
X6791Y-116791D01*
X6069Y-117731D01*
X5616Y-118825D01*
X5527Y-119500D01*
X9500D01*
Y-115527D01*
D02*
G37*
G36*
X166500Y-116579D02*
Y-120000D01*
X169921D01*
X169851Y-119468D01*
X169453Y-118507D01*
X168819Y-117681D01*
X167993Y-117047D01*
X167032Y-116649D01*
X166500Y-116579D01*
D02*
G37*
G36*
X165500D02*
X164968Y-116649D01*
X164007Y-117047D01*
X163181Y-117681D01*
X162547Y-118507D01*
X162149Y-119468D01*
X162079Y-120000D01*
X165500D01*
Y-116579D01*
D02*
G37*
G36*
X189000Y-116099D02*
X188174Y-116208D01*
X187404Y-116526D01*
X186742Y-117034D01*
X186235Y-117695D01*
X185916Y-118465D01*
X185807Y-119291D01*
X185916Y-120118D01*
X186235Y-120888D01*
X186742Y-121549D01*
X187404Y-122056D01*
X188174Y-122375D01*
X189000Y-122484D01*
X189826Y-122375D01*
X190596Y-122056D01*
X191258Y-121549D01*
X191765Y-120888D01*
X192084Y-120118D01*
X192193Y-119291D01*
X192084Y-118465D01*
X191765Y-117695D01*
X191258Y-117034D01*
X190596Y-116526D01*
X189826Y-116208D01*
X189000Y-116099D01*
D02*
G37*
G36*
X179000Y-115106D02*
X177917Y-115249D01*
X176907Y-115667D01*
X176040Y-116332D01*
X175375Y-117199D01*
X174957Y-118208D01*
X174815Y-119291D01*
X174957Y-120375D01*
X175375Y-121384D01*
X176040Y-122251D01*
X176907Y-122916D01*
X177917Y-123334D01*
X179000Y-123477D01*
X180083Y-123334D01*
X181093Y-122916D01*
X181959Y-122251D01*
X182625Y-121384D01*
X183043Y-120375D01*
X183185Y-119291D01*
X183043Y-118208D01*
X182625Y-117199D01*
X181959Y-116332D01*
X181093Y-115667D01*
X180083Y-115249D01*
X179000Y-115106D01*
D02*
G37*
G36*
X160972Y-120000D02*
X158209D01*
Y-124043D01*
X160972D01*
Y-120000D01*
D02*
G37*
G36*
X169921Y-121000D02*
X166500D01*
Y-124421D01*
X167032Y-124351D01*
X167993Y-123953D01*
X168819Y-123319D01*
X169453Y-122493D01*
X169851Y-121532D01*
X169921Y-121000D01*
D02*
G37*
G36*
X165500D02*
X162079D01*
X162149Y-121532D01*
X162547Y-122493D01*
X163181Y-123319D01*
X164007Y-123953D01*
X164968Y-124351D01*
X165500Y-124421D01*
Y-121000D01*
D02*
G37*
G36*
X14473Y-120500D02*
X10500D01*
Y-124473D01*
X11175Y-124384D01*
X12269Y-123931D01*
X13209Y-123209D01*
X13931Y-122269D01*
X14384Y-121175D01*
X14473Y-120500D01*
D02*
G37*
G36*
X9500D02*
X5527D01*
X5616Y-121175D01*
X6069Y-122269D01*
X6791Y-123209D01*
X7731Y-123931D01*
X8825Y-124384D01*
X9500Y-124473D01*
Y-120500D01*
D02*
G37*
G36*
X157209Y-120000D02*
X154445D01*
Y-124031D01*
X154445Y-124043D01*
X154416Y-124531D01*
X152650D01*
Y-127000D01*
X154921D01*
Y-124543D01*
X154921Y-124531D01*
X154950Y-124043D01*
X157209D01*
Y-120000D01*
D02*
G37*
G36*
X200000Y-119461D02*
X198825Y-119616D01*
X197731Y-120069D01*
X196791Y-120791D01*
X196069Y-121731D01*
X195616Y-122825D01*
X195461Y-124000D01*
X195616Y-125175D01*
X196069Y-126269D01*
X196791Y-127209D01*
X197731Y-127931D01*
X198825Y-128384D01*
X200000Y-128539D01*
X201175Y-128384D01*
X202269Y-127931D01*
X203209Y-127209D01*
X203931Y-126269D01*
X204384Y-125175D01*
X204539Y-124000D01*
X204384Y-122825D01*
X203931Y-121731D01*
X203209Y-120791D01*
X202269Y-120069D01*
X201175Y-119616D01*
X200000Y-119461D01*
D02*
G37*
G36*
X10500Y-125527D02*
Y-129500D01*
X14473D01*
X14384Y-128825D01*
X13931Y-127731D01*
X13209Y-126791D01*
X12269Y-126069D01*
X11175Y-125616D01*
X10500Y-125527D01*
D02*
G37*
G36*
X9500D02*
X8825Y-125616D01*
X7731Y-126069D01*
X6791Y-126791D01*
X6069Y-127731D01*
X5616Y-128825D01*
X5527Y-129500D01*
X9500D01*
Y-125527D01*
D02*
G37*
G36*
X189000Y-126099D02*
X188174Y-126207D01*
X187404Y-126526D01*
X186742Y-127034D01*
X186235Y-127695D01*
X185916Y-128465D01*
X185807Y-129291D01*
X185916Y-130118D01*
X186235Y-130888D01*
X186742Y-131549D01*
X187404Y-132056D01*
X188174Y-132375D01*
X189000Y-132484D01*
X189826Y-132375D01*
X190596Y-132056D01*
X191258Y-131549D01*
X191765Y-130888D01*
X192084Y-130118D01*
X192193Y-129291D01*
X192084Y-128465D01*
X191765Y-127695D01*
X191258Y-127034D01*
X190596Y-126526D01*
X189826Y-126207D01*
X189000Y-126099D01*
D02*
G37*
G36*
X14473Y-130500D02*
X10500D01*
Y-134473D01*
X11175Y-134384D01*
X12269Y-133931D01*
X13209Y-133209D01*
X13931Y-132269D01*
X14384Y-131175D01*
X14473Y-130500D01*
D02*
G37*
G36*
X9500D02*
X5527D01*
X5616Y-131175D01*
X6069Y-132269D01*
X6791Y-133209D01*
X7731Y-133931D01*
X8825Y-134384D01*
X9500Y-134473D01*
Y-130500D01*
D02*
G37*
G36*
X34957Y-129480D02*
X26779D01*
Y-135000D01*
X34957D01*
Y-129480D01*
D02*
G37*
G36*
X40500Y-133476D02*
Y-135000D01*
X42024D01*
X41962Y-134687D01*
X41502Y-133999D01*
X40813Y-133538D01*
X40500Y-133476D01*
D02*
G37*
G36*
X39500D02*
X39187Y-133538D01*
X38498Y-133999D01*
X38038Y-134687D01*
X37976Y-135000D01*
X39500D01*
Y-133476D01*
D02*
G37*
G36*
X25780Y-129480D02*
X17602D01*
Y-135000D01*
X25780D01*
Y-129480D01*
D02*
G37*
G36*
X42024Y-136000D02*
X40500D01*
Y-137524D01*
X40813Y-137462D01*
X41502Y-137002D01*
X41962Y-136313D01*
X42024Y-136000D01*
D02*
G37*
G36*
X39500D02*
X37976D01*
X38038Y-136313D01*
X38498Y-137002D01*
X39187Y-137462D01*
X39500Y-137524D01*
Y-136000D01*
D02*
G37*
G36*
X200000Y-129461D02*
X198825Y-129616D01*
X197731Y-130069D01*
X196791Y-130791D01*
X196069Y-131731D01*
X195616Y-132825D01*
X195461Y-134000D01*
X195616Y-135175D01*
X196069Y-136269D01*
X196791Y-137209D01*
X197731Y-137931D01*
X198825Y-138384D01*
X200000Y-138539D01*
X201175Y-138384D01*
X202269Y-137931D01*
X203209Y-137209D01*
X203931Y-136269D01*
X204384Y-135175D01*
X204539Y-134000D01*
X204384Y-132825D01*
X203931Y-131731D01*
X203209Y-130791D01*
X202269Y-130069D01*
X201175Y-129616D01*
X200000Y-129461D01*
D02*
G37*
G36*
X34957Y-136000D02*
X26779D01*
Y-141520D01*
X34957D01*
Y-136000D01*
D02*
G37*
G36*
X25780D02*
X17602D01*
Y-141520D01*
X25780D01*
Y-136000D01*
D02*
G37*
G36*
X10000Y-135461D02*
X8825Y-135616D01*
X7731Y-136069D01*
X6791Y-136791D01*
X6069Y-137731D01*
X5616Y-138825D01*
X5461Y-140000D01*
X5616Y-141175D01*
X6069Y-142269D01*
X6791Y-143209D01*
X7731Y-143931D01*
X8825Y-144384D01*
X10000Y-144539D01*
X11175Y-144384D01*
X12269Y-143931D01*
X13209Y-143209D01*
X13931Y-142269D01*
X14384Y-141175D01*
X14539Y-140000D01*
X14384Y-138825D01*
X13931Y-137731D01*
X13209Y-136791D01*
X12269Y-136069D01*
X11175Y-135616D01*
X10000Y-135461D01*
D02*
G37*
G36*
X108055Y-141957D02*
X105291D01*
Y-146000D01*
X108055D01*
Y-141957D01*
D02*
G37*
G36*
X104291D02*
X101528D01*
Y-146000D01*
X104291D01*
Y-141957D01*
D02*
G37*
G36*
X200000Y-139461D02*
X198825Y-139616D01*
X197731Y-140069D01*
X196791Y-140791D01*
X196069Y-141731D01*
X195616Y-142825D01*
X195461Y-144000D01*
X195616Y-145175D01*
X196069Y-146269D01*
X196791Y-147209D01*
X197731Y-147931D01*
X198825Y-148384D01*
X200000Y-148539D01*
X201175Y-148384D01*
X202269Y-147931D01*
X203209Y-147209D01*
X203931Y-146269D01*
X204384Y-145175D01*
X204539Y-144000D01*
X204384Y-142825D01*
X203931Y-141731D01*
X203209Y-140791D01*
X202269Y-140069D01*
X201175Y-139616D01*
X200000Y-139461D01*
D02*
G37*
G36*
X97500Y-146079D02*
Y-149500D01*
X100921D01*
X100851Y-148968D01*
X100453Y-148007D01*
X99819Y-147181D01*
X98993Y-146547D01*
X98032Y-146149D01*
X97500Y-146079D01*
D02*
G37*
G36*
X96500D02*
X95968Y-146149D01*
X95007Y-146547D01*
X94181Y-147181D01*
X93547Y-148007D01*
X93149Y-148968D01*
X93079Y-149500D01*
X96500D01*
Y-146079D01*
D02*
G37*
G36*
X100921Y-150500D02*
X97500D01*
Y-153921D01*
X98032Y-153851D01*
X98993Y-153453D01*
X99819Y-152819D01*
X100453Y-151993D01*
X100851Y-151032D01*
X100921Y-150500D01*
D02*
G37*
G36*
X96500D02*
X93079D01*
X93149Y-151032D01*
X93547Y-151993D01*
X94181Y-152819D01*
X95007Y-153453D01*
X95968Y-153851D01*
X96500Y-153921D01*
Y-150500D01*
D02*
G37*
G36*
X10000Y-145461D02*
X8825Y-145616D01*
X7731Y-146069D01*
X6791Y-146791D01*
X6069Y-147731D01*
X5616Y-148825D01*
X5461Y-150000D01*
X5616Y-151175D01*
X6069Y-152269D01*
X6791Y-153209D01*
X7731Y-153931D01*
X8825Y-154384D01*
X10000Y-154539D01*
X11175Y-154384D01*
X12269Y-153931D01*
X13209Y-153209D01*
X13931Y-152269D01*
X14384Y-151175D01*
X14539Y-150000D01*
X14384Y-148825D01*
X13931Y-147731D01*
X13209Y-146791D01*
X12269Y-146069D01*
X11175Y-145616D01*
X10000Y-145461D01*
D02*
G37*
G36*
X107122Y-155000D02*
X104850D01*
Y-157468D01*
X107122D01*
Y-155000D01*
D02*
G37*
G36*
X103850D02*
X101579D01*
Y-157468D01*
X103850D01*
Y-155000D01*
D02*
G37*
G36*
X200000Y-149461D02*
X198825Y-149616D01*
X197731Y-150069D01*
X196791Y-150791D01*
X196069Y-151731D01*
X195616Y-152825D01*
X195461Y-154000D01*
X195616Y-155175D01*
X196069Y-156269D01*
X196791Y-157209D01*
X197731Y-157931D01*
X198825Y-158384D01*
X200000Y-158539D01*
X201175Y-158384D01*
X202269Y-157931D01*
X203209Y-157209D01*
X203931Y-156269D01*
X204384Y-155175D01*
X204539Y-154000D01*
X204384Y-152825D01*
X203931Y-151731D01*
X203209Y-150791D01*
X202269Y-150069D01*
X201175Y-149616D01*
X200000Y-149461D01*
D02*
G37*
G36*
X189000Y-154957D02*
X188174Y-155066D01*
X187404Y-155385D01*
X186742Y-155892D01*
X186235Y-156553D01*
X185916Y-157323D01*
X185807Y-158150D01*
X185916Y-158976D01*
X186235Y-159746D01*
X186742Y-160407D01*
X187404Y-160915D01*
X188174Y-161233D01*
X189000Y-161342D01*
X189826Y-161233D01*
X190596Y-160915D01*
X191258Y-160407D01*
X191765Y-159746D01*
X192084Y-158976D01*
X192193Y-158150D01*
X192084Y-157323D01*
X191765Y-156553D01*
X191258Y-155892D01*
X190596Y-155385D01*
X189826Y-155066D01*
X189000Y-154957D01*
D02*
G37*
G36*
X179000Y-153964D02*
X177917Y-154107D01*
X176907Y-154525D01*
X176040Y-155190D01*
X175375Y-156057D01*
X174957Y-157066D01*
X174815Y-158150D01*
X174957Y-159233D01*
X175375Y-160242D01*
X176040Y-161109D01*
X176907Y-161774D01*
X177917Y-162192D01*
X179000Y-162335D01*
X180083Y-162192D01*
X181093Y-161774D01*
X181959Y-161109D01*
X182625Y-160242D01*
X183043Y-159233D01*
X183185Y-158150D01*
X183043Y-157066D01*
X182625Y-156057D01*
X181959Y-155190D01*
X181093Y-154525D01*
X180083Y-154107D01*
X179000Y-153964D01*
D02*
G37*
G36*
X10000Y-155461D02*
X8825Y-155616D01*
X7731Y-156069D01*
X6791Y-156791D01*
X6069Y-157731D01*
X5616Y-158825D01*
X5461Y-160000D01*
X5616Y-161175D01*
X6069Y-162269D01*
X6791Y-163209D01*
X7731Y-163931D01*
X8825Y-164384D01*
X10000Y-164539D01*
X11175Y-164384D01*
X12269Y-163931D01*
X13209Y-163209D01*
X13931Y-162269D01*
X14384Y-161175D01*
X14539Y-160000D01*
X14384Y-158825D01*
X13931Y-157731D01*
X13209Y-156791D01*
X12269Y-156069D01*
X11175Y-155616D01*
X10000Y-155461D01*
D02*
G37*
G36*
X200000Y-159461D02*
X198825Y-159616D01*
X197731Y-160069D01*
X196791Y-160791D01*
X196069Y-161731D01*
X195616Y-162825D01*
X195461Y-164000D01*
X195616Y-165175D01*
X196069Y-166269D01*
X196791Y-167209D01*
X197731Y-167931D01*
X198825Y-168384D01*
X200000Y-168539D01*
X201175Y-168384D01*
X202269Y-167931D01*
X203209Y-167209D01*
X203931Y-166269D01*
X204384Y-165175D01*
X204539Y-164000D01*
X204384Y-162825D01*
X203931Y-161731D01*
X203209Y-160791D01*
X202269Y-160069D01*
X201175Y-159616D01*
X200000Y-159461D01*
D02*
G37*
G36*
X189000Y-164957D02*
X188174Y-165066D01*
X187404Y-165385D01*
X186742Y-165892D01*
X186235Y-166553D01*
X185916Y-167323D01*
X185807Y-168150D01*
X185916Y-168976D01*
X186235Y-169746D01*
X186742Y-170407D01*
X187404Y-170914D01*
X188174Y-171233D01*
X189000Y-171342D01*
X189826Y-171233D01*
X190596Y-170914D01*
X191258Y-170407D01*
X191765Y-169746D01*
X192084Y-168976D01*
X192193Y-168150D01*
X192084Y-167323D01*
X191765Y-166553D01*
X191258Y-165892D01*
X190596Y-165385D01*
X189826Y-165066D01*
X189000Y-164957D01*
D02*
G37*
G36*
X164543Y-168945D02*
X160500D01*
Y-171709D01*
X164543D01*
Y-168945D01*
D02*
G37*
G36*
X159500D02*
X155457D01*
Y-171709D01*
X159500D01*
Y-168945D01*
D02*
G37*
G36*
X10000Y-165461D02*
X8825Y-165616D01*
X7731Y-166069D01*
X6791Y-166791D01*
X6069Y-167731D01*
X5616Y-168825D01*
X5461Y-170000D01*
X5616Y-171175D01*
X6069Y-172269D01*
X6791Y-173209D01*
X7731Y-173931D01*
X8825Y-174384D01*
X10000Y-174539D01*
X11175Y-174384D01*
X12269Y-173931D01*
X13209Y-173209D01*
X13931Y-172269D01*
X14384Y-171175D01*
X14539Y-170000D01*
X14384Y-168825D01*
X13931Y-167731D01*
X13209Y-166791D01*
X12269Y-166069D01*
X11175Y-165616D01*
X10000Y-165461D01*
D02*
G37*
G36*
X183150Y-164000D02*
X174850D01*
Y-167307D01*
X166939Y-175218D01*
X164543D01*
Y-172709D01*
X160000D01*
X155457D01*
Y-175472D01*
X157283D01*
X157452Y-175972D01*
X157181Y-176181D01*
X156547Y-177007D01*
X156149Y-177968D01*
X156013Y-179000D01*
X156149Y-180032D01*
X156547Y-180993D01*
X157181Y-181819D01*
X158007Y-182453D01*
X158968Y-182851D01*
X160000Y-182987D01*
X161032Y-182851D01*
X161993Y-182453D01*
X162221Y-182278D01*
X167524D01*
Y-185303D01*
X165004Y-187823D01*
X164443Y-188554D01*
X164090Y-189405D01*
X163970Y-190319D01*
Y-234187D01*
X160374Y-237784D01*
X159810Y-237640D01*
X159321Y-237003D01*
X158590Y-236442D01*
X157738Y-236089D01*
X157687Y-236082D01*
X143185Y-221580D01*
X143377Y-221118D01*
X150555D01*
Y-215500D01*
X141394D01*
Y-219135D01*
X140932Y-219327D01*
X134466Y-212860D01*
X134049Y-212541D01*
X134026Y-212510D01*
X133963Y-211984D01*
X133989Y-211900D01*
X139973Y-205917D01*
X140024Y-205910D01*
X140875Y-205557D01*
X141606Y-204996D01*
X142167Y-204265D01*
X142520Y-203414D01*
X142640Y-202500D01*
Y-200610D01*
X142520Y-199697D01*
X142167Y-198845D01*
X141606Y-198114D01*
X140261Y-196769D01*
Y-194650D01*
X137139D01*
X136610Y-194580D01*
X134045D01*
X133517Y-194650D01*
X127828D01*
Y-194678D01*
X105045D01*
X104131Y-194799D01*
X103778Y-194945D01*
X100502D01*
Y-201472D01*
X103778D01*
X104131Y-201619D01*
X105045Y-201739D01*
X133947D01*
X134694Y-201640D01*
X134983D01*
X135221Y-202110D01*
X131316Y-206015D01*
X130854Y-205823D01*
Y-202819D01*
X123146D01*
Y-207181D01*
X124475D01*
X124720Y-207681D01*
X124613Y-207819D01*
X123146D01*
Y-212181D01*
X124469D01*
X124673Y-212681D01*
X124533Y-212819D01*
X123146D01*
Y-217181D01*
X124469D01*
X124673Y-217681D01*
X124533Y-217819D01*
X123146D01*
Y-222181D01*
X124914D01*
X125487Y-222621D01*
X126217Y-222923D01*
X126708Y-222988D01*
X128694Y-224974D01*
Y-228627D01*
X128625Y-229155D01*
Y-230000D01*
X128694Y-230528D01*
Y-236216D01*
X134791D01*
X134912Y-236337D01*
X135003Y-237032D01*
X135401Y-237993D01*
X136035Y-238819D01*
X136861Y-239453D01*
X137822Y-239851D01*
X138854Y-239987D01*
X139886Y-239851D01*
X140847Y-239453D01*
X141673Y-238819D01*
X142307Y-237993D01*
X142705Y-237032D01*
X142841Y-236000D01*
X142705Y-234968D01*
X142307Y-234007D01*
X141673Y-233181D01*
X140847Y-232547D01*
X139886Y-232149D01*
X139191Y-232057D01*
X135616Y-228483D01*
Y-223783D01*
X135132D01*
X135078Y-223372D01*
X134776Y-222642D01*
X134295Y-222016D01*
X131194Y-218915D01*
X131204Y-218865D01*
X131747Y-218700D01*
X153295Y-240248D01*
Y-244863D01*
X133842Y-264316D01*
X133379Y-264124D01*
Y-236866D01*
X117009D01*
Y-307134D01*
X133379D01*
Y-274701D01*
X133646Y-274496D01*
X159321Y-248821D01*
X169996Y-238146D01*
X170557Y-237415D01*
X170910Y-236563D01*
X171030Y-235650D01*
Y-191781D01*
X171059Y-191752D01*
X176532D01*
Y-181248D01*
X171601D01*
X171394Y-180748D01*
X179843Y-172299D01*
X183150D01*
Y-164000D01*
D02*
G37*
G36*
X146500Y-175878D02*
Y-178150D01*
X148969D01*
Y-175878D01*
X146500D01*
D02*
G37*
G36*
X115717Y-176150D02*
X110000D01*
Y-179110D01*
X115717D01*
Y-176150D01*
D02*
G37*
G36*
X129217D02*
X123500D01*
Y-179110D01*
X129217D01*
Y-176150D01*
D02*
G37*
G36*
X109000D02*
X103284D01*
Y-179110D01*
X109000D01*
Y-176150D01*
D02*
G37*
G36*
X122500D02*
X116783D01*
Y-179110D01*
X122500D01*
Y-176150D01*
D02*
G37*
G36*
X136000D02*
X130283D01*
Y-179110D01*
X136000D01*
Y-176150D01*
D02*
G37*
G36*
X148969Y-179150D02*
X146500D01*
Y-181421D01*
X148969D01*
Y-179150D01*
D02*
G37*
G36*
X143032Y-175878D02*
X142644Y-176150D01*
X142532Y-176150D01*
X137000D01*
Y-179610D01*
X136500D01*
Y-180110D01*
X130283D01*
Y-182929D01*
X130283Y-183071D01*
X130022Y-183345D01*
X129478D01*
X129217Y-183071D01*
X129217Y-182929D01*
Y-180110D01*
X123000D01*
X116783D01*
Y-183028D01*
X116783Y-183071D01*
X116679Y-183528D01*
X115821D01*
X115717Y-183071D01*
X115717Y-183028D01*
Y-180110D01*
X109500D01*
Y-179610D01*
D01*
Y-180110D01*
X103284D01*
Y-183028D01*
X103284Y-183071D01*
X103179Y-183528D01*
X100502D01*
Y-186291D01*
X105045D01*
Y-186791D01*
X105545D01*
Y-190055D01*
X113545D01*
Y-186791D01*
X114545D01*
Y-190055D01*
X122545D01*
Y-186791D01*
X123545D01*
Y-190055D01*
X127451D01*
X127828Y-190350D01*
X127966Y-190350D01*
X133545D01*
Y-186890D01*
X134045D01*
Y-186390D01*
X140261D01*
Y-183571D01*
X140261Y-183429D01*
X140604Y-183071D01*
X142717D01*
Y-181791D01*
X143032Y-181421D01*
X143217Y-181421D01*
X145500D01*
Y-178650D01*
Y-175878D01*
X143045Y-175878D01*
X143032D01*
D02*
G37*
G36*
X200000Y-175461D02*
X198825Y-175616D01*
X197731Y-176069D01*
X196791Y-176791D01*
X196069Y-177731D01*
X195616Y-178825D01*
X195461Y-180000D01*
X195616Y-181175D01*
X196069Y-182269D01*
X196791Y-183209D01*
X197731Y-183931D01*
X198825Y-184384D01*
X200000Y-184539D01*
X201175Y-184384D01*
X202269Y-183931D01*
X203209Y-183209D01*
X203931Y-182269D01*
X204384Y-181175D01*
X204539Y-180000D01*
X204384Y-178825D01*
X203931Y-177731D01*
X203209Y-176791D01*
X202269Y-176069D01*
X201175Y-175616D01*
X200000Y-175461D01*
D02*
G37*
G36*
X192476Y-181248D02*
X188472D01*
Y-186000D01*
X192476D01*
Y-181248D01*
D02*
G37*
G36*
X187472D02*
X183468D01*
Y-186000D01*
X187472D01*
Y-181248D01*
D02*
G37*
G36*
X10000Y-175461D02*
X8825Y-175616D01*
X7731Y-176069D01*
X6791Y-176791D01*
X6069Y-177731D01*
X5616Y-178825D01*
X5461Y-180000D01*
X5616Y-181175D01*
X6069Y-182269D01*
X6791Y-183209D01*
X7731Y-183931D01*
X8825Y-184384D01*
X9762Y-184508D01*
X9945Y-185032D01*
X6501Y-188476D01*
X6187Y-188538D01*
X5499Y-188998D01*
X5038Y-189687D01*
X4876Y-190500D01*
X5038Y-191313D01*
X5499Y-192001D01*
X6187Y-192462D01*
X7000Y-192623D01*
X7813Y-192462D01*
X8501Y-192001D01*
X8962Y-191313D01*
X9024Y-190999D01*
X12239Y-187784D01*
X24922D01*
X25187Y-187962D01*
X26000Y-188124D01*
X26813Y-187962D01*
X27501Y-187502D01*
X27962Y-186813D01*
X28124Y-186000D01*
X27962Y-185187D01*
X27501Y-184499D01*
X26813Y-184038D01*
X26000Y-183877D01*
X25187Y-184038D01*
X24922Y-184216D01*
X12719D01*
X12550Y-183716D01*
X13209Y-183209D01*
X13931Y-182269D01*
X14384Y-181175D01*
X14539Y-180000D01*
X14384Y-178825D01*
X13931Y-177731D01*
X13209Y-176791D01*
X12269Y-176069D01*
X11175Y-175616D01*
X10000Y-175461D01*
D02*
G37*
G36*
X104545Y-187291D02*
X100502D01*
Y-190055D01*
X104545D01*
Y-187291D01*
D02*
G37*
G36*
X140261Y-187390D02*
X134545D01*
Y-190350D01*
X140261D01*
Y-187390D01*
D02*
G37*
G36*
X192476Y-187000D02*
X188472D01*
Y-191752D01*
X192476D01*
Y-187000D01*
D02*
G37*
G36*
X187472D02*
X183468D01*
Y-191752D01*
X187472D01*
Y-187000D01*
D02*
G37*
G36*
X200000Y-185461D02*
X198825Y-185616D01*
X197731Y-186069D01*
X196791Y-186791D01*
X196069Y-187731D01*
X195616Y-188825D01*
X195461Y-190000D01*
X195616Y-191175D01*
X196069Y-192269D01*
X196791Y-193209D01*
X197731Y-193931D01*
X198825Y-194384D01*
X200000Y-194539D01*
X201175Y-194384D01*
X202269Y-193931D01*
X203209Y-193209D01*
X203931Y-192269D01*
X204384Y-191175D01*
X204539Y-190000D01*
X204384Y-188825D01*
X203931Y-187731D01*
X203209Y-186791D01*
X202269Y-186069D01*
X201175Y-185616D01*
X200000Y-185461D01*
D02*
G37*
G36*
X34957Y-189980D02*
X26779D01*
Y-195500D01*
X34957D01*
Y-189980D01*
D02*
G37*
G36*
X15000Y-188876D02*
X14187Y-189038D01*
X13498Y-189498D01*
X13038Y-190187D01*
X12877Y-191000D01*
X13038Y-191813D01*
X13466Y-192453D01*
Y-196357D01*
X12966Y-196604D01*
X12269Y-196069D01*
X11175Y-195616D01*
X10000Y-195461D01*
X8825Y-195616D01*
X7731Y-196069D01*
X6791Y-196791D01*
X6069Y-197731D01*
X5616Y-198825D01*
X5461Y-200000D01*
X5616Y-201175D01*
X6069Y-202269D01*
X6791Y-203209D01*
X7731Y-203931D01*
X8825Y-204384D01*
X10000Y-204539D01*
X11175Y-204384D01*
X12269Y-203931D01*
X12966Y-203397D01*
X13466Y-203643D01*
Y-206357D01*
X12966Y-206604D01*
X12269Y-206069D01*
X11175Y-205616D01*
X10000Y-205461D01*
X8825Y-205616D01*
X7731Y-206069D01*
X6791Y-206791D01*
X6069Y-207731D01*
X5616Y-208825D01*
X5461Y-210000D01*
X5616Y-211175D01*
X6069Y-212269D01*
X6791Y-213209D01*
X7731Y-213931D01*
X8825Y-214384D01*
X10000Y-214539D01*
X11175Y-214384D01*
X12269Y-213931D01*
X12966Y-213397D01*
X13466Y-213643D01*
Y-216357D01*
X12966Y-216603D01*
X12269Y-216069D01*
X11175Y-215616D01*
X10000Y-215461D01*
X8825Y-215616D01*
X7731Y-216069D01*
X6791Y-216791D01*
X6069Y-217731D01*
X5616Y-218825D01*
X5461Y-220000D01*
X5616Y-221175D01*
X6069Y-222269D01*
X6791Y-223209D01*
X7731Y-223931D01*
X8825Y-224384D01*
X10000Y-224539D01*
X11175Y-224384D01*
X12269Y-223931D01*
X12966Y-223396D01*
X13466Y-223643D01*
Y-226357D01*
X12966Y-226604D01*
X12269Y-226069D01*
X11175Y-225616D01*
X10000Y-225461D01*
X8825Y-225616D01*
X7731Y-226069D01*
X6791Y-226791D01*
X6069Y-227731D01*
X5616Y-228825D01*
X5461Y-230000D01*
X5616Y-231175D01*
X6069Y-232269D01*
X6791Y-233209D01*
X7731Y-233931D01*
X8825Y-234384D01*
X10000Y-234539D01*
X11175Y-234384D01*
X12269Y-233931D01*
X12966Y-233397D01*
X13466Y-233643D01*
Y-236357D01*
X12966Y-236603D01*
X12269Y-236069D01*
X11175Y-235616D01*
X10000Y-235461D01*
X8825Y-235616D01*
X7731Y-236069D01*
X6791Y-236791D01*
X6069Y-237731D01*
X5616Y-238825D01*
X5461Y-240000D01*
X5616Y-241175D01*
X6069Y-242269D01*
X6791Y-243209D01*
X7731Y-243931D01*
X8825Y-244384D01*
X10000Y-244539D01*
X11175Y-244384D01*
X12269Y-243931D01*
X12966Y-243396D01*
X13466Y-243643D01*
Y-246357D01*
X12966Y-246603D01*
X12269Y-246069D01*
X11175Y-245616D01*
X10000Y-245461D01*
X8825Y-245616D01*
X7731Y-246069D01*
X6791Y-246791D01*
X6069Y-247731D01*
X5616Y-248825D01*
X5461Y-250000D01*
X5616Y-251175D01*
X6069Y-252269D01*
X6791Y-253209D01*
X7731Y-253931D01*
X8825Y-254384D01*
X10000Y-254539D01*
X11175Y-254384D01*
X12269Y-253931D01*
X12966Y-253397D01*
X13466Y-253643D01*
Y-256357D01*
X12966Y-256604D01*
X12269Y-256069D01*
X11175Y-255616D01*
X10000Y-255461D01*
X8825Y-255616D01*
X7731Y-256069D01*
X6791Y-256791D01*
X6069Y-257731D01*
X5616Y-258825D01*
X5461Y-260000D01*
X5616Y-261175D01*
X6069Y-262269D01*
X6791Y-263209D01*
X7731Y-263931D01*
X8825Y-264384D01*
X10000Y-264539D01*
X11175Y-264384D01*
X12269Y-263931D01*
X12966Y-263397D01*
X13466Y-263643D01*
Y-266357D01*
X12966Y-266603D01*
X12269Y-266069D01*
X11175Y-265616D01*
X10000Y-265461D01*
X8825Y-265616D01*
X7731Y-266069D01*
X6791Y-266791D01*
X6069Y-267731D01*
X5616Y-268825D01*
X5461Y-270000D01*
X5616Y-271175D01*
X6069Y-272269D01*
X6791Y-273209D01*
X7731Y-273931D01*
X8825Y-274384D01*
X10000Y-274539D01*
X11175Y-274384D01*
X12269Y-273931D01*
X12868Y-273471D01*
X13332Y-273685D01*
X13376Y-274100D01*
X8738Y-278738D01*
X8352Y-279317D01*
X8216Y-280000D01*
Y-285868D01*
X7731Y-286069D01*
X6791Y-286791D01*
X6069Y-287731D01*
X5616Y-288825D01*
X5461Y-290000D01*
X5616Y-291175D01*
X6069Y-292269D01*
X6791Y-293209D01*
X7731Y-293931D01*
X8825Y-294384D01*
X10000Y-294539D01*
X11175Y-294384D01*
X12269Y-293931D01*
X13209Y-293209D01*
X13931Y-292269D01*
X14384Y-291175D01*
X14539Y-290000D01*
X14384Y-288825D01*
X13931Y-287731D01*
X13209Y-286791D01*
X12269Y-286069D01*
X11784Y-285868D01*
Y-280739D01*
X16512Y-276012D01*
X16898Y-275433D01*
X17034Y-274750D01*
Y-191594D01*
X17102Y-191509D01*
X17602Y-191686D01*
Y-195500D01*
X25780D01*
Y-189980D01*
X17602D01*
Y-190713D01*
X17538Y-190851D01*
X17182Y-190886D01*
X17077Y-190769D01*
X16962Y-190187D01*
X16501Y-189498D01*
X15813Y-189038D01*
X15000Y-188876D01*
D02*
G37*
G36*
X34957Y-196500D02*
X26779D01*
Y-202020D01*
X34957D01*
Y-196500D01*
D02*
G37*
G36*
X25780D02*
X17602D01*
Y-202020D01*
X25780D01*
Y-196500D01*
D02*
G37*
G36*
X109398Y-202819D02*
X106043D01*
Y-204500D01*
X109398D01*
Y-202819D01*
D02*
G37*
G36*
X105043D02*
X101689D01*
Y-204500D01*
X105043D01*
Y-202819D01*
D02*
G37*
G36*
X200000Y-195461D02*
X198825Y-195616D01*
X197731Y-196069D01*
X196791Y-196791D01*
X196069Y-197731D01*
X195616Y-198825D01*
X195461Y-200000D01*
X195616Y-201175D01*
X196069Y-202269D01*
X196791Y-203209D01*
X197731Y-203931D01*
X198825Y-204384D01*
X200000Y-204539D01*
X201175Y-204384D01*
X202269Y-203931D01*
X203209Y-203209D01*
X203931Y-202269D01*
X204384Y-201175D01*
X204539Y-200000D01*
X204384Y-198825D01*
X203931Y-197731D01*
X203209Y-196791D01*
X202269Y-196069D01*
X201175Y-195616D01*
X200000Y-195461D01*
D02*
G37*
G36*
X109398Y-205500D02*
X106043D01*
Y-207181D01*
X109398D01*
Y-205500D01*
D02*
G37*
G36*
X105043D02*
X101689D01*
Y-207181D01*
X105043D01*
Y-205500D01*
D02*
G37*
G36*
X109398Y-207819D02*
X106043D01*
Y-209500D01*
X109398D01*
Y-207819D01*
D02*
G37*
G36*
X105043D02*
X101689D01*
Y-209500D01*
X105043D01*
Y-207819D01*
D02*
G37*
G36*
X121996Y-205398D02*
X116772D01*
Y-212000D01*
X121996D01*
Y-205398D01*
D02*
G37*
G36*
X115772D02*
X110547D01*
Y-212000D01*
X115772D01*
Y-205398D01*
D02*
G37*
G36*
X109398Y-210500D02*
X106043D01*
Y-212181D01*
X109398D01*
Y-210500D01*
D02*
G37*
G36*
X105043D02*
X101689D01*
Y-212181D01*
X105043D01*
Y-210500D01*
D02*
G37*
G36*
X100969Y-211579D02*
X95031D01*
Y-212716D01*
X80078D01*
X79813Y-212538D01*
X79000Y-212376D01*
X78187Y-212538D01*
X77499Y-212999D01*
X77038Y-213687D01*
X76876Y-214500D01*
X77038Y-215313D01*
X77499Y-216002D01*
X78187Y-216462D01*
X79000Y-216623D01*
X79813Y-216462D01*
X80078Y-216284D01*
X95031D01*
Y-217122D01*
X100969D01*
Y-216784D01*
X101689D01*
Y-217181D01*
X109398D01*
Y-212819D01*
X101689D01*
Y-213216D01*
X100969D01*
Y-211579D01*
D02*
G37*
G36*
X160716Y-208882D02*
X151555D01*
Y-214500D01*
X160716D01*
Y-208882D01*
D02*
G37*
G36*
X150555D02*
X141394D01*
Y-214500D01*
X150555D01*
Y-208882D01*
D02*
G37*
G36*
X200000Y-205461D02*
X198825Y-205616D01*
X197731Y-206069D01*
X196791Y-206791D01*
X196069Y-207731D01*
X195616Y-208825D01*
X195461Y-210000D01*
X195616Y-211175D01*
X196069Y-212269D01*
X196791Y-213209D01*
X197731Y-213931D01*
X198825Y-214384D01*
X200000Y-214539D01*
X201175Y-214384D01*
X202269Y-213931D01*
X203209Y-213209D01*
X203931Y-212269D01*
X204384Y-211175D01*
X204539Y-210000D01*
X204384Y-208825D01*
X203931Y-207731D01*
X203209Y-206791D01*
X202269Y-206069D01*
X201175Y-205616D01*
X200000Y-205461D01*
D02*
G37*
G36*
X115772Y-213000D02*
X110547D01*
Y-219461D01*
X109398D01*
Y-217819D01*
X101689D01*
Y-222181D01*
X103640D01*
X103659Y-222280D01*
X104101Y-222942D01*
X104763Y-223384D01*
X105543Y-223539D01*
X112296D01*
X112484Y-223787D01*
X112239Y-224276D01*
X107470D01*
Y-225198D01*
X107449Y-225202D01*
X106870Y-225589D01*
X105033Y-227425D01*
X102210D01*
Y-232575D01*
X107470D01*
Y-235724D01*
X112620D01*
Y-235134D01*
X117474D01*
Y-236216D01*
X120435D01*
Y-230000D01*
Y-223783D01*
X117474D01*
X117084Y-223518D01*
Y-223273D01*
X116929Y-222493D01*
X116487Y-221831D01*
X115013Y-220358D01*
X114843Y-220102D01*
X115012Y-219602D01*
X115772D01*
Y-213000D01*
D02*
G37*
G36*
X121996D02*
X116772D01*
Y-219602D01*
X121996D01*
Y-213000D01*
D02*
G37*
G36*
X192606Y-208882D02*
X173284D01*
Y-212602D01*
X173181Y-212681D01*
X172547Y-213507D01*
X172149Y-214468D01*
X172013Y-215500D01*
X172149Y-216532D01*
X172547Y-217493D01*
X173181Y-218319D01*
X173284Y-218398D01*
Y-221118D01*
X192606D01*
Y-208882D01*
D02*
G37*
G36*
X160716Y-215500D02*
X151555D01*
Y-221118D01*
X160716D01*
Y-215500D01*
D02*
G37*
G36*
X200000Y-215461D02*
X198825Y-215616D01*
X197731Y-216069D01*
X196791Y-216791D01*
X196069Y-217731D01*
X195616Y-218825D01*
X195461Y-220000D01*
X195616Y-221175D01*
X196069Y-222269D01*
X196791Y-223209D01*
X197731Y-223931D01*
X198825Y-224384D01*
X200000Y-224539D01*
X201175Y-224384D01*
X202269Y-223931D01*
X203209Y-223209D01*
X203931Y-222269D01*
X204384Y-221175D01*
X204539Y-220000D01*
X204384Y-218825D01*
X203931Y-217731D01*
X203209Y-216791D01*
X202269Y-216069D01*
X201175Y-215616D01*
X200000Y-215461D01*
D02*
G37*
G36*
X100969Y-217878D02*
X95031D01*
Y-223421D01*
X94641Y-223685D01*
X94336D01*
Y-228835D01*
X99879D01*
Y-223685D01*
X100270Y-223421D01*
X100969D01*
Y-217878D01*
D02*
G37*
G36*
X121435Y-223783D02*
Y-229500D01*
X124395D01*
Y-223783D01*
X121435D01*
D02*
G37*
G36*
X99879Y-231165D02*
X97608D01*
Y-233240D01*
X99879D01*
Y-231165D01*
D02*
G37*
G36*
X96608D02*
X94336D01*
Y-233240D01*
X96608D01*
Y-231165D01*
D02*
G37*
G36*
X200000Y-225461D02*
X198825Y-225616D01*
X197731Y-226069D01*
X196791Y-226791D01*
X196069Y-227731D01*
X195616Y-228825D01*
X195461Y-230000D01*
X195616Y-231175D01*
X196069Y-232269D01*
X196791Y-233209D01*
X197731Y-233931D01*
X198825Y-234384D01*
X200000Y-234539D01*
X201175Y-234384D01*
X202269Y-233931D01*
X203209Y-233209D01*
X203931Y-232269D01*
X204384Y-231175D01*
X204539Y-230000D01*
X204384Y-228825D01*
X203931Y-227731D01*
X203209Y-226791D01*
X202269Y-226069D01*
X201175Y-225616D01*
X200000Y-225461D01*
D02*
G37*
G36*
X124395Y-230500D02*
X121435D01*
Y-236216D01*
X124395D01*
Y-230500D01*
D02*
G37*
G36*
X99879Y-234240D02*
X97608D01*
Y-236315D01*
X99879D01*
Y-234240D01*
D02*
G37*
G36*
X96608D02*
X94336D01*
Y-236315D01*
X96608D01*
Y-234240D01*
D02*
G37*
G36*
X200000Y-235461D02*
X198825Y-235616D01*
X197731Y-236069D01*
X196791Y-236791D01*
X196069Y-237731D01*
X195616Y-238825D01*
X195461Y-240000D01*
X195616Y-241175D01*
X196069Y-242269D01*
X196791Y-243209D01*
X197731Y-243931D01*
X198825Y-244384D01*
X200000Y-244539D01*
X201175Y-244384D01*
X202269Y-243931D01*
X203209Y-243209D01*
X203931Y-242269D01*
X204384Y-241175D01*
X204539Y-240000D01*
X204384Y-238825D01*
X203931Y-237731D01*
X203209Y-236791D01*
X202269Y-236069D01*
X201175Y-235616D01*
X200000Y-235461D01*
D02*
G37*
G36*
X192080Y-236866D02*
X175710D01*
Y-253021D01*
X175210Y-253190D01*
X174819Y-252681D01*
X173993Y-252047D01*
X173032Y-251649D01*
X172000Y-251513D01*
X170968Y-251649D01*
X170007Y-252047D01*
X169181Y-252681D01*
X168547Y-253507D01*
X168149Y-254468D01*
X168013Y-255500D01*
X168149Y-256532D01*
X168547Y-257493D01*
X169181Y-258319D01*
X170007Y-258953D01*
X170781Y-259274D01*
X175710Y-264203D01*
Y-307134D01*
X192080D01*
Y-236866D01*
D02*
G37*
G36*
X85752Y-249524D02*
X81000D01*
Y-253528D01*
X85752D01*
Y-249524D01*
D02*
G37*
G36*
X80000D02*
X75248D01*
Y-253528D01*
X80000D01*
Y-249524D01*
D02*
G37*
G36*
X200000Y-245461D02*
X198825Y-245616D01*
X197731Y-246069D01*
X196791Y-246791D01*
X196069Y-247731D01*
X195616Y-248825D01*
X195461Y-250000D01*
X195616Y-251175D01*
X196069Y-252269D01*
X196791Y-253209D01*
X197731Y-253931D01*
X198825Y-254384D01*
X200000Y-254539D01*
X201175Y-254384D01*
X202269Y-253931D01*
X203209Y-253209D01*
X203931Y-252269D01*
X204384Y-251175D01*
X204539Y-250000D01*
X204384Y-248825D01*
X203931Y-247731D01*
X203209Y-246791D01*
X202269Y-246069D01*
X201175Y-245616D01*
X200000Y-245461D01*
D02*
G37*
G36*
X85752Y-254528D02*
X81000D01*
Y-258531D01*
X85752D01*
Y-254528D01*
D02*
G37*
G36*
X80000D02*
X75248D01*
Y-258531D01*
X80000D01*
Y-254528D01*
D02*
G37*
G36*
X73390Y-226028D02*
X58004D01*
Y-256588D01*
X54198Y-260395D01*
X53645Y-261221D01*
X53451Y-262197D01*
Y-280957D01*
X47028D01*
Y-281186D01*
X46583Y-281319D01*
Y-281319D01*
X38874D01*
Y-285681D01*
X41257D01*
X41429Y-285938D01*
X41201Y-286319D01*
X38874D01*
Y-290681D01*
X40993D01*
X41198Y-291181D01*
X41058Y-291319D01*
X38874D01*
Y-295681D01*
X39424D01*
X39698Y-296181D01*
X39609Y-296319D01*
X38874D01*
Y-300681D01*
X39990D01*
X40232Y-300996D01*
X43732Y-304496D01*
X44463Y-305057D01*
X44524Y-305082D01*
X45007Y-305453D01*
X45968Y-305851D01*
X47000Y-305987D01*
X47901Y-305868D01*
X48149Y-306261D01*
X48164Y-306313D01*
X46261Y-308216D01*
X42078D01*
X41813Y-308038D01*
X41000Y-307876D01*
X40187Y-308038D01*
X39498Y-308499D01*
X39038Y-309187D01*
X38877Y-310000D01*
X39038Y-310813D01*
X39498Y-311502D01*
X40187Y-311962D01*
X41000Y-312123D01*
X41813Y-311962D01*
X42078Y-311784D01*
X47000D01*
X47020Y-311780D01*
X47267Y-312241D01*
X44580Y-314928D01*
X44118Y-314736D01*
Y-312894D01*
X36436D01*
Y-307500D01*
X36315Y-306586D01*
X36169Y-306234D01*
Y-302957D01*
X29642D01*
Y-306234D01*
X29496Y-306586D01*
X29375Y-307500D01*
Y-317461D01*
X29496Y-318374D01*
X29848Y-319226D01*
X30409Y-319957D01*
X31882Y-321429D01*
Y-332217D01*
X44118D01*
Y-325299D01*
X44441Y-325051D01*
X57219Y-312274D01*
X57993Y-311953D01*
X58819Y-311319D01*
X59453Y-310493D01*
X59771Y-309726D01*
X60453Y-309043D01*
X75638D01*
Y-299957D01*
X60274D01*
X60067Y-299457D01*
X73739Y-285784D01*
X77575D01*
Y-290709D01*
X82725D01*
Y-289721D01*
X86926D01*
Y-290075D01*
X92075D01*
Y-285700D01*
X92332Y-285648D01*
X92725Y-285386D01*
X93225Y-285624D01*
Y-290075D01*
X93728D01*
Y-294622D01*
X99272D01*
Y-289866D01*
X98374D01*
Y-284925D01*
X93901D01*
X93710Y-284463D01*
X95204Y-282968D01*
X98421D01*
Y-277031D01*
X92878D01*
Y-280183D01*
X92599Y-280406D01*
X92122Y-280196D01*
Y-277031D01*
X86579D01*
X86465Y-277291D01*
X81315D01*
Y-282216D01*
X78985D01*
Y-280563D01*
X73835D01*
Y-282216D01*
X73000D01*
X72317Y-282351D01*
X71738Y-282738D01*
X71738Y-282738D01*
X65434Y-289042D01*
X64972Y-288851D01*
Y-286000D01*
X62209D01*
Y-290043D01*
X63780D01*
X63971Y-290505D01*
X51313Y-303164D01*
X51261Y-303149D01*
X50868Y-302901D01*
X50987Y-302000D01*
X50851Y-300968D01*
X50453Y-300007D01*
X49819Y-299181D01*
X48993Y-298547D01*
X48032Y-298149D01*
X47269Y-298049D01*
X46583Y-297362D01*
Y-296319D01*
X46971Y-296049D01*
X54000D01*
X54975Y-295855D01*
X55802Y-295302D01*
X57802Y-293302D01*
X58355Y-292476D01*
X58549Y-291500D01*
Y-290043D01*
X61209D01*
Y-285500D01*
Y-280957D01*
X58549D01*
Y-278972D01*
X73390D01*
Y-278972D01*
X73835Y-279104D01*
Y-279563D01*
X75910D01*
Y-277291D01*
X73835D01*
Y-277291D01*
X73390Y-277159D01*
Y-267120D01*
X73852Y-266929D01*
X75248Y-268325D01*
Y-274476D01*
X85752D01*
Y-265469D01*
X79601D01*
X73390Y-259257D01*
Y-226028D01*
D02*
G37*
G36*
X200000Y-265461D02*
X198825Y-265616D01*
X197731Y-266069D01*
X196791Y-266791D01*
X196069Y-267731D01*
X195616Y-268825D01*
X195461Y-270000D01*
X195616Y-271175D01*
X196069Y-272269D01*
X196791Y-273209D01*
X197731Y-273931D01*
X198825Y-274384D01*
X200000Y-274539D01*
X201175Y-274384D01*
X202269Y-273931D01*
X203209Y-273209D01*
X203931Y-272269D01*
X204384Y-271175D01*
X204539Y-270000D01*
X204384Y-268825D01*
X203931Y-267731D01*
X203209Y-266791D01*
X202269Y-266069D01*
X201175Y-265616D01*
X200000Y-265461D01*
D02*
G37*
G36*
X78985Y-277291D02*
X76910D01*
Y-279563D01*
X78985D01*
Y-277291D01*
D02*
G37*
G36*
X25126Y-281319D02*
X21772D01*
Y-283000D01*
X25126D01*
Y-281319D01*
D02*
G37*
G36*
X20772D02*
X17417D01*
Y-283000D01*
X20772D01*
Y-281319D01*
D02*
G37*
G36*
X200000Y-275461D02*
X198825Y-275616D01*
X197731Y-276069D01*
X196791Y-276791D01*
X196069Y-277731D01*
X195616Y-278825D01*
X195461Y-280000D01*
X195616Y-281175D01*
X196069Y-282269D01*
X196791Y-283209D01*
X197731Y-283931D01*
X198825Y-284384D01*
X200000Y-284539D01*
X201175Y-284384D01*
X202269Y-283931D01*
X203209Y-283209D01*
X203931Y-282269D01*
X204384Y-281175D01*
X204539Y-280000D01*
X204384Y-278825D01*
X203931Y-277731D01*
X203209Y-276791D01*
X202269Y-276069D01*
X201175Y-275616D01*
X200000Y-275461D01*
D02*
G37*
G36*
X64972Y-280957D02*
X62209D01*
Y-285000D01*
X64972D01*
Y-280957D01*
D02*
G37*
G36*
X25126Y-284000D02*
X21772D01*
Y-285681D01*
X25126D01*
Y-284000D01*
D02*
G37*
G36*
X20772D02*
X17417D01*
Y-285681D01*
X20772D01*
Y-284000D01*
D02*
G37*
G36*
X25126Y-286319D02*
X21772D01*
Y-288000D01*
X25126D01*
Y-286319D01*
D02*
G37*
G36*
X20772D02*
X17417D01*
Y-288000D01*
X20772D01*
Y-286319D01*
D02*
G37*
G36*
X37724Y-283898D02*
X32500D01*
Y-290500D01*
X37724D01*
Y-283898D01*
D02*
G37*
G36*
X31500D02*
X26276D01*
Y-290500D01*
X31500D01*
Y-283898D01*
D02*
G37*
G36*
X25126Y-289000D02*
X21772D01*
Y-290681D01*
X25126D01*
Y-289000D01*
D02*
G37*
G36*
X20772D02*
X17417D01*
Y-290681D01*
X20772D01*
Y-289000D01*
D02*
G37*
G36*
X200000Y-285461D02*
X198825Y-285616D01*
X197731Y-286069D01*
X196791Y-286791D01*
X196069Y-287731D01*
X195616Y-288825D01*
X195461Y-290000D01*
X195616Y-291175D01*
X196069Y-292269D01*
X196791Y-293209D01*
X197731Y-293931D01*
X198825Y-294384D01*
X200000Y-294539D01*
X201175Y-294384D01*
X202269Y-293931D01*
X203209Y-293209D01*
X203931Y-292269D01*
X204384Y-291175D01*
X204539Y-290000D01*
X204384Y-288825D01*
X203931Y-287731D01*
X203209Y-286791D01*
X202269Y-286069D01*
X201175Y-285616D01*
X200000Y-285461D01*
D02*
G37*
G36*
X25126Y-291319D02*
X17417D01*
Y-291732D01*
X16817Y-291851D01*
X16238Y-292238D01*
X16238Y-292238D01*
X14238Y-294238D01*
X13851Y-294817D01*
X13716Y-295500D01*
Y-296673D01*
X13242Y-296833D01*
X13209Y-296791D01*
X12269Y-296069D01*
X11175Y-295616D01*
X10000Y-295461D01*
X8825Y-295616D01*
X7731Y-296069D01*
X6791Y-296791D01*
X6069Y-297731D01*
X5616Y-298825D01*
X5461Y-300000D01*
X5616Y-301175D01*
X6069Y-302269D01*
X6791Y-303209D01*
X7731Y-303931D01*
X8825Y-304384D01*
X10000Y-304539D01*
X11175Y-304384D01*
X12269Y-303931D01*
X13209Y-303209D01*
X13242Y-303167D01*
X13716Y-303327D01*
Y-304761D01*
X12348Y-306129D01*
X12269Y-306069D01*
X11175Y-305616D01*
X10000Y-305461D01*
X8825Y-305616D01*
X7731Y-306069D01*
X6791Y-306791D01*
X6069Y-307731D01*
X5616Y-308825D01*
X5461Y-310000D01*
X5616Y-311175D01*
X6069Y-312269D01*
X6791Y-313209D01*
X7731Y-313931D01*
X8825Y-314384D01*
X10000Y-314539D01*
X11175Y-314384D01*
X12269Y-313931D01*
X13209Y-313209D01*
X13931Y-312269D01*
X14384Y-311175D01*
X14539Y-310000D01*
X14421Y-309103D01*
X16762Y-306762D01*
X17149Y-306183D01*
X17284Y-305500D01*
Y-301126D01*
X17417Y-300681D01*
X17784Y-300681D01*
X21813D01*
X23627Y-302495D01*
X23435Y-302957D01*
X21595D01*
Y-307000D01*
X24358D01*
Y-303999D01*
X24858Y-303731D01*
X25203Y-303962D01*
X26016Y-304123D01*
X26828Y-303962D01*
X27517Y-303502D01*
X27978Y-302813D01*
X28139Y-302000D01*
X27978Y-301187D01*
X27517Y-300499D01*
X27158Y-300258D01*
X25126Y-298226D01*
Y-296319D01*
X18364D01*
X18097Y-295819D01*
X18189Y-295681D01*
X25126D01*
Y-291319D01*
D02*
G37*
G36*
X37724Y-291500D02*
X32500D01*
Y-298102D01*
X37724D01*
Y-291500D01*
D02*
G37*
G36*
X31500D02*
X26276D01*
Y-298102D01*
X31500D01*
Y-291500D01*
D02*
G37*
G36*
X99272Y-295378D02*
X93728D01*
Y-299925D01*
X93728D01*
X93728Y-299957D01*
X93717Y-299957D01*
X93717D01*
X93715Y-299957D01*
X86752D01*
Y-304000D01*
X94142D01*
Y-300166D01*
X94142D01*
X94142Y-300134D01*
X94153Y-300134D01*
X94153D01*
X94155Y-300134D01*
X95994D01*
X98999Y-303138D01*
X99239Y-303498D01*
X99928Y-303958D01*
X100740Y-304119D01*
X101553Y-303958D01*
X102242Y-303498D01*
X102702Y-302809D01*
X102864Y-301996D01*
X102702Y-301183D01*
X102242Y-300495D01*
X101882Y-300255D01*
X99272Y-297644D01*
Y-295378D01*
D02*
G37*
G36*
X85752Y-299957D02*
X78362D01*
Y-304000D01*
X85752D01*
Y-299957D01*
D02*
G37*
G36*
X200000Y-295461D02*
X198825Y-295616D01*
X197731Y-296069D01*
X196791Y-296791D01*
X196069Y-297731D01*
X195616Y-298825D01*
X195461Y-300000D01*
X195616Y-301175D01*
X196069Y-302269D01*
X196791Y-303209D01*
X197731Y-303931D01*
X198825Y-304384D01*
X200000Y-304539D01*
X201175Y-304384D01*
X202269Y-303931D01*
X203209Y-303209D01*
X203931Y-302269D01*
X204384Y-301175D01*
X204539Y-300000D01*
X204384Y-298825D01*
X203931Y-297731D01*
X203209Y-296791D01*
X202269Y-296069D01*
X201175Y-295616D01*
X200000Y-295461D01*
D02*
G37*
G36*
X20595Y-302957D02*
X17831D01*
Y-307000D01*
X20595D01*
Y-302957D01*
D02*
G37*
G36*
X94142Y-305000D02*
X86752D01*
Y-309043D01*
X94142D01*
Y-305000D01*
D02*
G37*
G36*
X85752D02*
X78362D01*
Y-309043D01*
X85752D01*
Y-305000D01*
D02*
G37*
G36*
X24358Y-308000D02*
X21595D01*
Y-312043D01*
X24358D01*
Y-308000D01*
D02*
G37*
G36*
X20595D02*
X17831D01*
Y-312043D01*
X20595D01*
Y-308000D01*
D02*
G37*
G36*
X200000Y-305461D02*
X198825Y-305616D01*
X197731Y-306069D01*
X196791Y-306791D01*
X196069Y-307731D01*
X195616Y-308825D01*
X195461Y-310000D01*
X195616Y-311175D01*
X196069Y-312269D01*
X196791Y-313209D01*
X197731Y-313931D01*
X198825Y-314384D01*
X200000Y-314539D01*
X201175Y-314384D01*
X202269Y-313931D01*
X203209Y-313209D01*
X203931Y-312269D01*
X204384Y-311175D01*
X204539Y-310000D01*
X204384Y-308825D01*
X203931Y-307731D01*
X203209Y-306791D01*
X202269Y-306069D01*
X201175Y-305616D01*
X200000Y-305461D01*
D02*
G37*
G36*
X146850Y-316421D02*
X146038Y-316583D01*
X145349Y-317043D01*
X144889Y-317732D01*
X144727Y-318545D01*
X144889Y-319357D01*
X145005Y-319531D01*
X144846Y-320031D01*
X144079Y-320031D01*
X143579Y-320031D01*
X141650D01*
Y-323000D01*
X141150D01*
Y-323500D01*
X138378D01*
Y-325532D01*
X138378Y-325969D01*
X138378Y-326468D01*
Y-331968D01*
X139365D01*
Y-333744D01*
X138950Y-334022D01*
X138532Y-333849D01*
X137500Y-333713D01*
X136468Y-333849D01*
X135507Y-334247D01*
X134681Y-334881D01*
X134047Y-335707D01*
X133649Y-336668D01*
X133513Y-337700D01*
X133649Y-338732D01*
X134047Y-339693D01*
X134681Y-340519D01*
X135507Y-341153D01*
X136468Y-341551D01*
X137500Y-341687D01*
X138532Y-341551D01*
X139493Y-341153D01*
X139918Y-340827D01*
X140419Y-341073D01*
Y-342258D01*
X138741Y-343936D01*
X138532Y-343849D01*
X137500Y-343713D01*
X136468Y-343849D01*
X135507Y-344247D01*
X134681Y-344881D01*
X134047Y-345707D01*
X133649Y-346668D01*
X133513Y-347700D01*
X133649Y-348732D01*
X134047Y-349693D01*
X134681Y-350519D01*
X135507Y-351153D01*
X136468Y-351551D01*
X137500Y-351687D01*
X138532Y-351551D01*
X139493Y-351153D01*
X140319Y-350519D01*
X140953Y-349693D01*
X141351Y-348732D01*
X141487Y-347700D01*
X141351Y-346668D01*
X141264Y-346459D01*
X143464Y-344259D01*
X143464Y-344259D01*
X143851Y-343680D01*
X143987Y-342997D01*
X143987Y-342997D01*
Y-335752D01*
X143987Y-335752D01*
X143851Y-335069D01*
X143464Y-334490D01*
X142934Y-333960D01*
Y-332322D01*
X143287Y-331968D01*
X143921Y-331968D01*
X144421Y-331968D01*
X149622D01*
Y-326031D01*
X149622D01*
X149622Y-325969D01*
X149622D01*
Y-320031D01*
X148855D01*
X148696Y-319531D01*
X148812Y-319357D01*
X148974Y-318545D01*
X148812Y-317732D01*
X148352Y-317043D01*
X147663Y-316583D01*
X146850Y-316421D01*
D02*
G37*
G36*
X134850Y-316376D02*
X134038Y-316538D01*
X133349Y-316999D01*
X132889Y-317687D01*
X132727Y-318500D01*
X132889Y-319313D01*
X133035Y-319531D01*
X132913Y-320031D01*
X132079Y-320031D01*
X131579Y-320031D01*
X129650D01*
Y-323000D01*
X129150D01*
Y-323500D01*
X126378D01*
Y-325532D01*
X126378Y-325969D01*
X126378Y-326468D01*
Y-331968D01*
X127365D01*
Y-333744D01*
X126950Y-334022D01*
X126532Y-333849D01*
X125500Y-333713D01*
X124468Y-333849D01*
X123507Y-334247D01*
X122681Y-334881D01*
X122047Y-335707D01*
X121649Y-336668D01*
X121513Y-337700D01*
X121649Y-338732D01*
X122047Y-339693D01*
X122681Y-340519D01*
X123507Y-341153D01*
X124468Y-341551D01*
X125500Y-341687D01*
X126532Y-341551D01*
X127493Y-341153D01*
X127919Y-340827D01*
X128419Y-341073D01*
Y-342258D01*
X126741Y-343936D01*
X126532Y-343849D01*
X125500Y-343713D01*
X124468Y-343849D01*
X123507Y-344247D01*
X122681Y-344881D01*
X122047Y-345707D01*
X121649Y-346668D01*
X121513Y-347700D01*
X121649Y-348732D01*
X122047Y-349693D01*
X122681Y-350519D01*
X123507Y-351153D01*
X124468Y-351551D01*
X125500Y-351687D01*
X126532Y-351551D01*
X127493Y-351153D01*
X128319Y-350519D01*
X128953Y-349693D01*
X129351Y-348732D01*
X129487Y-347700D01*
X129351Y-346668D01*
X129264Y-346459D01*
X131464Y-344259D01*
X131464Y-344259D01*
X131851Y-343680D01*
X131987Y-342997D01*
X131987Y-342997D01*
Y-335752D01*
X131987Y-335752D01*
X131851Y-335069D01*
X131464Y-334490D01*
X130934Y-333960D01*
Y-332322D01*
X131287Y-331968D01*
X131921Y-331968D01*
X132421Y-331968D01*
X137622D01*
Y-326031D01*
X137622D01*
X137622Y-325969D01*
X137622D01*
Y-320031D01*
X136788D01*
X136666Y-319531D01*
X136812Y-319313D01*
X136974Y-318500D01*
X136812Y-317687D01*
X136352Y-316999D01*
X135663Y-316538D01*
X134850Y-316376D01*
D02*
G37*
G36*
X122850D02*
X122038Y-316538D01*
X121349Y-316999D01*
X120889Y-317687D01*
X120727Y-318500D01*
X120889Y-319313D01*
X121035Y-319531D01*
X120913Y-320031D01*
X120079Y-320031D01*
X119579Y-320031D01*
X117650D01*
Y-323000D01*
X117150D01*
Y-323500D01*
X114378D01*
Y-325532D01*
X114378Y-325969D01*
X114378Y-326468D01*
Y-331968D01*
X115365D01*
Y-333744D01*
X114950Y-334022D01*
X114532Y-333849D01*
X113500Y-333713D01*
X112468Y-333849D01*
X111507Y-334247D01*
X110681Y-334881D01*
X110047Y-335707D01*
X109649Y-336668D01*
X109513Y-337700D01*
X109649Y-338732D01*
X110047Y-339693D01*
X110681Y-340519D01*
X111507Y-341153D01*
X112468Y-341551D01*
X113500Y-341687D01*
X114532Y-341551D01*
X115493Y-341153D01*
X115919Y-340827D01*
X116419Y-341073D01*
Y-342258D01*
X114741Y-343936D01*
X114532Y-343849D01*
X113500Y-343713D01*
X112468Y-343849D01*
X111507Y-344247D01*
X110681Y-344881D01*
X110047Y-345707D01*
X109649Y-346668D01*
X109513Y-347700D01*
X109649Y-348732D01*
X110047Y-349693D01*
X110681Y-350519D01*
X111507Y-351153D01*
X112468Y-351551D01*
X113500Y-351687D01*
X114532Y-351551D01*
X115493Y-351153D01*
X116319Y-350519D01*
X116953Y-349693D01*
X117351Y-348732D01*
X117487Y-347700D01*
X117351Y-346668D01*
X117264Y-346459D01*
X119464Y-344259D01*
X119464Y-344259D01*
X119851Y-343680D01*
X119987Y-342997D01*
X119987Y-342997D01*
Y-335752D01*
X119987Y-335752D01*
X119851Y-335069D01*
X119464Y-334490D01*
X118934Y-333960D01*
Y-332322D01*
X119287Y-331968D01*
X119921Y-331968D01*
X120421Y-331968D01*
X125622D01*
Y-326031D01*
X125622D01*
X125622Y-325969D01*
X125622D01*
Y-320031D01*
X124788D01*
X124666Y-319531D01*
X124812Y-319313D01*
X124974Y-318500D01*
X124812Y-317687D01*
X124352Y-316999D01*
X123663Y-316538D01*
X122850Y-316376D01*
D02*
G37*
G36*
X110850Y-316421D02*
X110038Y-316583D01*
X109349Y-317043D01*
X108889Y-317732D01*
X108727Y-318545D01*
X108889Y-319357D01*
X109005Y-319531D01*
X108846Y-320031D01*
X108079Y-320031D01*
X107579Y-320031D01*
X105650D01*
Y-323000D01*
X105150D01*
Y-323500D01*
X102378D01*
Y-325532D01*
X102378Y-325969D01*
X102378Y-326468D01*
Y-331968D01*
X103365D01*
Y-333744D01*
X102950Y-334022D01*
X102532Y-333849D01*
X101500Y-333713D01*
X100468Y-333849D01*
X99507Y-334247D01*
X98681Y-334881D01*
X98047Y-335707D01*
X97649Y-336668D01*
X97513Y-337700D01*
X97649Y-338732D01*
X98047Y-339693D01*
X98681Y-340519D01*
X99507Y-341153D01*
X100468Y-341551D01*
X101500Y-341687D01*
X102532Y-341551D01*
X103493Y-341153D01*
X103919Y-340827D01*
X104419Y-341073D01*
Y-342258D01*
X102741Y-343936D01*
X102532Y-343849D01*
X101500Y-343713D01*
X100468Y-343849D01*
X99507Y-344247D01*
X98681Y-344881D01*
X98047Y-345707D01*
X97649Y-346668D01*
X97513Y-347700D01*
X97649Y-348732D01*
X98047Y-349693D01*
X98681Y-350519D01*
X99507Y-351153D01*
X100468Y-351551D01*
X101500Y-351687D01*
X102532Y-351551D01*
X103493Y-351153D01*
X104319Y-350519D01*
X104953Y-349693D01*
X105351Y-348732D01*
X105487Y-347700D01*
X105351Y-346668D01*
X105264Y-346459D01*
X107464Y-344259D01*
X107464Y-344259D01*
X107851Y-343680D01*
X107987Y-342997D01*
X107987Y-342997D01*
Y-335752D01*
X107987Y-335752D01*
X107851Y-335069D01*
X107464Y-334490D01*
X106934Y-333960D01*
Y-332322D01*
X107287Y-331968D01*
X107921Y-331968D01*
X108421Y-331968D01*
X113622D01*
Y-326031D01*
X113622D01*
X113622Y-325969D01*
X113622D01*
Y-320031D01*
X112855D01*
X112696Y-319531D01*
X112812Y-319357D01*
X112974Y-318545D01*
X112812Y-317732D01*
X112352Y-317043D01*
X111663Y-316583D01*
X110850Y-316421D01*
D02*
G37*
G36*
X87045D02*
X86232Y-316583D01*
X85543Y-317043D01*
X85083Y-317732D01*
X84921Y-318545D01*
X85083Y-319357D01*
X85199Y-319531D01*
X85040Y-320031D01*
X84273Y-320031D01*
X83773Y-320031D01*
X81844D01*
Y-323000D01*
X81344D01*
Y-323500D01*
X78572D01*
Y-325532D01*
X78572Y-325969D01*
X78572Y-326468D01*
Y-331968D01*
X79560D01*
Y-333744D01*
X79144Y-334022D01*
X78726Y-333849D01*
X77694Y-333713D01*
X76663Y-333849D01*
X75701Y-334247D01*
X74875Y-334881D01*
X74242Y-335707D01*
X73843Y-336668D01*
X73708Y-337700D01*
X73843Y-338732D01*
X74242Y-339693D01*
X74875Y-340519D01*
X75701Y-341153D01*
X76663Y-341551D01*
X77694Y-341687D01*
X78726Y-341551D01*
X79688Y-341153D01*
X80113Y-340827D01*
X80613Y-341073D01*
Y-342258D01*
X78935Y-343936D01*
X78726Y-343849D01*
X77694Y-343713D01*
X76663Y-343849D01*
X75701Y-344247D01*
X74875Y-344881D01*
X74242Y-345707D01*
X73843Y-346668D01*
X73708Y-347700D01*
X73843Y-348732D01*
X74242Y-349693D01*
X74875Y-350519D01*
X75701Y-351153D01*
X76663Y-351551D01*
X77694Y-351687D01*
X78726Y-351551D01*
X79688Y-351153D01*
X80514Y-350519D01*
X81147Y-349693D01*
X81546Y-348732D01*
X81681Y-347700D01*
X81546Y-346668D01*
X81459Y-346459D01*
X83659Y-344259D01*
X83659Y-344259D01*
X84046Y-343680D01*
X84181Y-342997D01*
X84181Y-342997D01*
Y-335752D01*
X84181Y-335752D01*
X84046Y-335069D01*
X83659Y-334490D01*
X83128Y-333960D01*
Y-332322D01*
X83482Y-331968D01*
X84116Y-331968D01*
X84616Y-331968D01*
X89816D01*
Y-326031D01*
X89816D01*
X89816Y-325969D01*
X89816D01*
Y-320031D01*
X89050D01*
X88890Y-319531D01*
X89007Y-319357D01*
X89168Y-318545D01*
X89007Y-317732D01*
X88546Y-317043D01*
X87858Y-316583D01*
X87045Y-316421D01*
D02*
G37*
G36*
X75045D02*
X74232Y-316583D01*
X73543Y-317043D01*
X73083Y-317732D01*
X72921Y-318545D01*
X73083Y-319357D01*
X73199Y-319531D01*
X73040Y-320031D01*
X72273Y-320031D01*
X71773Y-320031D01*
X69844D01*
Y-323000D01*
X69344D01*
Y-323500D01*
X66572D01*
Y-325532D01*
X66572Y-325969D01*
X66572Y-326468D01*
Y-331968D01*
X67560D01*
Y-333744D01*
X67144Y-334022D01*
X66726Y-333849D01*
X65694Y-333713D01*
X64663Y-333849D01*
X63701Y-334247D01*
X62875Y-334881D01*
X62242Y-335707D01*
X61844Y-336668D01*
X61708Y-337700D01*
X61844Y-338732D01*
X62242Y-339693D01*
X62875Y-340519D01*
X63701Y-341153D01*
X64663Y-341551D01*
X65694Y-341687D01*
X66726Y-341551D01*
X67688Y-341153D01*
X68113Y-340827D01*
X68613Y-341073D01*
Y-342258D01*
X66935Y-343936D01*
X66726Y-343849D01*
X65694Y-343713D01*
X64663Y-343849D01*
X63701Y-344247D01*
X62875Y-344881D01*
X62242Y-345707D01*
X61844Y-346668D01*
X61708Y-347700D01*
X61844Y-348732D01*
X62242Y-349693D01*
X62875Y-350519D01*
X63701Y-351153D01*
X64663Y-351551D01*
X65694Y-351687D01*
X66726Y-351551D01*
X67688Y-351153D01*
X68514Y-350519D01*
X69147Y-349693D01*
X69546Y-348732D01*
X69681Y-347700D01*
X69546Y-346668D01*
X69459Y-346459D01*
X71659Y-344259D01*
X71659Y-344259D01*
X72046Y-343680D01*
X72181Y-342997D01*
X72181Y-342997D01*
Y-335752D01*
X72181Y-335752D01*
X72046Y-335069D01*
X71659Y-334490D01*
X71128Y-333960D01*
Y-332322D01*
X71482Y-331968D01*
X72116Y-331968D01*
X72616Y-331968D01*
X77816D01*
Y-326031D01*
X77816D01*
X77816Y-325969D01*
X77816D01*
Y-320031D01*
X77050D01*
X76890Y-319531D01*
X77007Y-319357D01*
X77168Y-318545D01*
X77007Y-317732D01*
X76546Y-317043D01*
X75858Y-316583D01*
X75045Y-316421D01*
D02*
G37*
G36*
X191921Y-320031D02*
X189650D01*
Y-322500D01*
X191921D01*
Y-320031D01*
D02*
G37*
G36*
X188650D02*
X186378D01*
Y-322500D01*
X188650D01*
Y-320031D01*
D02*
G37*
G36*
X164545D02*
X162273D01*
Y-322500D01*
X164545D01*
Y-320031D01*
D02*
G37*
G36*
X152650D02*
X150378D01*
Y-322500D01*
X152650D01*
Y-320031D01*
D02*
G37*
G36*
X140650D02*
X138378D01*
Y-322500D01*
X140650D01*
Y-320031D01*
D02*
G37*
G36*
X128650D02*
X126378D01*
Y-322500D01*
X128650D01*
Y-320031D01*
D02*
G37*
G36*
X116650D02*
X114378D01*
Y-322500D01*
X116650D01*
Y-320031D01*
D02*
G37*
G36*
X104650D02*
X102378D01*
Y-322500D01*
X104650D01*
Y-320031D01*
D02*
G37*
G36*
X92844D02*
X90572D01*
Y-322500D01*
X92844D01*
Y-320031D01*
D02*
G37*
G36*
X80844D02*
X78572D01*
Y-322500D01*
X80844D01*
Y-320031D01*
D02*
G37*
G36*
X68844D02*
X66572D01*
Y-322500D01*
X68844D01*
Y-320031D01*
D02*
G37*
G36*
X200000Y-315461D02*
X198825Y-315616D01*
X197731Y-316069D01*
X196791Y-316791D01*
X196069Y-317731D01*
X195616Y-318825D01*
X195461Y-320000D01*
X195616Y-321175D01*
X196069Y-322269D01*
X196791Y-323209D01*
X197731Y-323931D01*
X198825Y-324384D01*
X200000Y-324539D01*
X201175Y-324384D01*
X202269Y-323931D01*
X203209Y-323209D01*
X203931Y-322269D01*
X204384Y-321175D01*
X204539Y-320000D01*
X204384Y-318825D01*
X203931Y-317731D01*
X203209Y-316791D01*
X202269Y-316069D01*
X201175Y-315616D01*
X200000Y-315461D01*
D02*
G37*
G36*
X10000D02*
X8825Y-315616D01*
X7731Y-316069D01*
X6791Y-316791D01*
X6069Y-317731D01*
X5616Y-318825D01*
X5461Y-320000D01*
X5616Y-321175D01*
X6069Y-322269D01*
X6791Y-323209D01*
X7731Y-323931D01*
X8825Y-324384D01*
X10000Y-324539D01*
X11175Y-324384D01*
X12269Y-323931D01*
X13209Y-323209D01*
X13931Y-322269D01*
X14384Y-321175D01*
X14539Y-320000D01*
X14384Y-318825D01*
X13931Y-317731D01*
X13209Y-316791D01*
X12269Y-316069D01*
X11175Y-315616D01*
X10000Y-315461D01*
D02*
G37*
G36*
X63045Y-316376D02*
X62232Y-316538D01*
X61543Y-316999D01*
X61083Y-317687D01*
X60921Y-318500D01*
X61083Y-319313D01*
X61229Y-319531D01*
X61107Y-320031D01*
X60273D01*
Y-325969D01*
X60273D01*
X60273Y-326031D01*
X60273D01*
Y-331968D01*
X65816D01*
Y-326031D01*
X65816D01*
X65816Y-325969D01*
X65816D01*
Y-320031D01*
X64982D01*
X64860Y-319531D01*
X65007Y-319313D01*
X65168Y-318500D01*
X65007Y-317687D01*
X64546Y-316999D01*
X63858Y-316538D01*
X63045Y-316376D01*
D02*
G37*
G36*
X152000Y-312877D02*
X151187Y-313038D01*
X150498Y-313498D01*
X150038Y-314187D01*
X149876Y-315000D01*
X150038Y-315813D01*
X150498Y-316501D01*
X151187Y-316962D01*
X152000Y-317124D01*
X152813Y-316962D01*
X153078Y-316784D01*
X156786D01*
X157053Y-317284D01*
X156784Y-317687D01*
X156622Y-318500D01*
X156784Y-319313D01*
X156930Y-319531D01*
X156808Y-320031D01*
X155974Y-320031D01*
X155474Y-320031D01*
X153650D01*
Y-323000D01*
X153150D01*
Y-323500D01*
X150378D01*
Y-325532D01*
X150378Y-325969D01*
X150378Y-326468D01*
Y-331968D01*
X151365D01*
Y-333744D01*
X150950Y-334022D01*
X150532Y-333849D01*
X149500Y-333713D01*
X148468Y-333849D01*
X147507Y-334247D01*
X146681Y-334881D01*
X146047Y-335707D01*
X145649Y-336668D01*
X145513Y-337700D01*
X145649Y-338732D01*
X146047Y-339693D01*
X146681Y-340519D01*
X147507Y-341153D01*
X148468Y-341551D01*
X149500Y-341687D01*
X150532Y-341551D01*
X151493Y-341153D01*
X151918Y-340827D01*
X152418Y-341073D01*
Y-342258D01*
X150741Y-343936D01*
X150532Y-343849D01*
X149500Y-343713D01*
X148468Y-343849D01*
X147507Y-344247D01*
X146681Y-344881D01*
X146047Y-345707D01*
X145649Y-346668D01*
X145513Y-347700D01*
X145649Y-348732D01*
X146047Y-349693D01*
X146681Y-350519D01*
X147507Y-351153D01*
X148468Y-351551D01*
X149500Y-351687D01*
X150532Y-351551D01*
X151493Y-351153D01*
X152319Y-350519D01*
X152953Y-349693D01*
X153351Y-348732D01*
X153487Y-347700D01*
X153351Y-346668D01*
X153264Y-346459D01*
X155464Y-344259D01*
X155464Y-344259D01*
X155851Y-343680D01*
X155987Y-342997D01*
X155987Y-342997D01*
Y-335752D01*
X155987Y-335752D01*
X155851Y-335069D01*
X155464Y-334490D01*
X154934Y-333960D01*
Y-332322D01*
X155287Y-331968D01*
X155921Y-331968D01*
X156421Y-331968D01*
X161517D01*
Y-326031D01*
X161517D01*
X161517Y-325969D01*
X161517D01*
Y-320031D01*
X160683D01*
X160561Y-319531D01*
X160707Y-319313D01*
X160869Y-318500D01*
X160707Y-317687D01*
X160438Y-317284D01*
X160705Y-316784D01*
X168891D01*
X169158Y-317284D01*
X168889Y-317687D01*
X168727Y-318500D01*
X168889Y-319313D01*
X169035Y-319531D01*
X168913Y-320031D01*
X167948Y-320031D01*
X167579Y-320031D01*
X165545D01*
Y-323000D01*
X165045D01*
Y-323500D01*
X162273D01*
Y-325532D01*
X162273Y-325969D01*
X162273Y-326468D01*
Y-331968D01*
X163261D01*
Y-333701D01*
X162845Y-333979D01*
X162532Y-333849D01*
X161500Y-333713D01*
X160468Y-333849D01*
X159507Y-334247D01*
X158681Y-334881D01*
X158047Y-335707D01*
X157649Y-336668D01*
X157513Y-337700D01*
X157649Y-338732D01*
X158047Y-339693D01*
X158681Y-340519D01*
X159507Y-341153D01*
X160468Y-341551D01*
X161500Y-341687D01*
X162532Y-341551D01*
X163493Y-341153D01*
X163918Y-340827D01*
X164418Y-341073D01*
Y-342258D01*
X162741Y-343936D01*
X162532Y-343849D01*
X161500Y-343713D01*
X160468Y-343849D01*
X159507Y-344247D01*
X158681Y-344881D01*
X158047Y-345707D01*
X157649Y-346668D01*
X157513Y-347700D01*
X157649Y-348732D01*
X158047Y-349693D01*
X158681Y-350519D01*
X159507Y-351153D01*
X160468Y-351551D01*
X161500Y-351687D01*
X162532Y-351551D01*
X163493Y-351153D01*
X164319Y-350519D01*
X164953Y-349693D01*
X165351Y-348732D01*
X165487Y-347700D01*
X165351Y-346668D01*
X165264Y-346459D01*
X167464Y-344259D01*
X167464Y-344259D01*
X167851Y-343680D01*
X167987Y-342997D01*
X167987Y-342997D01*
Y-335752D01*
X167987Y-335752D01*
X167851Y-335069D01*
X167464Y-334490D01*
X167464Y-334490D01*
X166829Y-333855D01*
Y-332322D01*
X167183Y-331968D01*
X167948Y-331968D01*
X168317Y-331968D01*
X173622D01*
Y-326031D01*
X173622D01*
X173622Y-325969D01*
X173622D01*
Y-320031D01*
X172788D01*
X172666Y-319531D01*
X172812Y-319313D01*
X172974Y-318500D01*
X172812Y-317687D01*
X172543Y-317284D01*
X172810Y-316784D01*
X174626D01*
X177411Y-319570D01*
X177219Y-320031D01*
X174378D01*
Y-322500D01*
X177150D01*
Y-323500D01*
X174378D01*
Y-325532D01*
X174378Y-325969D01*
X174378Y-326468D01*
Y-331968D01*
X175365D01*
Y-333744D01*
X174950Y-334022D01*
X174532Y-333849D01*
X173500Y-333713D01*
X172468Y-333849D01*
X171507Y-334247D01*
X170681Y-334881D01*
X170047Y-335707D01*
X169649Y-336668D01*
X169513Y-337700D01*
X169649Y-338732D01*
X170047Y-339693D01*
X170681Y-340519D01*
X171507Y-341153D01*
X172468Y-341551D01*
X173500Y-341687D01*
X174532Y-341551D01*
X175493Y-341153D01*
X175918Y-340827D01*
X176418Y-341073D01*
Y-342258D01*
X174741Y-343936D01*
X174532Y-343849D01*
X173500Y-343713D01*
X172468Y-343849D01*
X171507Y-344247D01*
X170681Y-344881D01*
X170047Y-345707D01*
X169649Y-346668D01*
X169513Y-347700D01*
X169649Y-348732D01*
X170047Y-349693D01*
X170681Y-350519D01*
X171507Y-351153D01*
X172468Y-351551D01*
X173500Y-351687D01*
X174532Y-351551D01*
X175493Y-351153D01*
X176319Y-350519D01*
X176953Y-349693D01*
X177351Y-348732D01*
X177487Y-347700D01*
X177351Y-346668D01*
X177264Y-346459D01*
X179464Y-344259D01*
X179464Y-344259D01*
X179851Y-343680D01*
X179987Y-342997D01*
X179987Y-342997D01*
Y-335752D01*
X179987Y-335752D01*
X179851Y-335069D01*
X179464Y-334490D01*
X178934Y-333960D01*
Y-332322D01*
X179287Y-331968D01*
X179921Y-331968D01*
X180421Y-331968D01*
X185622D01*
Y-326031D01*
X185622D01*
X185622Y-325969D01*
X185622D01*
Y-320031D01*
X182920D01*
X176626Y-313738D01*
X176048Y-313351D01*
X175365Y-313216D01*
X153078D01*
X152813Y-313038D01*
X152000Y-312877D01*
D02*
G37*
G36*
X191921Y-323500D02*
X189150D01*
X186378D01*
Y-325532D01*
X186378Y-325969D01*
X186378Y-326468D01*
Y-331968D01*
X187365D01*
Y-333544D01*
X186950Y-333822D01*
X186532Y-333649D01*
X185500Y-333513D01*
X184468Y-333649D01*
X183507Y-334047D01*
X182681Y-334681D01*
X182047Y-335507D01*
X181649Y-336468D01*
X181513Y-337500D01*
X181649Y-338532D01*
X182047Y-339493D01*
X182681Y-340319D01*
X183507Y-340953D01*
X184468Y-341351D01*
X185500Y-341487D01*
X186532Y-341351D01*
X187493Y-340953D01*
X187918Y-340627D01*
X188418Y-340873D01*
Y-342058D01*
X186741Y-343736D01*
X186532Y-343649D01*
X185500Y-343513D01*
X184468Y-343649D01*
X183507Y-344047D01*
X182681Y-344681D01*
X182047Y-345507D01*
X181649Y-346468D01*
X181513Y-347500D01*
X181649Y-348532D01*
X182047Y-349493D01*
X182681Y-350319D01*
X183507Y-350953D01*
X184468Y-351351D01*
X185500Y-351487D01*
X186532Y-351351D01*
X187493Y-350953D01*
X188319Y-350319D01*
X188953Y-349493D01*
X189351Y-348532D01*
X189487Y-347500D01*
X189351Y-346468D01*
X189264Y-346259D01*
X191464Y-344059D01*
X191464Y-344059D01*
X191851Y-343480D01*
X191987Y-342797D01*
X191987Y-342797D01*
Y-335552D01*
X191987Y-335552D01*
X191851Y-334869D01*
X191464Y-334290D01*
X190934Y-333760D01*
Y-331968D01*
X191921D01*
Y-326468D01*
X191921Y-326031D01*
X191921Y-325532D01*
Y-323500D01*
D02*
G37*
G36*
X98850Y-316421D02*
X98038Y-316583D01*
X97349Y-317043D01*
X96889Y-317732D01*
X96727Y-318545D01*
X96889Y-319357D01*
X97005Y-319531D01*
X96846Y-320031D01*
X93844D01*
Y-323000D01*
X93344D01*
Y-323500D01*
X90572D01*
Y-325969D01*
X90572D01*
X90572Y-326031D01*
X90572D01*
Y-331968D01*
X91560D01*
Y-333744D01*
X91144Y-334022D01*
X90726Y-333849D01*
X89694Y-333713D01*
X88663Y-333849D01*
X87701Y-334247D01*
X86875Y-334881D01*
X86242Y-335707D01*
X85843Y-336668D01*
X85708Y-337700D01*
X85843Y-338732D01*
X86242Y-339693D01*
X86875Y-340519D01*
X87701Y-341153D01*
X88663Y-341551D01*
X89694Y-341687D01*
X90726Y-341551D01*
X91688Y-341153D01*
X92113Y-340827D01*
X92613Y-341073D01*
Y-342258D01*
X90935Y-343936D01*
X90726Y-343849D01*
X89694Y-343713D01*
X88663Y-343849D01*
X87701Y-344247D01*
X86875Y-344881D01*
X86242Y-345707D01*
X85843Y-346668D01*
X85708Y-347700D01*
X85843Y-348732D01*
X86242Y-349693D01*
X86875Y-350519D01*
X87701Y-351153D01*
X88663Y-351551D01*
X89694Y-351687D01*
X90726Y-351551D01*
X91688Y-351153D01*
X92514Y-350519D01*
X93147Y-349693D01*
X93546Y-348732D01*
X93681Y-347700D01*
X93546Y-346668D01*
X93459Y-346459D01*
X95659Y-344259D01*
X95659Y-344259D01*
X96046Y-343680D01*
X96181Y-342997D01*
X96181Y-342997D01*
Y-335752D01*
X96181Y-335752D01*
X96046Y-335069D01*
X95659Y-334490D01*
X95128Y-333960D01*
Y-331968D01*
X101622D01*
Y-326031D01*
X101622D01*
X101622Y-325969D01*
X101622D01*
Y-320031D01*
X100855D01*
X100696Y-319531D01*
X100812Y-319357D01*
X100974Y-318545D01*
X100812Y-317732D01*
X100352Y-317043D01*
X99663Y-316583D01*
X98850Y-316421D01*
D02*
G37*
G36*
X200000Y-325461D02*
X198825Y-325616D01*
X197731Y-326069D01*
X196791Y-326791D01*
X196069Y-327731D01*
X195616Y-328825D01*
X195461Y-330000D01*
X195616Y-331175D01*
X196069Y-332269D01*
X196791Y-333209D01*
X197731Y-333931D01*
X198825Y-334384D01*
X200000Y-334539D01*
X201175Y-334384D01*
X202269Y-333931D01*
X203209Y-333209D01*
X203931Y-332269D01*
X204384Y-331175D01*
X204539Y-330000D01*
X204384Y-328825D01*
X203931Y-327731D01*
X203209Y-326791D01*
X202269Y-326069D01*
X201175Y-325616D01*
X200000Y-325461D01*
D02*
G37*
G36*
X40000Y-335876D02*
X39187Y-336038D01*
X38922Y-336216D01*
X22000D01*
X21317Y-336351D01*
X20738Y-336738D01*
X20738Y-336738D01*
X11660Y-345817D01*
X11175Y-345616D01*
X10000Y-345461D01*
X8825Y-345616D01*
X7731Y-346069D01*
X6791Y-346791D01*
X6069Y-347731D01*
X5616Y-348825D01*
X5461Y-350000D01*
X5616Y-351175D01*
X6069Y-352269D01*
X6791Y-353209D01*
X7731Y-353931D01*
X8825Y-354384D01*
X10000Y-354539D01*
X11175Y-354384D01*
X12269Y-353931D01*
X13209Y-353209D01*
X13931Y-352269D01*
X14384Y-351175D01*
X14539Y-350000D01*
X14384Y-348825D01*
X14183Y-348340D01*
X22739Y-339784D01*
X38922D01*
X39187Y-339962D01*
X40000Y-340124D01*
X40813Y-339962D01*
X41502Y-339502D01*
X41962Y-338813D01*
X42123Y-338000D01*
X41962Y-337187D01*
X41502Y-336498D01*
X40813Y-336038D01*
X40000Y-335876D01*
D02*
G37*
G36*
X200000Y-335461D02*
X198825Y-335616D01*
X197731Y-336069D01*
X196791Y-336791D01*
X196069Y-337731D01*
X195616Y-338825D01*
X195461Y-340000D01*
X195616Y-341175D01*
X196069Y-342269D01*
X196791Y-343209D01*
X197731Y-343931D01*
X198825Y-344384D01*
X200000Y-344539D01*
X201175Y-344384D01*
X202269Y-343931D01*
X203209Y-343209D01*
X203931Y-342269D01*
X204384Y-341175D01*
X204539Y-340000D01*
X204384Y-338825D01*
X203931Y-337731D01*
X203209Y-336791D01*
X202269Y-336069D01*
X201175Y-335616D01*
X200000Y-335461D01*
D02*
G37*
G36*
X10000D02*
X8825Y-335616D01*
X7731Y-336069D01*
X6791Y-336791D01*
X6069Y-337731D01*
X5616Y-338825D01*
X5461Y-340000D01*
X5616Y-341175D01*
X6069Y-342269D01*
X6791Y-343209D01*
X7731Y-343931D01*
X8825Y-344384D01*
X10000Y-344539D01*
X11175Y-344384D01*
X12269Y-343931D01*
X13209Y-343209D01*
X13931Y-342269D01*
X14384Y-341175D01*
X14539Y-340000D01*
X14384Y-338825D01*
X13931Y-337731D01*
X13209Y-336791D01*
X12269Y-336069D01*
X11175Y-335616D01*
X10000Y-335461D01*
D02*
G37*
G36*
X44118Y-344783D02*
X38500D01*
Y-353945D01*
X44118D01*
Y-344783D01*
D02*
G37*
G36*
X37500D02*
X31882D01*
Y-353945D01*
X37500D01*
Y-344783D01*
D02*
G37*
G36*
X199500Y-346132D02*
X198260Y-346254D01*
X196588Y-346762D01*
X195046Y-347586D01*
X193695Y-348695D01*
X192586Y-350046D01*
X191762Y-351588D01*
X191254Y-353260D01*
X191132Y-354500D01*
X199500D01*
Y-346132D01*
D02*
G37*
G36*
X189453Y-353547D02*
X186000D01*
Y-357000D01*
X189453D01*
Y-353547D01*
D02*
G37*
G36*
X185000D02*
X181547D01*
Y-357000D01*
X185000D01*
Y-353547D01*
D02*
G37*
G36*
X177453Y-353747D02*
X174000D01*
Y-357200D01*
X177453D01*
Y-353747D01*
D02*
G37*
G36*
X165453D02*
X162000D01*
Y-357200D01*
X165453D01*
Y-353747D01*
D02*
G37*
G36*
X153453D02*
X150000D01*
Y-357200D01*
X153453D01*
Y-353747D01*
D02*
G37*
G36*
X141453D02*
X138000D01*
Y-357200D01*
X141453D01*
Y-353747D01*
D02*
G37*
G36*
X129453D02*
X126000D01*
Y-357200D01*
X129453D01*
Y-353747D01*
D02*
G37*
G36*
X117453D02*
X114000D01*
Y-357200D01*
X117453D01*
Y-353747D01*
D02*
G37*
G36*
X105453D02*
X102000D01*
Y-357200D01*
X105453D01*
Y-353747D01*
D02*
G37*
G36*
X93647D02*
X90194D01*
Y-357200D01*
X93647D01*
Y-353747D01*
D02*
G37*
G36*
X81647D02*
X78194D01*
Y-357200D01*
X81647D01*
Y-353747D01*
D02*
G37*
G36*
X69647D02*
X66194D01*
Y-357200D01*
X69647D01*
Y-353747D01*
D02*
G37*
G36*
X173000D02*
X169547D01*
Y-357200D01*
X173000D01*
Y-353747D01*
D02*
G37*
G36*
X161000D02*
X157547D01*
Y-357200D01*
X161000D01*
Y-353747D01*
D02*
G37*
G36*
X149000D02*
X145547D01*
Y-357200D01*
X149000D01*
Y-353747D01*
D02*
G37*
G36*
X137000D02*
X133547D01*
Y-357200D01*
X137000D01*
Y-353747D01*
D02*
G37*
G36*
X125000D02*
X121547D01*
Y-357200D01*
X125000D01*
Y-353747D01*
D02*
G37*
G36*
X113000D02*
X109547D01*
Y-357200D01*
X113000D01*
Y-353747D01*
D02*
G37*
G36*
X101000D02*
X97547D01*
Y-357200D01*
X101000D01*
Y-353747D01*
D02*
G37*
G36*
X89195D02*
X85742D01*
Y-357200D01*
X89195D01*
Y-353747D01*
D02*
G37*
G36*
X77194D02*
X73742D01*
Y-357200D01*
X77194D01*
Y-353747D01*
D02*
G37*
G36*
X65194D02*
X61742D01*
Y-357200D01*
X65194D01*
Y-353747D01*
D02*
G37*
G36*
X189453Y-358000D02*
X186000D01*
Y-361453D01*
X189453D01*
Y-358000D01*
D02*
G37*
G36*
X185000D02*
X181547D01*
Y-361453D01*
X185000D01*
Y-358000D01*
D02*
G37*
G36*
X177453Y-358200D02*
X174000D01*
Y-361653D01*
X177453D01*
Y-358200D01*
D02*
G37*
G36*
X173000D02*
X169547D01*
Y-361653D01*
X173000D01*
Y-358200D01*
D02*
G37*
G36*
X165453D02*
X162000D01*
Y-361653D01*
X165453D01*
Y-358200D01*
D02*
G37*
G36*
X161000D02*
X157547D01*
Y-361653D01*
X161000D01*
Y-358200D01*
D02*
G37*
G36*
X153453D02*
X150000D01*
Y-361653D01*
X153453D01*
Y-358200D01*
D02*
G37*
G36*
X149000D02*
X145547D01*
Y-361653D01*
X149000D01*
Y-358200D01*
D02*
G37*
G36*
X141453D02*
X138000D01*
Y-361653D01*
X141453D01*
Y-358200D01*
D02*
G37*
G36*
X137000D02*
X133547D01*
Y-361653D01*
X137000D01*
Y-358200D01*
D02*
G37*
G36*
X129453D02*
X126000D01*
Y-361653D01*
X129453D01*
Y-358200D01*
D02*
G37*
G36*
X125000D02*
X121547D01*
Y-361653D01*
X125000D01*
Y-358200D01*
D02*
G37*
G36*
X117453D02*
X114000D01*
Y-361653D01*
X117453D01*
Y-358200D01*
D02*
G37*
G36*
X113000D02*
X109547D01*
Y-361653D01*
X113000D01*
Y-358200D01*
D02*
G37*
G36*
X105453D02*
X102000D01*
Y-361653D01*
X105453D01*
Y-358200D01*
D02*
G37*
G36*
X101000D02*
X97547D01*
Y-361653D01*
X101000D01*
Y-358200D01*
D02*
G37*
G36*
X93647D02*
X90194D01*
Y-361653D01*
X93647D01*
Y-358200D01*
D02*
G37*
G36*
X89195D02*
X85742D01*
Y-361653D01*
X89195D01*
Y-358200D01*
D02*
G37*
G36*
X81647D02*
X78194D01*
Y-361653D01*
X81647D01*
Y-358200D01*
D02*
G37*
G36*
X77194D02*
X73742D01*
Y-361653D01*
X77194D01*
Y-358200D01*
D02*
G37*
G36*
X69647D02*
X66194D01*
Y-361653D01*
X69647D01*
Y-358200D01*
D02*
G37*
G36*
X65194D02*
X61742D01*
Y-361653D01*
X65194D01*
Y-358200D01*
D02*
G37*
G36*
X199500Y-355500D02*
X191132D01*
X191254Y-356740D01*
X191762Y-358412D01*
X192586Y-359954D01*
X193695Y-361305D01*
X195046Y-362414D01*
X196588Y-363238D01*
X198260Y-363746D01*
X199500Y-363868D01*
Y-355500D01*
D02*
G37*
G36*
X44118Y-354945D02*
X38500D01*
Y-364106D01*
X44118D01*
Y-354945D01*
D02*
G37*
G36*
X37500D02*
X31882D01*
Y-364106D01*
X37500D01*
Y-354945D01*
D02*
G37*
G36*
X10000Y-355461D02*
X8825Y-355616D01*
X7731Y-356069D01*
X6791Y-356791D01*
X6069Y-357731D01*
X5616Y-358825D01*
X5461Y-360000D01*
X5616Y-361175D01*
X6069Y-362269D01*
X6791Y-363209D01*
X7731Y-363931D01*
X8825Y-364384D01*
X10000Y-364539D01*
X11175Y-364384D01*
X12269Y-363931D01*
X13209Y-363209D01*
X13931Y-362269D01*
X14384Y-361175D01*
X14539Y-360000D01*
X14384Y-358825D01*
X13931Y-357731D01*
X13209Y-356791D01*
X12269Y-356069D01*
X11175Y-355616D01*
X10000Y-355461D01*
D02*
G37*
G36*
X30500Y-365527D02*
Y-369500D01*
X34473D01*
X34384Y-368825D01*
X33931Y-367731D01*
X33209Y-366791D01*
X32269Y-366069D01*
X31175Y-365616D01*
X30500Y-365527D01*
D02*
G37*
G36*
X29500D02*
X28825Y-365616D01*
X27731Y-366069D01*
X26791Y-366791D01*
X26069Y-367731D01*
X25616Y-368825D01*
X25527Y-369500D01*
X29500D01*
Y-365527D01*
D02*
G37*
G36*
X34473Y-370500D02*
X30500D01*
Y-374473D01*
X31175Y-374384D01*
X32269Y-373931D01*
X33209Y-373209D01*
X33931Y-372269D01*
X34384Y-371175D01*
X34473Y-370500D01*
D02*
G37*
G36*
X29500D02*
X25527D01*
X25616Y-371175D01*
X26069Y-372269D01*
X26791Y-373209D01*
X27731Y-373931D01*
X28825Y-374384D01*
X29500Y-374473D01*
Y-370500D01*
D02*
G37*
G36*
X200000Y-365461D02*
X198825Y-365616D01*
X197731Y-366069D01*
X196791Y-366791D01*
X196069Y-367731D01*
X195616Y-368825D01*
X195461Y-370000D01*
X195616Y-371175D01*
X196069Y-372269D01*
X196791Y-373209D01*
X197731Y-373931D01*
X198825Y-374384D01*
X200000Y-374539D01*
X201175Y-374384D01*
X202269Y-373931D01*
X203209Y-373209D01*
X203931Y-372269D01*
X204384Y-371175D01*
X204539Y-370000D01*
X204384Y-368825D01*
X203931Y-367731D01*
X203209Y-366791D01*
X202269Y-366069D01*
X201175Y-365616D01*
X200000Y-365461D01*
D02*
G37*
G36*
X190000D02*
X188825Y-365616D01*
X187731Y-366069D01*
X186791Y-366791D01*
X186069Y-367731D01*
X185616Y-368825D01*
X185461Y-370000D01*
X185616Y-371175D01*
X186069Y-372269D01*
X186791Y-373209D01*
X187731Y-373931D01*
X188825Y-374384D01*
X190000Y-374539D01*
X191175Y-374384D01*
X192269Y-373931D01*
X193209Y-373209D01*
X193931Y-372269D01*
X194384Y-371175D01*
X194539Y-370000D01*
X194384Y-368825D01*
X193931Y-367731D01*
X193209Y-366791D01*
X192269Y-366069D01*
X191175Y-365616D01*
X190000Y-365461D01*
D02*
G37*
G36*
X180000D02*
X178825Y-365616D01*
X177731Y-366069D01*
X176791Y-366791D01*
X176069Y-367731D01*
X175616Y-368825D01*
X175461Y-370000D01*
X175616Y-371175D01*
X176069Y-372269D01*
X176791Y-373209D01*
X177731Y-373931D01*
X178825Y-374384D01*
X180000Y-374539D01*
X181175Y-374384D01*
X182269Y-373931D01*
X183209Y-373209D01*
X183931Y-372269D01*
X184384Y-371175D01*
X184539Y-370000D01*
X184384Y-368825D01*
X183931Y-367731D01*
X183209Y-366791D01*
X182269Y-366069D01*
X181175Y-365616D01*
X180000Y-365461D01*
D02*
G37*
G36*
X170000D02*
X168825Y-365616D01*
X167731Y-366069D01*
X166791Y-366791D01*
X166069Y-367731D01*
X165616Y-368825D01*
X165461Y-370000D01*
X165616Y-371175D01*
X166069Y-372269D01*
X166791Y-373209D01*
X167731Y-373931D01*
X168825Y-374384D01*
X170000Y-374539D01*
X171175Y-374384D01*
X172269Y-373931D01*
X173209Y-373209D01*
X173931Y-372269D01*
X174384Y-371175D01*
X174539Y-370000D01*
X174384Y-368825D01*
X173931Y-367731D01*
X173209Y-366791D01*
X172269Y-366069D01*
X171175Y-365616D01*
X170000Y-365461D01*
D02*
G37*
G36*
X160000D02*
X158825Y-365616D01*
X157731Y-366069D01*
X156791Y-366791D01*
X156069Y-367731D01*
X155616Y-368825D01*
X155461Y-370000D01*
X155616Y-371175D01*
X156069Y-372269D01*
X156791Y-373209D01*
X157731Y-373931D01*
X158825Y-374384D01*
X160000Y-374539D01*
X161175Y-374384D01*
X162269Y-373931D01*
X163209Y-373209D01*
X163931Y-372269D01*
X164384Y-371175D01*
X164539Y-370000D01*
X164384Y-368825D01*
X163931Y-367731D01*
X163209Y-366791D01*
X162269Y-366069D01*
X161175Y-365616D01*
X160000Y-365461D01*
D02*
G37*
G36*
X150000D02*
X148825Y-365616D01*
X147731Y-366069D01*
X146791Y-366791D01*
X146069Y-367731D01*
X145616Y-368825D01*
X145461Y-370000D01*
X145616Y-371175D01*
X146069Y-372269D01*
X146791Y-373209D01*
X147731Y-373931D01*
X148825Y-374384D01*
X150000Y-374539D01*
X151175Y-374384D01*
X152269Y-373931D01*
X153209Y-373209D01*
X153931Y-372269D01*
X154384Y-371175D01*
X154539Y-370000D01*
X154384Y-368825D01*
X153931Y-367731D01*
X153209Y-366791D01*
X152269Y-366069D01*
X151175Y-365616D01*
X150000Y-365461D01*
D02*
G37*
G36*
X140000D02*
X138825Y-365616D01*
X137731Y-366069D01*
X136791Y-366791D01*
X136069Y-367731D01*
X135616Y-368825D01*
X135461Y-370000D01*
X135616Y-371175D01*
X136069Y-372269D01*
X136791Y-373209D01*
X137731Y-373931D01*
X138825Y-374384D01*
X140000Y-374539D01*
X141175Y-374384D01*
X142269Y-373931D01*
X143209Y-373209D01*
X143931Y-372269D01*
X144384Y-371175D01*
X144539Y-370000D01*
X144384Y-368825D01*
X143931Y-367731D01*
X143209Y-366791D01*
X142269Y-366069D01*
X141175Y-365616D01*
X140000Y-365461D01*
D02*
G37*
G36*
X130000D02*
X128825Y-365616D01*
X127731Y-366069D01*
X126791Y-366791D01*
X126069Y-367731D01*
X125616Y-368825D01*
X125461Y-370000D01*
X125616Y-371175D01*
X126069Y-372269D01*
X126791Y-373209D01*
X127731Y-373931D01*
X128825Y-374384D01*
X130000Y-374539D01*
X131175Y-374384D01*
X132269Y-373931D01*
X133209Y-373209D01*
X133931Y-372269D01*
X134384Y-371175D01*
X134539Y-370000D01*
X134384Y-368825D01*
X133931Y-367731D01*
X133209Y-366791D01*
X132269Y-366069D01*
X131175Y-365616D01*
X130000Y-365461D01*
D02*
G37*
G36*
X120000D02*
X118825Y-365616D01*
X117731Y-366069D01*
X116791Y-366791D01*
X116069Y-367731D01*
X115616Y-368825D01*
X115461Y-370000D01*
X115616Y-371175D01*
X116069Y-372269D01*
X116791Y-373209D01*
X117731Y-373931D01*
X118825Y-374384D01*
X120000Y-374539D01*
X121175Y-374384D01*
X122269Y-373931D01*
X123209Y-373209D01*
X123931Y-372269D01*
X124384Y-371175D01*
X124539Y-370000D01*
X124384Y-368825D01*
X123931Y-367731D01*
X123209Y-366791D01*
X122269Y-366069D01*
X121175Y-365616D01*
X120000Y-365461D01*
D02*
G37*
G36*
X110000D02*
X108825Y-365616D01*
X107731Y-366069D01*
X106791Y-366791D01*
X106069Y-367731D01*
X105616Y-368825D01*
X105461Y-370000D01*
X105616Y-371175D01*
X106069Y-372269D01*
X106791Y-373209D01*
X107731Y-373931D01*
X108825Y-374384D01*
X110000Y-374539D01*
X111175Y-374384D01*
X112269Y-373931D01*
X113209Y-373209D01*
X113931Y-372269D01*
X114384Y-371175D01*
X114539Y-370000D01*
X114384Y-368825D01*
X113931Y-367731D01*
X113209Y-366791D01*
X112269Y-366069D01*
X111175Y-365616D01*
X110000Y-365461D01*
D02*
G37*
G36*
X100000D02*
X98825Y-365616D01*
X97731Y-366069D01*
X96791Y-366791D01*
X96069Y-367731D01*
X95616Y-368825D01*
X95461Y-370000D01*
X95616Y-371175D01*
X96069Y-372269D01*
X96791Y-373209D01*
X97731Y-373931D01*
X98825Y-374384D01*
X100000Y-374539D01*
X101175Y-374384D01*
X102269Y-373931D01*
X103209Y-373209D01*
X103931Y-372269D01*
X104384Y-371175D01*
X104539Y-370000D01*
X104384Y-368825D01*
X103931Y-367731D01*
X103209Y-366791D01*
X102269Y-366069D01*
X101175Y-365616D01*
X100000Y-365461D01*
D02*
G37*
G36*
X90000D02*
X88825Y-365616D01*
X87731Y-366069D01*
X86791Y-366791D01*
X86069Y-367731D01*
X85616Y-368825D01*
X85461Y-370000D01*
X85616Y-371175D01*
X86069Y-372269D01*
X86791Y-373209D01*
X87731Y-373931D01*
X88825Y-374384D01*
X90000Y-374539D01*
X91175Y-374384D01*
X92269Y-373931D01*
X93209Y-373209D01*
X93931Y-372269D01*
X94384Y-371175D01*
X94539Y-370000D01*
X94384Y-368825D01*
X93931Y-367731D01*
X93209Y-366791D01*
X92269Y-366069D01*
X91175Y-365616D01*
X90000Y-365461D01*
D02*
G37*
G36*
X80000D02*
X78825Y-365616D01*
X77731Y-366069D01*
X76791Y-366791D01*
X76069Y-367731D01*
X75616Y-368825D01*
X75461Y-370000D01*
X75616Y-371175D01*
X76069Y-372269D01*
X76791Y-373209D01*
X77731Y-373931D01*
X78825Y-374384D01*
X80000Y-374539D01*
X81175Y-374384D01*
X82269Y-373931D01*
X83209Y-373209D01*
X83931Y-372269D01*
X84384Y-371175D01*
X84539Y-370000D01*
X84384Y-368825D01*
X83931Y-367731D01*
X83209Y-366791D01*
X82269Y-366069D01*
X81175Y-365616D01*
X80000Y-365461D01*
D02*
G37*
G36*
X70000D02*
X68825Y-365616D01*
X67731Y-366069D01*
X66791Y-366791D01*
X66069Y-367731D01*
X65616Y-368825D01*
X65461Y-370000D01*
X65616Y-371175D01*
X66069Y-372269D01*
X66791Y-373209D01*
X67731Y-373931D01*
X68825Y-374384D01*
X70000Y-374539D01*
X71175Y-374384D01*
X72269Y-373931D01*
X73209Y-373209D01*
X73931Y-372269D01*
X74384Y-371175D01*
X74539Y-370000D01*
X74384Y-368825D01*
X73931Y-367731D01*
X73209Y-366791D01*
X72269Y-366069D01*
X71175Y-365616D01*
X70000Y-365461D01*
D02*
G37*
G36*
X60000D02*
X58825Y-365616D01*
X57731Y-366069D01*
X56791Y-366791D01*
X56069Y-367731D01*
X55616Y-368825D01*
X55461Y-370000D01*
X55616Y-371175D01*
X56069Y-372269D01*
X56791Y-373209D01*
X57731Y-373931D01*
X58825Y-374384D01*
X60000Y-374539D01*
X61175Y-374384D01*
X62269Y-373931D01*
X63209Y-373209D01*
X63931Y-372269D01*
X64384Y-371175D01*
X64539Y-370000D01*
X64384Y-368825D01*
X63931Y-367731D01*
X63209Y-366791D01*
X62269Y-366069D01*
X61175Y-365616D01*
X60000Y-365461D01*
D02*
G37*
G36*
X50000D02*
X48825Y-365616D01*
X47731Y-366069D01*
X46791Y-366791D01*
X46069Y-367731D01*
X45616Y-368825D01*
X45461Y-370000D01*
X45616Y-371175D01*
X46069Y-372269D01*
X46791Y-373209D01*
X47731Y-373931D01*
X48825Y-374384D01*
X50000Y-374539D01*
X51175Y-374384D01*
X52269Y-373931D01*
X53209Y-373209D01*
X53931Y-372269D01*
X54384Y-371175D01*
X54539Y-370000D01*
X54384Y-368825D01*
X53931Y-367731D01*
X53209Y-366791D01*
X52269Y-366069D01*
X51175Y-365616D01*
X50000Y-365461D01*
D02*
G37*
G36*
X40000D02*
X38825Y-365616D01*
X37731Y-366069D01*
X36791Y-366791D01*
X36069Y-367731D01*
X35616Y-368825D01*
X35461Y-370000D01*
X35616Y-371175D01*
X36069Y-372269D01*
X36791Y-373209D01*
X37731Y-373931D01*
X38825Y-374384D01*
X40000Y-374539D01*
X41175Y-374384D01*
X42269Y-373931D01*
X43209Y-373209D01*
X43931Y-372269D01*
X44384Y-371175D01*
X44539Y-370000D01*
X44384Y-368825D01*
X43931Y-367731D01*
X43209Y-366791D01*
X42269Y-366069D01*
X41175Y-365616D01*
X40000Y-365461D01*
D02*
G37*
G36*
X30500Y-375527D02*
Y-379500D01*
X34473D01*
X34384Y-378825D01*
X33931Y-377731D01*
X33209Y-376791D01*
X32269Y-376069D01*
X31175Y-375616D01*
X30500Y-375527D01*
D02*
G37*
G36*
X10500Y-371132D02*
Y-379500D01*
X18868D01*
X18746Y-378260D01*
X18238Y-376588D01*
X17414Y-375046D01*
X16305Y-373695D01*
X14954Y-372586D01*
X13412Y-371762D01*
X11740Y-371254D01*
X10500Y-371132D01*
D02*
G37*
G36*
X29500Y-375527D02*
X28825Y-375616D01*
X27731Y-376069D01*
X26791Y-376791D01*
X26069Y-377731D01*
X25616Y-378825D01*
X25527Y-379500D01*
X29500D01*
Y-375527D01*
D02*
G37*
G36*
X34473Y-380500D02*
X30500D01*
Y-384473D01*
X31175Y-384384D01*
X32269Y-383931D01*
X33209Y-383209D01*
X33931Y-382269D01*
X34384Y-381175D01*
X34473Y-380500D01*
D02*
G37*
G36*
X29500D02*
X25527D01*
X25616Y-381175D01*
X26069Y-382269D01*
X26791Y-383209D01*
X27731Y-383931D01*
X28825Y-384384D01*
X29500Y-384473D01*
Y-380500D01*
D02*
G37*
G36*
X200000Y-375461D02*
X198825Y-375616D01*
X197731Y-376069D01*
X196791Y-376791D01*
X196069Y-377731D01*
X195616Y-378825D01*
X195461Y-380000D01*
X195616Y-381175D01*
X196069Y-382269D01*
X196791Y-383209D01*
X197731Y-383931D01*
X198825Y-384384D01*
X200000Y-384539D01*
X201175Y-384384D01*
X202269Y-383931D01*
X203209Y-383209D01*
X203931Y-382269D01*
X204384Y-381175D01*
X204539Y-380000D01*
X204384Y-378825D01*
X203931Y-377731D01*
X203209Y-376791D01*
X202269Y-376069D01*
X201175Y-375616D01*
X200000Y-375461D01*
D02*
G37*
G36*
X190000D02*
X188825Y-375616D01*
X187731Y-376069D01*
X186791Y-376791D01*
X186069Y-377731D01*
X185616Y-378825D01*
X185461Y-380000D01*
X185616Y-381175D01*
X186069Y-382269D01*
X186791Y-383209D01*
X187731Y-383931D01*
X188825Y-384384D01*
X190000Y-384539D01*
X191175Y-384384D01*
X192269Y-383931D01*
X193209Y-383209D01*
X193931Y-382269D01*
X194384Y-381175D01*
X194539Y-380000D01*
X194384Y-378825D01*
X193931Y-377731D01*
X193209Y-376791D01*
X192269Y-376069D01*
X191175Y-375616D01*
X190000Y-375461D01*
D02*
G37*
G36*
X180000D02*
X178825Y-375616D01*
X177731Y-376069D01*
X176791Y-376791D01*
X176069Y-377731D01*
X175616Y-378825D01*
X175461Y-380000D01*
X175616Y-381175D01*
X176069Y-382269D01*
X176791Y-383209D01*
X177731Y-383931D01*
X178825Y-384384D01*
X180000Y-384539D01*
X181175Y-384384D01*
X182269Y-383931D01*
X183209Y-383209D01*
X183931Y-382269D01*
X184384Y-381175D01*
X184539Y-380000D01*
X184384Y-378825D01*
X183931Y-377731D01*
X183209Y-376791D01*
X182269Y-376069D01*
X181175Y-375616D01*
X180000Y-375461D01*
D02*
G37*
G36*
X170000D02*
X168825Y-375616D01*
X167731Y-376069D01*
X166791Y-376791D01*
X166069Y-377731D01*
X165616Y-378825D01*
X165461Y-380000D01*
X165616Y-381175D01*
X166069Y-382269D01*
X166791Y-383209D01*
X167731Y-383931D01*
X168825Y-384384D01*
X170000Y-384539D01*
X171175Y-384384D01*
X172269Y-383931D01*
X173209Y-383209D01*
X173931Y-382269D01*
X174384Y-381175D01*
X174539Y-380000D01*
X174384Y-378825D01*
X173931Y-377731D01*
X173209Y-376791D01*
X172269Y-376069D01*
X171175Y-375616D01*
X170000Y-375461D01*
D02*
G37*
G36*
X160000D02*
X158825Y-375616D01*
X157731Y-376069D01*
X156791Y-376791D01*
X156069Y-377731D01*
X155616Y-378825D01*
X155461Y-380000D01*
X155616Y-381175D01*
X156069Y-382269D01*
X156791Y-383209D01*
X157731Y-383931D01*
X158825Y-384384D01*
X160000Y-384539D01*
X161175Y-384384D01*
X162269Y-383931D01*
X163209Y-383209D01*
X163931Y-382269D01*
X164384Y-381175D01*
X164539Y-380000D01*
X164384Y-378825D01*
X163931Y-377731D01*
X163209Y-376791D01*
X162269Y-376069D01*
X161175Y-375616D01*
X160000Y-375461D01*
D02*
G37*
G36*
X150000D02*
X148825Y-375616D01*
X147731Y-376069D01*
X146791Y-376791D01*
X146069Y-377731D01*
X145616Y-378825D01*
X145461Y-380000D01*
X145616Y-381175D01*
X146069Y-382269D01*
X146791Y-383209D01*
X147731Y-383931D01*
X148825Y-384384D01*
X150000Y-384539D01*
X151175Y-384384D01*
X152269Y-383931D01*
X153209Y-383209D01*
X153931Y-382269D01*
X154384Y-381175D01*
X154539Y-380000D01*
X154384Y-378825D01*
X153931Y-377731D01*
X153209Y-376791D01*
X152269Y-376069D01*
X151175Y-375616D01*
X150000Y-375461D01*
D02*
G37*
G36*
X140000D02*
X138825Y-375616D01*
X137731Y-376069D01*
X136791Y-376791D01*
X136069Y-377731D01*
X135616Y-378825D01*
X135461Y-380000D01*
X135616Y-381175D01*
X136069Y-382269D01*
X136791Y-383209D01*
X137731Y-383931D01*
X138825Y-384384D01*
X140000Y-384539D01*
X141175Y-384384D01*
X142269Y-383931D01*
X143209Y-383209D01*
X143931Y-382269D01*
X144384Y-381175D01*
X144539Y-380000D01*
X144384Y-378825D01*
X143931Y-377731D01*
X143209Y-376791D01*
X142269Y-376069D01*
X141175Y-375616D01*
X140000Y-375461D01*
D02*
G37*
G36*
X130000D02*
X128825Y-375616D01*
X127731Y-376069D01*
X126791Y-376791D01*
X126069Y-377731D01*
X125616Y-378825D01*
X125461Y-380000D01*
X125616Y-381175D01*
X126069Y-382269D01*
X126791Y-383209D01*
X127731Y-383931D01*
X128825Y-384384D01*
X130000Y-384539D01*
X131175Y-384384D01*
X132269Y-383931D01*
X133209Y-383209D01*
X133931Y-382269D01*
X134384Y-381175D01*
X134539Y-380000D01*
X134384Y-378825D01*
X133931Y-377731D01*
X133209Y-376791D01*
X132269Y-376069D01*
X131175Y-375616D01*
X130000Y-375461D01*
D02*
G37*
G36*
X120000D02*
X118825Y-375616D01*
X117731Y-376069D01*
X116791Y-376791D01*
X116069Y-377731D01*
X115616Y-378825D01*
X115461Y-380000D01*
X115616Y-381175D01*
X116069Y-382269D01*
X116791Y-383209D01*
X117731Y-383931D01*
X118825Y-384384D01*
X120000Y-384539D01*
X121175Y-384384D01*
X122269Y-383931D01*
X123209Y-383209D01*
X123931Y-382269D01*
X124384Y-381175D01*
X124539Y-380000D01*
X124384Y-378825D01*
X123931Y-377731D01*
X123209Y-376791D01*
X122269Y-376069D01*
X121175Y-375616D01*
X120000Y-375461D01*
D02*
G37*
G36*
X110000D02*
X108825Y-375616D01*
X107731Y-376069D01*
X106791Y-376791D01*
X106069Y-377731D01*
X105616Y-378825D01*
X105461Y-380000D01*
X105616Y-381175D01*
X106069Y-382269D01*
X106791Y-383209D01*
X107731Y-383931D01*
X108825Y-384384D01*
X110000Y-384539D01*
X111175Y-384384D01*
X112269Y-383931D01*
X113209Y-383209D01*
X113931Y-382269D01*
X114384Y-381175D01*
X114539Y-380000D01*
X114384Y-378825D01*
X113931Y-377731D01*
X113209Y-376791D01*
X112269Y-376069D01*
X111175Y-375616D01*
X110000Y-375461D01*
D02*
G37*
G36*
X100000D02*
X98825Y-375616D01*
X97731Y-376069D01*
X96791Y-376791D01*
X96069Y-377731D01*
X95616Y-378825D01*
X95461Y-380000D01*
X95616Y-381175D01*
X96069Y-382269D01*
X96791Y-383209D01*
X97731Y-383931D01*
X98825Y-384384D01*
X100000Y-384539D01*
X101175Y-384384D01*
X102269Y-383931D01*
X103209Y-383209D01*
X103931Y-382269D01*
X104384Y-381175D01*
X104539Y-380000D01*
X104384Y-378825D01*
X103931Y-377731D01*
X103209Y-376791D01*
X102269Y-376069D01*
X101175Y-375616D01*
X100000Y-375461D01*
D02*
G37*
G36*
X90000D02*
X88825Y-375616D01*
X87731Y-376069D01*
X86791Y-376791D01*
X86069Y-377731D01*
X85616Y-378825D01*
X85461Y-380000D01*
X85616Y-381175D01*
X86069Y-382269D01*
X86791Y-383209D01*
X87731Y-383931D01*
X88825Y-384384D01*
X90000Y-384539D01*
X91175Y-384384D01*
X92269Y-383931D01*
X93209Y-383209D01*
X93931Y-382269D01*
X94384Y-381175D01*
X94539Y-380000D01*
X94384Y-378825D01*
X93931Y-377731D01*
X93209Y-376791D01*
X92269Y-376069D01*
X91175Y-375616D01*
X90000Y-375461D01*
D02*
G37*
G36*
X80000D02*
X78825Y-375616D01*
X77731Y-376069D01*
X76791Y-376791D01*
X76069Y-377731D01*
X75616Y-378825D01*
X75461Y-380000D01*
X75616Y-381175D01*
X76069Y-382269D01*
X76791Y-383209D01*
X77731Y-383931D01*
X78825Y-384384D01*
X80000Y-384539D01*
X81175Y-384384D01*
X82269Y-383931D01*
X83209Y-383209D01*
X83931Y-382269D01*
X84384Y-381175D01*
X84539Y-380000D01*
X84384Y-378825D01*
X83931Y-377731D01*
X83209Y-376791D01*
X82269Y-376069D01*
X81175Y-375616D01*
X80000Y-375461D01*
D02*
G37*
G36*
X70000D02*
X68825Y-375616D01*
X67731Y-376069D01*
X66791Y-376791D01*
X66069Y-377731D01*
X65616Y-378825D01*
X65461Y-380000D01*
X65616Y-381175D01*
X66069Y-382269D01*
X66791Y-383209D01*
X67731Y-383931D01*
X68825Y-384384D01*
X70000Y-384539D01*
X71175Y-384384D01*
X72269Y-383931D01*
X73209Y-383209D01*
X73931Y-382269D01*
X74384Y-381175D01*
X74539Y-380000D01*
X74384Y-378825D01*
X73931Y-377731D01*
X73209Y-376791D01*
X72269Y-376069D01*
X71175Y-375616D01*
X70000Y-375461D01*
D02*
G37*
G36*
X60000D02*
X58825Y-375616D01*
X57731Y-376069D01*
X56791Y-376791D01*
X56069Y-377731D01*
X55616Y-378825D01*
X55461Y-380000D01*
X55616Y-381175D01*
X56069Y-382269D01*
X56791Y-383209D01*
X57731Y-383931D01*
X58825Y-384384D01*
X60000Y-384539D01*
X61175Y-384384D01*
X62269Y-383931D01*
X63209Y-383209D01*
X63931Y-382269D01*
X64384Y-381175D01*
X64539Y-380000D01*
X64384Y-378825D01*
X63931Y-377731D01*
X63209Y-376791D01*
X62269Y-376069D01*
X61175Y-375616D01*
X60000Y-375461D01*
D02*
G37*
G36*
X50000D02*
X48825Y-375616D01*
X47731Y-376069D01*
X46791Y-376791D01*
X46069Y-377731D01*
X45616Y-378825D01*
X45461Y-380000D01*
X45616Y-381175D01*
X46069Y-382269D01*
X46791Y-383209D01*
X47731Y-383931D01*
X48825Y-384384D01*
X50000Y-384539D01*
X51175Y-384384D01*
X52269Y-383931D01*
X53209Y-383209D01*
X53931Y-382269D01*
X54384Y-381175D01*
X54539Y-380000D01*
X54384Y-378825D01*
X53931Y-377731D01*
X53209Y-376791D01*
X52269Y-376069D01*
X51175Y-375616D01*
X50000Y-375461D01*
D02*
G37*
G36*
X40000D02*
X38825Y-375616D01*
X37731Y-376069D01*
X36791Y-376791D01*
X36069Y-377731D01*
X35616Y-378825D01*
X35461Y-380000D01*
X35616Y-381175D01*
X36069Y-382269D01*
X36791Y-383209D01*
X37731Y-383931D01*
X38825Y-384384D01*
X40000Y-384539D01*
X41175Y-384384D01*
X42269Y-383931D01*
X43209Y-383209D01*
X43931Y-382269D01*
X44384Y-381175D01*
X44539Y-380000D01*
X44384Y-378825D01*
X43931Y-377731D01*
X43209Y-376791D01*
X42269Y-376069D01*
X41175Y-375616D01*
X40000Y-375461D01*
D02*
G37*
%LPD*%
G36*
X143028Y-116230D02*
Y-119159D01*
X139776Y-122410D01*
X139224Y-123237D01*
X139030Y-124213D01*
Y-135836D01*
X138530Y-136210D01*
X138388Y-136181D01*
X138000D01*
Y-139665D01*
Y-143149D01*
X138388D01*
X138854Y-143057D01*
X139249Y-142793D01*
X139513Y-142397D01*
X139606Y-141931D01*
Y-140494D01*
X140106Y-140445D01*
X140145Y-140641D01*
X140394Y-141013D01*
Y-141931D01*
X140487Y-142397D01*
X140751Y-142793D01*
X141146Y-143057D01*
X141612Y-143149D01*
X143388D01*
X143854Y-143057D01*
X144249Y-142793D01*
X144513Y-142397D01*
X144606Y-141931D01*
Y-141013D01*
X144855Y-140641D01*
X144894Y-140445D01*
X145394Y-140494D01*
Y-141931D01*
X145487Y-142397D01*
X145751Y-142793D01*
X146146Y-143057D01*
X146612Y-143149D01*
X148388D01*
X148854Y-143057D01*
X149249Y-142793D01*
X149513Y-142397D01*
X149606Y-141931D01*
Y-137400D01*
X149521Y-136973D01*
X149806Y-136565D01*
X150194D01*
X150479Y-136973D01*
X150394Y-137400D01*
Y-141931D01*
X150487Y-142397D01*
X150751Y-142793D01*
X151146Y-143057D01*
X151612Y-143149D01*
X153388D01*
X153854Y-143057D01*
X154249Y-142793D01*
X154513Y-142397D01*
X154606Y-141931D01*
Y-137400D01*
X154520Y-136969D01*
X154523Y-136918D01*
X154804Y-136469D01*
X154921D01*
Y-134311D01*
X156627Y-132605D01*
X157100Y-132839D01*
X157079Y-133000D01*
X161000D01*
Y-133500D01*
X161500D01*
Y-137421D01*
X162032Y-137351D01*
X162993Y-136953D01*
X163418Y-136627D01*
X163918Y-136873D01*
Y-153618D01*
X163538Y-154187D01*
X163376Y-155000D01*
X163538Y-155813D01*
X163998Y-156501D01*
X164687Y-156962D01*
X165500Y-157123D01*
X166313Y-156962D01*
X166510Y-156830D01*
X166951Y-157066D01*
Y-157944D01*
X165444Y-159451D01*
X164543D01*
Y-157528D01*
X162549D01*
Y-155500D01*
X162355Y-154525D01*
X161802Y-153698D01*
X159302Y-151198D01*
X158475Y-150645D01*
X157500Y-150451D01*
X145500D01*
X144525Y-150645D01*
X143698Y-151198D01*
X140698Y-154198D01*
X140145Y-155025D01*
X139951Y-156000D01*
Y-157238D01*
X139503Y-157460D01*
X139329Y-157326D01*
X139249Y-157207D01*
X138854Y-156943D01*
X138388Y-156851D01*
X137851D01*
X137500Y-156804D01*
X137149Y-156851D01*
X136612D01*
X136146Y-156943D01*
X136113Y-156965D01*
X135613Y-156698D01*
Y-152583D01*
X135493Y-151669D01*
X135140Y-150818D01*
X134579Y-150086D01*
X132815Y-148322D01*
X132494Y-147548D01*
X131860Y-146722D01*
X131035Y-146089D01*
X130260Y-145768D01*
X128496Y-144004D01*
X128034Y-143649D01*
X128204Y-143149D01*
X128388D01*
X128854Y-143057D01*
X129249Y-142793D01*
X129513Y-142397D01*
X129606Y-141931D01*
Y-137400D01*
X129513Y-136933D01*
X129249Y-136538D01*
X128854Y-136274D01*
X128446Y-136193D01*
X128495Y-135693D01*
X131505D01*
X131554Y-136193D01*
X131146Y-136274D01*
X130751Y-136538D01*
X130487Y-136933D01*
X130394Y-137400D01*
Y-141931D01*
X130487Y-142397D01*
X130751Y-142793D01*
X131146Y-143057D01*
X131612Y-143149D01*
X133388D01*
X133854Y-143057D01*
X134249Y-142793D01*
X134513Y-142397D01*
X134606Y-141931D01*
Y-137400D01*
X134513Y-136933D01*
X134249Y-136538D01*
X133854Y-136274D01*
X133446Y-136193D01*
X133495Y-135693D01*
X136472D01*
Y-122132D01*
X142566Y-116039D01*
X143028Y-116230D01*
D02*
G37*
%LPC*%
G36*
X160500Y-134000D02*
X157079D01*
X157149Y-134532D01*
X157547Y-135493D01*
X158181Y-136319D01*
X159007Y-136953D01*
X159968Y-137351D01*
X160500Y-137421D01*
Y-134000D01*
D02*
G37*
G36*
X137000Y-136181D02*
X136612D01*
X136146Y-136274D01*
X135751Y-136538D01*
X135487Y-136933D01*
X135394Y-137400D01*
Y-139165D01*
X137000D01*
Y-136181D01*
D02*
G37*
G36*
Y-140165D02*
X135394D01*
Y-141931D01*
X135487Y-142397D01*
X135751Y-142793D01*
X136146Y-143057D01*
X136612Y-143149D01*
X137000D01*
Y-140165D01*
D02*
G37*
%LPD*%
D16*
X42500Y-49500D02*
D03*
X116272Y-212500D02*
D03*
X32000Y-291000D02*
D03*
D17*
X53228Y-57000D02*
D03*
Y-52000D02*
D03*
Y-47000D02*
D03*
Y-42000D02*
D03*
X31772Y-57000D02*
D03*
Y-52000D02*
D03*
Y-47000D02*
D03*
Y-42000D02*
D03*
X127000Y-220000D02*
D03*
Y-215000D02*
D03*
Y-210000D02*
D03*
Y-205000D02*
D03*
X105543Y-220000D02*
D03*
Y-215000D02*
D03*
Y-210000D02*
D03*
Y-205000D02*
D03*
X21272Y-283500D02*
D03*
Y-288500D02*
D03*
Y-293500D02*
D03*
Y-298500D02*
D03*
X42728Y-283500D02*
D03*
Y-288500D02*
D03*
Y-293500D02*
D03*
Y-298500D02*
D03*
D18*
X115045Y-227244D02*
D03*
Y-232756D02*
D03*
X96500Y-297756D02*
D03*
Y-292244D02*
D03*
D19*
X132155Y-230000D02*
D03*
X120935D02*
D03*
D20*
X104982D02*
D03*
X97108Y-233740D02*
D03*
Y-226260D02*
D03*
D21*
X110045Y-233150D02*
D03*
Y-226850D02*
D03*
X31500Y-21150D02*
D03*
Y-14850D02*
D03*
X17000Y-43650D02*
D03*
Y-37350D02*
D03*
D22*
X183895Y-272000D02*
D03*
X125195D02*
D03*
D23*
X157709Y-119500D02*
D03*
X146291D02*
D03*
X104791Y-146500D02*
D03*
X116209D02*
D03*
X42291Y-33500D02*
D03*
X53709D02*
D03*
X61709Y-285500D02*
D03*
X50291D02*
D03*
X32906Y-307500D02*
D03*
X21094D02*
D03*
D24*
X145850Y-133500D02*
D03*
X152150D02*
D03*
X152150Y-127500D02*
D03*
X145850D02*
D03*
X104350Y-154500D02*
D03*
X110650D02*
D03*
X95650Y-280000D02*
D03*
X89350D02*
D03*
X182850Y-329000D02*
D03*
X189150D02*
D03*
X170850D02*
D03*
X177150D02*
D03*
X158746D02*
D03*
X165045D02*
D03*
X146850D02*
D03*
X153150D02*
D03*
X134850D02*
D03*
X141150D02*
D03*
X122850D02*
D03*
X129150D02*
D03*
X110850D02*
D03*
X117150D02*
D03*
X98850D02*
D03*
X105150D02*
D03*
X75045D02*
D03*
X81344D02*
D03*
X87045D02*
D03*
X93344D02*
D03*
X189150Y-323000D02*
D03*
X182850D02*
D03*
X177150D02*
D03*
X170850D02*
D03*
X165045D02*
D03*
X158746D02*
D03*
X153150D02*
D03*
X146850D02*
D03*
X141150D02*
D03*
X134850D02*
D03*
X129150D02*
D03*
X122850D02*
D03*
X117150D02*
D03*
X110850D02*
D03*
X105150D02*
D03*
X98850D02*
D03*
X93344D02*
D03*
X87045D02*
D03*
X81344D02*
D03*
X75045D02*
D03*
X63045Y-329000D02*
D03*
X69344D02*
D03*
X69344Y-323000D02*
D03*
X63045D02*
D03*
X152150Y-166500D02*
D03*
X145850D02*
D03*
D25*
X152500Y-139665D02*
D03*
X147500D02*
D03*
X142500D02*
D03*
X137500D02*
D03*
X132500D02*
D03*
X127500D02*
D03*
X122500D02*
D03*
X152500Y-160335D02*
D03*
X147500D02*
D03*
X142500D02*
D03*
X137500D02*
D03*
X132500D02*
D03*
X127500D02*
D03*
X122500D02*
D03*
D26*
X116500Y-154350D02*
D03*
Y-160650D02*
D03*
X24500Y-48150D02*
D03*
Y-41850D02*
D03*
X146000Y-172350D02*
D03*
Y-178650D02*
D03*
X98000Y-220650D02*
D03*
Y-214350D02*
D03*
D27*
X123000Y-168390D02*
D03*
Y-179610D02*
D03*
X109500Y-168390D02*
D03*
Y-179610D02*
D03*
X134045Y-198110D02*
D03*
Y-186890D02*
D03*
X136500Y-179610D02*
D03*
Y-168390D02*
D03*
D28*
X123045Y-186791D02*
D03*
Y-198209D02*
D03*
X51500Y-65095D02*
D03*
Y-76906D02*
D03*
X160000Y-160791D02*
D03*
Y-172209D02*
D03*
X114045Y-198209D02*
D03*
Y-186791D02*
D03*
X105045Y-198209D02*
D03*
Y-186791D02*
D03*
D29*
X151055Y-215000D02*
D03*
X182945D02*
D03*
D30*
X172028Y-186500D02*
D03*
X187972D02*
D03*
X66972Y-98500D02*
D03*
X51028D02*
D03*
D31*
X197917Y-20201D02*
D03*
D32*
Y-9295D02*
D03*
Y-31106D02*
D03*
D33*
X128000Y-66559D02*
D03*
X138000D02*
D03*
X148000D02*
D03*
X158000D02*
D03*
X168000D02*
D03*
X178000D02*
D03*
X128000Y-11441D02*
D03*
X138000D02*
D03*
X148000D02*
D03*
X158000D02*
D03*
X168000D02*
D03*
X178000D02*
D03*
D34*
X89000Y-11779D02*
D03*
Y-59220D02*
D03*
D35*
X5500Y-8783D02*
D03*
Y-21776D02*
D03*
X14650Y-21776D02*
D03*
Y-8783D02*
D03*
X23850Y-21776D02*
D03*
Y-8783D02*
D03*
D36*
X27000Y-28563D02*
D03*
X30740Y-36437D02*
D03*
X23260D02*
D03*
X80150Y-287937D02*
D03*
X76410Y-280063D02*
D03*
X83890D02*
D03*
D37*
X26016Y-57000D02*
D03*
X20504D02*
D03*
D38*
X32000Y-87752D02*
D03*
Y-69248D02*
D03*
D39*
X73721Y-135500D02*
D03*
X26280D02*
D03*
X73721Y-196000D02*
D03*
X26280D02*
D03*
D40*
X65697Y-252500D02*
D03*
X25303D02*
D03*
D41*
X95800Y-287500D02*
D03*
X89500D02*
D03*
D42*
X80500Y-269972D02*
D03*
Y-254028D02*
D03*
D43*
X38000Y-354445D02*
D03*
Y-322555D02*
D03*
D44*
X110000Y-128000D02*
D03*
Y-87606D02*
D03*
D45*
X67748Y-304500D02*
D03*
X86252D02*
D03*
D80*
X170457Y-31106D02*
X179405D01*
X132155Y-230000D02*
Y-229155D01*
X172000Y-255500D02*
X183895Y-267395D01*
X167500Y-190319D02*
X172028Y-185791D01*
X156825Y-246325D02*
Y-239499D01*
Y-246325D02*
X167500Y-235650D01*
X131150Y-272000D02*
X156825Y-246325D01*
X134045Y-198110D02*
X136610D01*
X139110Y-200610D01*
Y-202500D02*
Y-200610D01*
X123045Y-198209D02*
X133947D01*
X114045D02*
X123045D01*
X105045D02*
X114045D01*
X133947D02*
X134045Y-198110D01*
X97500Y-168390D02*
X109500D01*
X46228Y-302000D02*
X47000D01*
X42728Y-298500D02*
X46228Y-302000D01*
X183895Y-272000D02*
Y-267395D01*
X167500Y-235650D02*
Y-190319D01*
X160252Y-178748D02*
X168402D01*
X179000Y-168150D01*
X160000Y-179000D02*
X160252Y-178748D01*
X129041Y-149541D02*
X132083Y-152583D01*
X126000Y-146500D02*
X129041Y-149541D01*
X132083Y-157000D02*
Y-152583D01*
X116209Y-146500D02*
X126000D01*
X168000Y-19701D02*
X179405Y-31106D01*
X168000Y-19701D02*
Y-11441D01*
X125195Y-272000D02*
X131150D01*
X25303Y-244417D02*
X73721Y-196000D01*
X25303Y-252500D02*
Y-244417D01*
X26280Y-135500D02*
X40000D01*
X73721D02*
X81221Y-128000D01*
X110000D01*
X92074Y-99500D02*
X146000D01*
X53500Y-138074D02*
X92074Y-99500D01*
X53500Y-175779D02*
Y-138074D01*
Y-175779D02*
X73721Y-196000D01*
X41401Y-17150D02*
X48251Y-24000D01*
X76780D02*
X89000Y-11779D01*
X48251Y-24000D02*
X76780D01*
X51500Y-71000D02*
Y-65095D01*
X41945Y-322555D02*
X56000Y-308500D01*
X38000Y-322555D02*
X41945D01*
X56000Y-308500D02*
X56004D01*
X60004Y-304500D01*
X67748D01*
X34284Y-8783D02*
X41000Y-15500D01*
X23850Y-8783D02*
X34284D01*
X32906Y-317461D02*
X38000Y-322555D01*
X32906Y-317461D02*
Y-307500D01*
X41000Y-15500D02*
X41872D01*
X32000Y-69248D02*
X36154Y-65095D01*
X51500D01*
X53228Y-63366D01*
Y-57000D01*
X14650Y-8783D02*
X23850D01*
X109500Y-168390D02*
X123000D01*
X136500D01*
X137500Y-167390D01*
Y-160335D01*
D81*
X179405Y-31106D02*
X197917D01*
X132854Y-230000D02*
X138854Y-236000D01*
X132155Y-230000D02*
X132854D01*
X157709Y-119500D02*
X158709Y-120500D01*
X166000D01*
X159000Y-135500D02*
X161000Y-133500D01*
X159000Y-145500D02*
Y-135500D01*
X157500Y-147000D02*
X159000Y-145500D01*
X141000Y-147000D02*
X157500D01*
X137500Y-143500D02*
X141000Y-147000D01*
X137500Y-143500D02*
Y-139665D01*
X157709Y-121941D02*
Y-119500D01*
X152150Y-127500D02*
X157709Y-121941D01*
X132326Y-215000D02*
X156825Y-239499D01*
X131610Y-210000D02*
X139110Y-202500D01*
X127000Y-210000D02*
X131610D01*
X127000Y-215000D02*
X132326D01*
X132155Y-229155D02*
Y-224155D01*
X128000Y-220000D02*
X132155Y-224155D01*
X127000Y-220000D02*
X128000D01*
D82*
X153209Y-133500D02*
X157911Y-128797D01*
X152150Y-133500D02*
X153209D01*
X157911Y-128797D02*
X162948D01*
X165703Y-154797D02*
Y-131552D01*
X165500Y-155000D02*
X165703Y-154797D01*
X162948Y-128797D02*
X165703Y-131552D01*
X10000Y-280000D02*
X15250Y-274750D01*
X47000Y-310000D02*
X73000Y-284000D01*
X41000Y-310000D02*
X47000D01*
X7000Y-190500D02*
X11500Y-186000D01*
X26000D01*
X15250Y-274750D02*
Y-191250D01*
X15000Y-191000D02*
X15250Y-191250D01*
X23260Y-36437D02*
X24500Y-37677D01*
Y-41850D02*
Y-37677D01*
X2500Y-77250D02*
X4750Y-75000D01*
X73000Y-284000D02*
X91650D01*
X95800Y-287500D02*
X96500Y-288200D01*
Y-292244D02*
Y-288200D01*
X91650Y-284000D02*
X95650Y-280000D01*
X17500Y-293500D02*
X18500D01*
X21272D01*
X10000Y-290000D02*
Y-280000D01*
X79000Y-214500D02*
X98000D01*
X14575Y-30000D02*
X14650Y-29925D01*
X2500Y-77250D02*
X2500Y-322500D01*
X10000Y-330000D01*
X15500Y-305500D02*
Y-295500D01*
X11000Y-310000D02*
X15500Y-305500D01*
Y-295500D02*
X17500Y-293500D01*
X10000Y-310000D02*
X11000D01*
X24000Y-52500D02*
X24500Y-52000D01*
Y-48150D01*
X11500Y-30000D02*
X14575D01*
X5500Y-24000D02*
X11500Y-30000D01*
X5500Y-24000D02*
Y-21776D01*
X14575Y-30000D02*
X14650D01*
Y-29925D02*
Y-21776D01*
X10000Y-350000D02*
X22000Y-338000D01*
X40000D01*
X98000Y-214350D02*
X98650Y-215000D01*
X105543D01*
X97108Y-226260D02*
X98000Y-225368D01*
Y-220650D01*
X114651Y-233150D02*
X115045Y-232756D01*
X110045Y-233150D02*
X114651D01*
X104982Y-230000D02*
X108132Y-226850D01*
X110045D01*
X138000Y-76906D02*
Y-66559D01*
X128000Y-76982D02*
Y-66559D01*
X182850Y-323000D02*
Y-322486D01*
X175365Y-315000D02*
X182850Y-322486D01*
X152000Y-315000D02*
X175365D01*
X111500Y-160650D02*
X116500D01*
X152150Y-179150D02*
Y-166500D01*
Y-179150D02*
X152500Y-179500D01*
X138000Y-22500D02*
Y-11441D01*
X147500Y-68059D02*
X148500Y-67059D01*
X147500Y-91536D02*
Y-69059D01*
X148000Y-68559D01*
X147500Y-68059D02*
X148000Y-68559D01*
X168000Y-84000D02*
Y-66559D01*
X157500Y-84000D02*
Y-67059D01*
X158000Y-66559D01*
X148000D02*
X148500Y-67059D01*
X178000Y-76982D02*
Y-66559D01*
X170850Y-323000D02*
Y-318500D01*
X158746Y-323000D02*
Y-318500D01*
X146850Y-323000D02*
Y-318545D01*
X134850Y-323000D02*
Y-318500D01*
X122850Y-323000D02*
Y-318500D01*
X110850Y-323000D02*
Y-318545D01*
X98850Y-323000D02*
Y-318545D01*
X87045Y-323000D02*
Y-318545D01*
X75045Y-323000D02*
Y-318545D01*
X63045Y-323000D02*
Y-318500D01*
X89063Y-287937D02*
X89500Y-287500D01*
X80150Y-287937D02*
X89063D01*
X88563Y-280063D02*
X89500Y-281000D01*
X83890Y-280063D02*
X88563D01*
X24500Y-48150D02*
X28350Y-52000D01*
X31772D01*
X20244Y-58000D02*
Y-50244D01*
X17000Y-47000D02*
X20244Y-50244D01*
X17000Y-47000D02*
Y-43650D01*
Y-37350D02*
Y-34000D01*
X22437Y-28563D01*
X27000D01*
X116500Y-160650D02*
X116815Y-160335D01*
X122500D01*
X110000Y-154350D02*
X126350D01*
X127500Y-155500D01*
Y-160335D02*
Y-155500D01*
X152150Y-133500D02*
X152500Y-133850D01*
Y-139665D02*
Y-133850D01*
X145850Y-127500D02*
X145850Y-127500D01*
Y-133500D02*
Y-127500D01*
Y-133500D02*
X147500Y-135150D01*
Y-139665D02*
Y-135150D01*
X152150Y-166500D02*
X152500Y-166150D01*
Y-160335D01*
X145850Y-172500D02*
X145850Y-172500D01*
Y-166500D01*
X147500Y-164850D01*
Y-160335D01*
X63045Y-329000D02*
X63045Y-329000D01*
X63045Y-329000D02*
Y-323000D01*
X75045Y-329000D02*
X75045Y-329000D01*
X75045Y-329000D02*
Y-323000D01*
X87045Y-329000D02*
X87045Y-329000D01*
X87045Y-329000D02*
Y-323000D01*
X98850Y-329000D02*
X98850Y-329000D01*
X98850Y-329000D02*
Y-323000D01*
X110850Y-329000D02*
X110850Y-329000D01*
X110850Y-329000D02*
Y-323000D01*
X122850Y-329000D02*
X122850Y-329000D01*
X122850Y-329000D02*
Y-323000D01*
X134850Y-329000D02*
X134850Y-329000D01*
X134850Y-329000D02*
Y-323000D01*
X146850Y-329000D02*
X146850Y-329000D01*
X146850Y-329000D02*
Y-323000D01*
X158746Y-329000D02*
X158746Y-329000D01*
X158746Y-329000D02*
Y-323000D01*
X170850Y-329000D02*
X170850Y-329000D01*
X170850Y-329000D02*
Y-323000D01*
X182850Y-329000D02*
X182850Y-329000D01*
X182850Y-329000D02*
Y-323000D01*
X185500Y-347500D02*
X190203Y-342797D01*
Y-335552D01*
X189150Y-334499D02*
X190203Y-335552D01*
X189150Y-334499D02*
Y-329000D01*
X173500Y-347700D02*
X178203Y-342997D01*
Y-335752D01*
X177150Y-334699D02*
X178203Y-335752D01*
X177150Y-334699D02*
Y-329000D01*
X161500Y-347700D02*
X166203Y-342997D01*
Y-335752D01*
X165045Y-334594D02*
X166203Y-335752D01*
X165045Y-334594D02*
Y-329000D01*
X149500Y-347700D02*
X154203Y-342997D01*
Y-335752D01*
X153150Y-334699D02*
X154203Y-335752D01*
X153150Y-334699D02*
Y-329000D01*
X137500Y-347700D02*
X142203Y-342997D01*
Y-335752D01*
X141150Y-334699D02*
X142203Y-335752D01*
X141150Y-334699D02*
Y-329000D01*
X125500Y-347700D02*
X130203Y-342997D01*
Y-335752D01*
X129150Y-334699D02*
X130203Y-335752D01*
X129150Y-334699D02*
Y-329000D01*
X113500Y-347700D02*
X118203Y-342997D01*
Y-335752D01*
X117150Y-334699D02*
X118203Y-335752D01*
X117150Y-334699D02*
Y-329000D01*
X101500Y-347700D02*
X106203Y-342997D01*
Y-335752D01*
X105150Y-334699D02*
X106203Y-335752D01*
X105150Y-334699D02*
Y-329000D01*
X89694Y-347700D02*
X94397Y-342997D01*
Y-335752D01*
X93344Y-334699D02*
X94397Y-335752D01*
X93344Y-334699D02*
Y-329000D01*
X77694Y-347700D02*
X82397Y-342997D01*
Y-335752D01*
X81344Y-334699D02*
X82397Y-335752D01*
X81344Y-334699D02*
Y-329000D01*
X65694Y-347700D02*
X70397Y-342997D01*
Y-335752D01*
X69344Y-334699D02*
X70397Y-335752D01*
X69344Y-334699D02*
Y-329000D01*
D83*
X160000Y-162000D02*
X166500D01*
X169500Y-146000D02*
X179000Y-136500D01*
X169500Y-159000D02*
Y-146000D01*
X166500Y-162000D02*
X169500Y-159000D01*
X179000Y-136500D02*
Y-129291D01*
X65697Y-255169D02*
Y-252500D01*
Y-255169D02*
X80500Y-269972D01*
X160000Y-160791D02*
Y-155500D01*
Y-162000D02*
Y-160791D01*
X142500Y-160335D02*
Y-156000D01*
X145500Y-153000D01*
X157500D01*
X160000Y-155500D01*
X168500Y-97291D02*
X179500D01*
X146291Y-119500D02*
X168500Y-97291D01*
X141579Y-124213D02*
X146291Y-119500D01*
X141579Y-136504D02*
Y-124213D01*
Y-136504D02*
X142500Y-137425D01*
Y-139665D02*
Y-137425D01*
X110000Y-128000D02*
X127000D01*
X167417Y-87583D01*
X179209D01*
X179500Y-87291D01*
X46791Y-288500D02*
X50291Y-285000D01*
X42728Y-288500D02*
X46791D01*
X56000Y-291500D02*
Y-262197D01*
X65697Y-252500D01*
X54000Y-293500D02*
X56000Y-291500D01*
X42728Y-293500D02*
X54000D01*
X81894Y-87606D02*
X110000D01*
X71000Y-98500D02*
X81894Y-87606D01*
X66972Y-98500D02*
X71000D01*
X66972D02*
Y-59472D01*
X53228Y-52000D02*
X59500D01*
X66972Y-59472D01*
X54500Y-33500D02*
X59000Y-38000D01*
X53228Y-47000D02*
X57500D01*
X59000Y-45500D02*
Y-38000D01*
X57500Y-47000D02*
X59000Y-45500D01*
D84*
X105543Y-221500D02*
X113272D01*
X25756Y-58000D02*
X26756Y-57000D01*
X180201Y-20201D02*
X199417D01*
X178000Y-18000D02*
X180201Y-20201D01*
X178000Y-18000D02*
Y-11441D01*
X22516Y-298500D02*
X26016Y-302000D01*
X21272Y-298500D02*
X22516D01*
X96500Y-297756D02*
X100740Y-301996D01*
X105543Y-221500D02*
Y-220000D01*
X113272Y-221500D02*
X115045Y-223273D01*
Y-227244D02*
Y-223273D01*
X35500Y-57000D02*
X38500Y-60000D01*
X31772Y-57000D02*
X35500D01*
X148000Y-11441D02*
Y-10000D01*
X26756Y-57000D02*
X31772D01*
X30874Y-21776D02*
X31500Y-21150D01*
X23850Y-21776D02*
X30874D01*
X14650Y-21776D02*
X14650Y-21776D01*
D85*
X116477Y-212515D02*
D03*
X31977Y-291015D02*
D03*
X42477Y-49515D02*
D03*
D86*
X200000Y-340000D02*
D03*
Y-330000D02*
D03*
Y-320000D02*
D03*
Y-310000D02*
D03*
Y-300000D02*
D03*
Y-290000D02*
D03*
Y-280000D02*
D03*
Y-270000D02*
D03*
Y-250000D02*
D03*
Y-240000D02*
D03*
Y-230000D02*
D03*
Y-220000D02*
D03*
Y-210000D02*
D03*
Y-200000D02*
D03*
Y-190000D02*
D03*
Y-180000D02*
D03*
X10000Y-110000D02*
D03*
Y-120000D02*
D03*
Y-130000D02*
D03*
Y-140000D02*
D03*
Y-150000D02*
D03*
Y-160000D02*
D03*
Y-170000D02*
D03*
Y-180000D02*
D03*
Y-200000D02*
D03*
Y-210000D02*
D03*
Y-220000D02*
D03*
Y-230000D02*
D03*
Y-240000D02*
D03*
Y-250000D02*
D03*
Y-260000D02*
D03*
Y-270000D02*
D03*
Y-290000D02*
D03*
Y-300000D02*
D03*
Y-310000D02*
D03*
Y-320000D02*
D03*
Y-330000D02*
D03*
Y-340000D02*
D03*
Y-350000D02*
D03*
Y-360000D02*
D03*
X30000Y-380000D02*
D03*
X40000D02*
D03*
X50000D02*
D03*
X60000D02*
D03*
X70000D02*
D03*
X80000D02*
D03*
X90000D02*
D03*
X100000D02*
D03*
X110000D02*
D03*
X120000D02*
D03*
X130000D02*
D03*
X140000D02*
D03*
X150000D02*
D03*
X160000D02*
D03*
X170000D02*
D03*
X180000D02*
D03*
X190000D02*
D03*
X30000Y-370000D02*
D03*
X40000D02*
D03*
X50000D02*
D03*
X60000D02*
D03*
X70000D02*
D03*
X80000D02*
D03*
X90000D02*
D03*
X100000D02*
D03*
X110000D02*
D03*
X200000Y-380000D02*
D03*
X120000Y-370000D02*
D03*
X130000D02*
D03*
X140000D02*
D03*
X150000D02*
D03*
X160000D02*
D03*
X170000D02*
D03*
X180000D02*
D03*
X190000D02*
D03*
X200000D02*
D03*
Y-164000D02*
D03*
Y-154000D02*
D03*
Y-74000D02*
D03*
Y-84000D02*
D03*
Y-94000D02*
D03*
Y-104000D02*
D03*
Y-114000D02*
D03*
Y-124000D02*
D03*
Y-134000D02*
D03*
Y-144000D02*
D03*
D87*
X179000Y-158150D02*
D03*
Y-119291D02*
D03*
X179500Y-87291D02*
D03*
X41000Y-15500D02*
D03*
D88*
X179000Y-168150D02*
D03*
Y-129291D02*
D03*
X179500Y-97291D02*
D03*
D89*
X51000Y-15500D02*
D03*
D90*
X65694Y-357700D02*
D03*
X77694D02*
D03*
X89694D02*
D03*
X101500D02*
D03*
X113500D02*
D03*
X125500D02*
D03*
X137500D02*
D03*
X149500D02*
D03*
X161500D02*
D03*
X173500D02*
D03*
X185500Y-357500D02*
D03*
D91*
X65694Y-347700D02*
D03*
Y-337700D02*
D03*
X77694Y-347700D02*
D03*
Y-337700D02*
D03*
X89694Y-347700D02*
D03*
Y-337700D02*
D03*
X101500Y-347700D02*
D03*
Y-337700D02*
D03*
X113500Y-347700D02*
D03*
Y-337700D02*
D03*
X125500Y-347700D02*
D03*
Y-337700D02*
D03*
X137500Y-347700D02*
D03*
Y-337700D02*
D03*
X149500Y-347700D02*
D03*
Y-337700D02*
D03*
X161500Y-347700D02*
D03*
Y-337700D02*
D03*
X173500Y-347700D02*
D03*
Y-337700D02*
D03*
X185500Y-347500D02*
D03*
Y-337500D02*
D03*
X170457Y-31106D02*
D03*
X138854Y-236000D02*
D03*
X166000Y-120500D02*
D03*
X161000Y-133500D02*
D03*
X172000Y-255500D02*
D03*
X97500Y-168390D02*
D03*
X56000Y-308500D02*
D03*
X47000Y-302000D02*
D03*
X176000Y-215500D02*
D03*
X160000Y-179000D02*
D03*
X129041Y-149541D02*
D03*
X97000Y-150000D02*
D03*
D92*
X200000Y-60000D02*
D03*
X10000Y-380000D02*
D03*
X200000Y-355000D02*
D03*
X10000Y-55000D02*
D03*
D93*
X165500Y-155000D02*
D03*
X40335Y-53831D02*
D03*
X44665D02*
D03*
X40335Y-49500D02*
D03*
X44665D02*
D03*
X40335Y-45169D02*
D03*
X44665D02*
D03*
X114106Y-208169D02*
D03*
X118437D02*
D03*
X114106Y-212500D02*
D03*
X118437D02*
D03*
X114106Y-216831D02*
D03*
X118437D02*
D03*
X34165Y-295331D02*
D03*
X29835D02*
D03*
X34165Y-291000D02*
D03*
X29835D02*
D03*
X34165Y-286669D02*
D03*
X29835D02*
D03*
X26016Y-302000D02*
D03*
X26000Y-186000D02*
D03*
X15000Y-191000D02*
D03*
X40000Y-135500D02*
D03*
X146000Y-99500D02*
D03*
X51500Y-71000D02*
D03*
X100740Y-301996D02*
D03*
X113272Y-221500D02*
D03*
X7850Y-90650D02*
D03*
X38500Y-60000D02*
D03*
X148000Y-10000D02*
D03*
X4750Y-75000D02*
D03*
X41000Y-310000D02*
D03*
X79000Y-214500D02*
D03*
X7000Y-190500D02*
D03*
X24000Y-52500D02*
D03*
X14650Y-30000D02*
D03*
X40000Y-338000D02*
D03*
X138000Y-76906D02*
D03*
X128000Y-76982D02*
D03*
X152000Y-315000D02*
D03*
X111500Y-160650D02*
D03*
X152500Y-179500D02*
D03*
X138000Y-22500D02*
D03*
X147500Y-91536D02*
D03*
X168000Y-84000D02*
D03*
X157500D02*
D03*
X178000Y-76982D02*
D03*
X170850Y-318500D02*
D03*
X158746D02*
D03*
X146850Y-318545D02*
D03*
X134850Y-318500D02*
D03*
X122850D02*
D03*
X110850Y-318545D02*
D03*
X98850D02*
D03*
X87045D02*
D03*
X75045D02*
D03*
X63045Y-318500D02*
D03*
M02*
