G04*
G04 #@! TF.GenerationSoftware,Altium Limited,Altium Designer,18.1.11 (251)*
G04*
G04 Layer_Color=8421504*
%FSLAX25Y25*%
%MOIN*%
G70*
G01*
G75*
%ADD16R,0.09449X0.12205*%
%ADD17R,0.05709X0.02362*%
%ADD18R,0.03543X0.02756*%
%ADD19R,0.04921X0.10433*%
%ADD20R,0.03543X0.03150*%
%ADD21R,0.03150X0.03150*%
%ADD22R,0.14370X0.68268*%
%ADD23R,0.04528X0.07087*%
%ADD24R,0.03543X0.03937*%
G04:AMPARAMS|DCode=25|XSize=21.65mil|YSize=49.21mil|CornerRadius=1.95mil|HoleSize=0mil|Usage=FLASHONLY|Rotation=180.000|XOffset=0mil|YOffset=0mil|HoleType=Round|Shape=RoundedRectangle|*
%AMROUNDEDRECTD25*
21,1,0.02165,0.04532,0,0,180.0*
21,1,0.01776,0.04921,0,0,180.0*
1,1,0.00390,-0.00888,0.02266*
1,1,0.00390,0.00888,0.02266*
1,1,0.00390,0.00888,-0.02266*
1,1,0.00390,-0.00888,-0.02266*
%
%ADD25ROUNDEDRECTD25*%
%ADD26R,0.03937X0.03543*%
%ADD27R,0.10433X0.04921*%
%ADD28R,0.07087X0.04528*%
%ADD29R,0.17323X0.10236*%
%ADD30R,0.07008X0.08504*%
%ADD31R,0.19685X0.04724*%
%ADD32R,0.19685X0.06299*%
%ADD33R,0.04724X0.13780*%
%ADD34R,0.10039X0.15354*%
%ADD35R,0.06496X0.02756*%
%ADD36R,0.03150X0.03543*%
%ADD37R,0.02756X0.03543*%
%ADD38R,0.07087X0.13780*%
%ADD39R,0.15354X0.10039*%
%ADD40R,0.13386X0.50945*%
%ADD41R,0.03150X0.03150*%
%ADD42R,0.08504X0.07008*%
%ADD43R,0.10236X0.17323*%
%ADD44R,0.50945X0.13386*%
%ADD45R,0.13780X0.07087*%
D16*
X42500Y-49500D02*
D03*
X116272Y-212500D02*
D03*
X32000Y-291000D02*
D03*
D17*
X53228Y-57000D02*
D03*
Y-52000D02*
D03*
Y-47000D02*
D03*
Y-42000D02*
D03*
X31772Y-57000D02*
D03*
Y-52000D02*
D03*
Y-47000D02*
D03*
Y-42000D02*
D03*
X127000Y-220000D02*
D03*
Y-215000D02*
D03*
Y-210000D02*
D03*
Y-205000D02*
D03*
X105543Y-220000D02*
D03*
Y-215000D02*
D03*
Y-210000D02*
D03*
Y-205000D02*
D03*
X21272Y-283500D02*
D03*
Y-288500D02*
D03*
Y-293500D02*
D03*
Y-298500D02*
D03*
X42728Y-283500D02*
D03*
Y-288500D02*
D03*
Y-293500D02*
D03*
Y-298500D02*
D03*
D18*
X115045Y-227244D02*
D03*
Y-232756D02*
D03*
X96500Y-297756D02*
D03*
Y-292244D02*
D03*
D19*
X132155Y-230000D02*
D03*
X120935D02*
D03*
D20*
X104982D02*
D03*
X97108Y-233740D02*
D03*
Y-226260D02*
D03*
D21*
X110045Y-233150D02*
D03*
Y-226850D02*
D03*
X31500Y-21150D02*
D03*
Y-14850D02*
D03*
X17000Y-43650D02*
D03*
Y-37350D02*
D03*
D22*
X183895Y-272000D02*
D03*
X125195D02*
D03*
D23*
X157709Y-119500D02*
D03*
X146291D02*
D03*
X104791Y-146500D02*
D03*
X116209D02*
D03*
X42291Y-33500D02*
D03*
X53709D02*
D03*
X61709Y-285500D02*
D03*
X50291D02*
D03*
X32906Y-307500D02*
D03*
X21094D02*
D03*
D24*
X145850Y-133500D02*
D03*
X152150D02*
D03*
X152150Y-127500D02*
D03*
X145850D02*
D03*
X104350Y-154500D02*
D03*
X110650D02*
D03*
X95650Y-280000D02*
D03*
X89350D02*
D03*
X182850Y-329000D02*
D03*
X189150D02*
D03*
X170850D02*
D03*
X177150D02*
D03*
X158746D02*
D03*
X165045D02*
D03*
X146850D02*
D03*
X153150D02*
D03*
X134850D02*
D03*
X141150D02*
D03*
X122850D02*
D03*
X129150D02*
D03*
X110850D02*
D03*
X117150D02*
D03*
X98850D02*
D03*
X105150D02*
D03*
X75045D02*
D03*
X81344D02*
D03*
X87045D02*
D03*
X93344D02*
D03*
X189150Y-323000D02*
D03*
X182850D02*
D03*
X177150D02*
D03*
X170850D02*
D03*
X165045D02*
D03*
X158746D02*
D03*
X153150D02*
D03*
X146850D02*
D03*
X141150D02*
D03*
X134850D02*
D03*
X129150D02*
D03*
X122850D02*
D03*
X117150D02*
D03*
X110850D02*
D03*
X105150D02*
D03*
X98850D02*
D03*
X93344D02*
D03*
X87045D02*
D03*
X81344D02*
D03*
X75045D02*
D03*
X63045Y-329000D02*
D03*
X69344D02*
D03*
X69344Y-323000D02*
D03*
X63045D02*
D03*
X152150Y-166500D02*
D03*
X145850D02*
D03*
D25*
X152500Y-139665D02*
D03*
X147500D02*
D03*
X142500D02*
D03*
X137500D02*
D03*
X132500D02*
D03*
X127500D02*
D03*
X122500D02*
D03*
X152500Y-160335D02*
D03*
X147500D02*
D03*
X142500D02*
D03*
X137500D02*
D03*
X132500D02*
D03*
X127500D02*
D03*
X122500D02*
D03*
D26*
X116500Y-154350D02*
D03*
Y-160650D02*
D03*
X24500Y-48150D02*
D03*
Y-41850D02*
D03*
X146000Y-172350D02*
D03*
Y-178650D02*
D03*
X98000Y-220650D02*
D03*
Y-214350D02*
D03*
D27*
X123000Y-168390D02*
D03*
Y-179610D02*
D03*
X109500Y-168390D02*
D03*
Y-179610D02*
D03*
X134045Y-198110D02*
D03*
Y-186890D02*
D03*
X136500Y-179610D02*
D03*
Y-168390D02*
D03*
D28*
X123045Y-186791D02*
D03*
Y-198209D02*
D03*
X51500Y-65095D02*
D03*
Y-76906D02*
D03*
X160000Y-160791D02*
D03*
Y-172209D02*
D03*
X114045Y-198209D02*
D03*
Y-186791D02*
D03*
X105045Y-198209D02*
D03*
Y-186791D02*
D03*
D29*
X151055Y-215000D02*
D03*
X182945D02*
D03*
D30*
X172028Y-186500D02*
D03*
X187972D02*
D03*
X66972Y-98500D02*
D03*
X51028D02*
D03*
D31*
X197917Y-20201D02*
D03*
D32*
Y-9295D02*
D03*
Y-31106D02*
D03*
D33*
X128000Y-66559D02*
D03*
X138000D02*
D03*
X148000D02*
D03*
X158000D02*
D03*
X168000D02*
D03*
X178000D02*
D03*
X128000Y-11441D02*
D03*
X138000D02*
D03*
X148000D02*
D03*
X158000D02*
D03*
X168000D02*
D03*
X178000D02*
D03*
D34*
X89000Y-11779D02*
D03*
Y-59220D02*
D03*
D35*
X5500Y-8783D02*
D03*
Y-21776D02*
D03*
X14650Y-21776D02*
D03*
Y-8783D02*
D03*
X23850Y-21776D02*
D03*
Y-8783D02*
D03*
D36*
X27000Y-28563D02*
D03*
X30740Y-36437D02*
D03*
X23260D02*
D03*
X80150Y-287937D02*
D03*
X76410Y-280063D02*
D03*
X83890D02*
D03*
D37*
X26016Y-57000D02*
D03*
X20504D02*
D03*
D38*
X32000Y-87752D02*
D03*
Y-69248D02*
D03*
D39*
X73721Y-135500D02*
D03*
X26280D02*
D03*
X73721Y-196000D02*
D03*
X26280D02*
D03*
D40*
X65697Y-252500D02*
D03*
X25303D02*
D03*
D41*
X95800Y-287500D02*
D03*
X89500D02*
D03*
D42*
X80500Y-269972D02*
D03*
Y-254028D02*
D03*
D43*
X38000Y-354445D02*
D03*
Y-322555D02*
D03*
D44*
X110000Y-128000D02*
D03*
Y-87606D02*
D03*
D45*
X67748Y-304500D02*
D03*
X86252D02*
D03*
M02*
