G04*
G04 #@! TF.GenerationSoftware,Altium Limited,Altium Designer,18.1.11 (251)*
G04*
G04 Layer_Color=32768*
%FSLAX25Y25*%
%MOIN*%
G70*
G01*
G75*
%ADD12C,0.00394*%
%ADD13C,0.00787*%
%ADD95C,0.00197*%
D12*
X40532Y-49500D02*
X44469D01*
X42500Y-51468D02*
Y-47532D01*
X114303Y-212500D02*
X118240D01*
X116272Y-214469D02*
Y-210531D01*
X124576Y-230000D02*
X128513D01*
X126545Y-231968D02*
Y-228031D01*
X99076Y-230000D02*
X103013D01*
X101045Y-231968D02*
Y-228031D01*
X107486Y-223996D02*
X112604D01*
X107486Y-236004D02*
X112604D01*
Y-223996D01*
X107486Y-236004D02*
Y-223996D01*
X110045Y-231772D02*
Y-228228D01*
X108273Y-230000D02*
X111817D01*
X152576Y-272000D02*
X156513D01*
X154545Y-273969D02*
Y-270031D01*
X152000Y-121468D02*
Y-117532D01*
X150031Y-119500D02*
X153969D01*
X137500Y-151969D02*
Y-148031D01*
X135531Y-150000D02*
X139469D01*
X110500Y-148468D02*
Y-144532D01*
X108531Y-146500D02*
X112469D01*
X123000Y-175969D02*
Y-172031D01*
X121031Y-174000D02*
X124969D01*
X109500Y-175969D02*
Y-172031D01*
X107531Y-174000D02*
X111469D01*
X121076Y-192500D02*
X125013D01*
X123045Y-194468D02*
Y-190532D01*
X134045Y-194468D02*
Y-190532D01*
X132076Y-192500D02*
X136013D01*
X165032Y-215000D02*
X168968D01*
X167000Y-216968D02*
Y-213032D01*
X179000Y-165118D02*
Y-161181D01*
X177032Y-163150D02*
X180968D01*
X179000Y-126260D02*
Y-122323D01*
X177032Y-124291D02*
X180968D01*
X179500Y-94260D02*
Y-90323D01*
X177532Y-92291D02*
X181468D01*
X153000Y-40968D02*
Y-37031D01*
X151031Y-39000D02*
X154969D01*
X89000Y-37468D02*
Y-33531D01*
X87032Y-35500D02*
X90969D01*
X3531Y-15280D02*
X7468D01*
X5500Y-17248D02*
Y-13311D01*
X12681Y-15280D02*
X16618D01*
X14650Y-17248D02*
Y-13311D01*
X21882Y-15280D02*
X25819D01*
X23850Y-17248D02*
Y-13311D01*
X28941Y-11996D02*
X34059D01*
X28941Y-24004D02*
X34059D01*
Y-11996D01*
X28941Y-24004D02*
Y-11996D01*
X31500Y-19772D02*
Y-16228D01*
X29728Y-18000D02*
X33272D01*
X46000Y-17469D02*
Y-13532D01*
X44032Y-15500D02*
X47969D01*
X48000Y-35469D02*
Y-31532D01*
X46031Y-33500D02*
X49968D01*
X27000Y-34468D02*
Y-30531D01*
X25032Y-32500D02*
X28969D01*
X14441Y-34496D02*
X19559D01*
X14441Y-46504D02*
X19559D01*
Y-34496D01*
X14441Y-46504D02*
Y-34496D01*
X17000Y-42272D02*
Y-38728D01*
X15228Y-40500D02*
X18772D01*
X51500Y-72969D02*
Y-69032D01*
X49531Y-71000D02*
X53469D01*
X32000Y-80468D02*
Y-76531D01*
X30031Y-78500D02*
X33968D01*
X50000Y-137469D02*
Y-133531D01*
X48031Y-135500D02*
X51968D01*
X50000Y-197968D02*
Y-194032D01*
X48031Y-196000D02*
X51968D01*
X45500Y-254468D02*
Y-250532D01*
X43532Y-252500D02*
X47469D01*
X86646Y-290059D02*
Y-284941D01*
X98654Y-290059D02*
Y-284941D01*
X86646D02*
X98654D01*
X86646Y-290059D02*
X98654D01*
X90878Y-287500D02*
X94422D01*
X92650Y-289272D02*
Y-285728D01*
X80150Y-285968D02*
Y-282031D01*
X78181Y-284000D02*
X82118D01*
X56000Y-287469D02*
Y-283531D01*
X54031Y-285500D02*
X57968D01*
X32000Y-292969D02*
Y-289032D01*
X30031Y-291000D02*
X33968D01*
X25032Y-307500D02*
X28969D01*
X27000Y-309469D02*
Y-305532D01*
X38000Y-340469D02*
Y-336531D01*
X36031Y-338500D02*
X39968D01*
X110000Y-109772D02*
Y-105835D01*
X108031Y-107803D02*
X111969D01*
X160000Y-168468D02*
Y-164532D01*
X158031Y-166500D02*
X161969D01*
X114045Y-194468D02*
Y-190532D01*
X112076Y-192500D02*
X116013D01*
X105045Y-194468D02*
Y-190532D01*
X103076Y-192500D02*
X107013D01*
X134531Y-174000D02*
X138469D01*
X136500Y-175969D02*
Y-172031D01*
X77000Y-306469D02*
Y-302532D01*
X75032Y-304500D02*
X78969D01*
D13*
X168130Y-192642D02*
Y-180358D01*
Y-192642D02*
X191870D01*
Y-180358D01*
X168130D02*
X191870D01*
X186913Y-4984D02*
X246402D01*
X186913Y-35417D02*
Y-4984D01*
Y-35417D02*
X246402D01*
Y-4984D01*
X70870Y-104642D02*
Y-92358D01*
X47130D02*
X70870D01*
X47130Y-104642D02*
Y-92358D01*
Y-104642D02*
X70870D01*
X74358Y-273870D02*
X86642D01*
Y-250130D01*
X74358D02*
X86642D01*
X74358Y-273870D02*
Y-250130D01*
D95*
X27933Y-60327D02*
Y-38673D01*
X57067Y-60327D02*
Y-38673D01*
X27933D02*
X57067D01*
X27933Y-60327D02*
X57067D01*
X101705Y-223327D02*
Y-201673D01*
X130839Y-223327D02*
Y-201673D01*
X101705D02*
X130839D01*
X101705Y-223327D02*
X130839D01*
X112880Y-234528D02*
X117210D01*
X112880Y-225472D02*
X117210D01*
X112880Y-234528D02*
Y-225472D01*
X117210Y-234528D02*
Y-225472D01*
X115045Y-231870D02*
Y-228130D01*
X113175Y-230000D02*
X116915D01*
X117490Y-236299D02*
Y-223701D01*
X135600Y-236299D02*
Y-223701D01*
X117490D02*
X135600D01*
X117490Y-236299D02*
X135600D01*
X94942Y-236142D02*
Y-223858D01*
X107147Y-236142D02*
Y-223858D01*
X94942D02*
X107147D01*
X94942Y-236142D02*
X107147D01*
X116946Y-307236D02*
Y-236764D01*
X192143Y-307236D02*
Y-236764D01*
X116946D02*
X192143D01*
X116946Y-307236D02*
X192143D01*
X142945Y-114972D02*
X161055D01*
X142945Y-124028D02*
X161055D01*
X142945D02*
Y-114972D01*
X161055Y-124028D02*
Y-114972D01*
X149000Y-135370D02*
Y-131630D01*
X147130Y-133500D02*
X150870D01*
X143095Y-136453D02*
X154905D01*
X143095Y-130547D02*
X154905D01*
Y-136453D02*
Y-130547D01*
X143095Y-136453D02*
Y-130547D01*
X149000Y-129370D02*
Y-125630D01*
X147130Y-127500D02*
X150870D01*
X143095Y-124547D02*
X154905D01*
X143095Y-130453D02*
X154905D01*
X143095D02*
Y-124547D01*
X154905Y-130453D02*
Y-124547D01*
X119882Y-163189D02*
X155118D01*
X119882Y-136811D02*
X155118D01*
X119882Y-163189D02*
Y-136811D01*
X155118Y-163189D02*
Y-136811D01*
X101445Y-151028D02*
X119555D01*
X101445Y-141972D02*
X119555D01*
Y-151028D02*
Y-141972D01*
X101445Y-151028D02*
Y-141972D01*
X114630Y-157500D02*
X118370D01*
X116500Y-159370D02*
Y-155630D01*
X113547Y-163406D02*
Y-151594D01*
X119453Y-163406D02*
Y-151594D01*
X113547Y-163406D02*
X119453D01*
X113547Y-151594D02*
X119453D01*
X107500Y-156370D02*
Y-152630D01*
X105630Y-154500D02*
X109370D01*
X101594Y-157453D02*
X113406D01*
X101594Y-151547D02*
X113406D01*
Y-157453D02*
Y-151547D01*
X101594Y-157453D02*
Y-151547D01*
X116701Y-183055D02*
X129299D01*
X116701Y-164945D02*
X129299D01*
X116701Y-183055D02*
Y-164945D01*
X129299Y-183055D02*
Y-164945D01*
X103201Y-183055D02*
X115799D01*
X103201Y-164945D02*
X115799D01*
X103201Y-183055D02*
Y-164945D01*
X115799Y-183055D02*
Y-164945D01*
X118517Y-201555D02*
Y-183445D01*
X127573Y-201555D02*
Y-183445D01*
X118517Y-201555D02*
X127573D01*
X118517Y-183445D02*
X127573D01*
X127746D02*
X140344D01*
X127746Y-201555D02*
X140344D01*
Y-183445D01*
X127746Y-201555D02*
Y-183445D01*
X192400Y-236700D02*
Y-193300D01*
X141500Y-236700D02*
Y-193300D01*
Y-236700D02*
X192400D01*
X141500Y-193300D02*
X192400D01*
X166402Y-174449D02*
X191598D01*
X166402D02*
Y-151850D01*
X191598D01*
Y-174449D02*
Y-151850D01*
X166402Y-135591D02*
X191598D01*
X166402D02*
Y-112992D01*
X191598D01*
Y-135591D02*
Y-112992D01*
X166902Y-103591D02*
X192098D01*
X166902D02*
Y-80992D01*
X192098D01*
Y-103591D02*
Y-80992D01*
X120520Y-3488D02*
X185480D01*
X120520Y-74512D02*
X185480D01*
Y-3488D01*
X120520Y-74512D02*
Y-3488D01*
X59079Y-2900D02*
X118921D01*
X59079Y-68100D02*
X118921D01*
Y-2900D01*
X59079Y-68100D02*
Y-2900D01*
X1169Y-24138D02*
Y-6421D01*
X9831Y-24138D02*
Y-6421D01*
X1169Y-24138D02*
X9831D01*
X1169Y-6421D02*
X9831D01*
X18980Y-24138D02*
Y-6421D01*
X10319Y-24138D02*
Y-6421D01*
X18980D01*
X10319Y-24138D02*
X18980D01*
X28181D02*
Y-6421D01*
X19520Y-24138D02*
Y-6421D01*
X28181D01*
X19520Y-24138D02*
X28181D01*
X34701Y-2902D02*
X57299D01*
X34701Y-28098D02*
Y-2902D01*
Y-28098D02*
X57299D01*
Y-2902D01*
X38945Y-38028D02*
X57055D01*
X38945Y-28972D02*
X57055D01*
Y-38028D02*
Y-28972D01*
X38945Y-38028D02*
Y-28972D01*
X20858Y-38602D02*
X33142D01*
X20858Y-26398D02*
X33142D01*
X20858Y-38602D02*
Y-26398D01*
X33142Y-38602D02*
Y-26398D01*
X22630Y-45000D02*
X26370D01*
X24500Y-46870D02*
Y-43130D01*
X27453Y-50906D02*
Y-39094D01*
X21547Y-50906D02*
Y-39094D01*
X27453D01*
X21547Y-50906D02*
X27453D01*
X18732Y-59165D02*
Y-54835D01*
X27787Y-59165D02*
Y-54835D01*
X18732D02*
X27787D01*
X18732Y-59165D02*
X27787D01*
X21390Y-57000D02*
X25130D01*
X23260Y-58870D02*
Y-55130D01*
X46972Y-80252D02*
X56028D01*
X46972Y-61748D02*
X56028D01*
X46972Y-80252D02*
Y-61748D01*
X56028Y-80252D02*
Y-61748D01*
X18000Y-61700D02*
X46100D01*
X18000Y-95200D02*
X46100D01*
Y-61700D01*
X18000Y-95200D02*
Y-61700D01*
X17400Y-105579D02*
X82600D01*
X17400Y-165421D02*
X82600D01*
X17400D02*
Y-105579D01*
X82600Y-165421D02*
Y-105579D01*
X17400Y-166079D02*
X82600D01*
X17400Y-225921D02*
X82600D01*
X17400D02*
Y-166079D01*
X82600Y-225921D02*
Y-166079D01*
X17547Y-225925D02*
X73453D01*
X17547Y-279075D02*
X73453D01*
X17547D02*
Y-225925D01*
X73453Y-279075D02*
Y-225925D01*
X94335Y-290472D02*
X98665D01*
X94335Y-299528D02*
X98665D01*
Y-290472D01*
X94335Y-299528D02*
Y-290472D01*
X96500Y-296870D02*
Y-293130D01*
X94630Y-295000D02*
X98370D01*
X92500Y-281870D02*
Y-278130D01*
X90630Y-280000D02*
X94370D01*
X86594Y-277047D02*
X98405D01*
X86594Y-282953D02*
X98405D01*
X86594D02*
Y-277047D01*
X98405Y-282953D02*
Y-277047D01*
X74008Y-277898D02*
X86292D01*
X74008Y-290102D02*
X86292D01*
Y-277898D01*
X74008Y-290102D02*
Y-277898D01*
X46945Y-280972D02*
X65055D01*
X46945Y-290028D02*
X65055D01*
X46945D02*
Y-280972D01*
X65055Y-290028D02*
Y-280972D01*
X17433Y-301827D02*
X46567D01*
X17433Y-280173D02*
X46567D01*
Y-301827D02*
Y-280173D01*
X17433Y-301827D02*
Y-280173D01*
X17748Y-312028D02*
Y-302972D01*
X36252Y-312028D02*
Y-302972D01*
X17748D02*
X36252D01*
X17748Y-312028D02*
X36252D01*
X16300Y-313100D02*
X59700D01*
X16300Y-364000D02*
X59700D01*
Y-313100D01*
X16300Y-364000D02*
Y-313100D01*
X186000Y-330870D02*
Y-327130D01*
X184130Y-329000D02*
X187870D01*
X180095Y-331953D02*
X191905D01*
X180095Y-326047D02*
X191905D01*
Y-331953D02*
Y-326047D01*
X180095Y-331953D02*
Y-326047D01*
X174000Y-330870D02*
Y-327130D01*
X172130Y-329000D02*
X175870D01*
X168095Y-331953D02*
X179905D01*
X168095Y-326047D02*
X179905D01*
Y-331953D02*
Y-326047D01*
X168095Y-331953D02*
Y-326047D01*
X161895Y-330870D02*
Y-327130D01*
X160025Y-329000D02*
X163765D01*
X155990Y-331953D02*
X167801D01*
X155990Y-326047D02*
X167801D01*
Y-331953D02*
Y-326047D01*
X155990Y-331953D02*
Y-326047D01*
X150000Y-330870D02*
Y-327130D01*
X148130Y-329000D02*
X151870D01*
X144095Y-331953D02*
X155905D01*
X144095Y-326047D02*
X155905D01*
Y-331953D02*
Y-326047D01*
X144095Y-331953D02*
Y-326047D01*
X138000Y-330870D02*
Y-327130D01*
X136130Y-329000D02*
X139870D01*
X132095Y-331953D02*
X143905D01*
X132095Y-326047D02*
X143905D01*
Y-331953D02*
Y-326047D01*
X132095Y-331953D02*
Y-326047D01*
X126000Y-330870D02*
Y-327130D01*
X124130Y-329000D02*
X127870D01*
X120095Y-331953D02*
X131905D01*
X120095Y-326047D02*
X131905D01*
Y-331953D02*
Y-326047D01*
X120095Y-331953D02*
Y-326047D01*
X114000Y-330870D02*
Y-327130D01*
X112130Y-329000D02*
X115870D01*
X108095Y-331953D02*
X119905D01*
X108095Y-326047D02*
X119905D01*
Y-331953D02*
Y-326047D01*
X108095Y-331953D02*
Y-326047D01*
X102000Y-330870D02*
Y-327130D01*
X100130Y-329000D02*
X103870D01*
X96095Y-331953D02*
X107905D01*
X96095Y-326047D02*
X107905D01*
Y-331953D02*
Y-326047D01*
X96095Y-331953D02*
Y-326047D01*
X78194Y-330870D02*
Y-327130D01*
X76324Y-329000D02*
X80065D01*
X72289Y-331953D02*
X84100D01*
X72289Y-326047D02*
X84100D01*
Y-331953D02*
Y-326047D01*
X72289Y-331953D02*
Y-326047D01*
X90194Y-330870D02*
Y-327130D01*
X88324Y-329000D02*
X92065D01*
X84289Y-331953D02*
X96100D01*
X84289Y-326047D02*
X96100D01*
Y-331953D02*
Y-326047D01*
X84289Y-331953D02*
Y-326047D01*
X186000Y-324870D02*
Y-321130D01*
X184130Y-323000D02*
X187870D01*
X180095Y-320047D02*
X191905D01*
X180095Y-325953D02*
X191905D01*
X180095D02*
Y-320047D01*
X191905Y-325953D02*
Y-320047D01*
X174000Y-324870D02*
Y-321130D01*
X172130Y-323000D02*
X175870D01*
X168095Y-320047D02*
X179905D01*
X168095Y-325953D02*
X179905D01*
X168095D02*
Y-320047D01*
X179905Y-325953D02*
Y-320047D01*
X161895Y-324870D02*
Y-321130D01*
X160025Y-323000D02*
X163765D01*
X155990Y-320047D02*
X167801D01*
X155990Y-325953D02*
X167801D01*
X155990D02*
Y-320047D01*
X167801Y-325953D02*
Y-320047D01*
X150000Y-324870D02*
Y-321130D01*
X148130Y-323000D02*
X151870D01*
X144095Y-320047D02*
X155905D01*
X144095Y-325953D02*
X155905D01*
X144095D02*
Y-320047D01*
X155905Y-325953D02*
Y-320047D01*
X138000Y-324870D02*
Y-321130D01*
X136130Y-323000D02*
X139870D01*
X132095Y-320047D02*
X143905D01*
X132095Y-325953D02*
X143905D01*
X132095D02*
Y-320047D01*
X143905Y-325953D02*
Y-320047D01*
X126000Y-324870D02*
Y-321130D01*
X124130Y-323000D02*
X127870D01*
X120095Y-320047D02*
X131905D01*
X120095Y-325953D02*
X131905D01*
X120095D02*
Y-320047D01*
X131905Y-325953D02*
Y-320047D01*
X114000Y-324870D02*
Y-321130D01*
X112130Y-323000D02*
X115870D01*
X108095Y-320047D02*
X119905D01*
X108095Y-325953D02*
X119905D01*
X108095D02*
Y-320047D01*
X119905Y-325953D02*
Y-320047D01*
X102000Y-324870D02*
Y-321130D01*
X100130Y-323000D02*
X103870D01*
X96095Y-320047D02*
X107905D01*
X96095Y-325953D02*
X107905D01*
X96095D02*
Y-320047D01*
X107905Y-325953D02*
Y-320047D01*
X90194Y-324870D02*
Y-321130D01*
X88324Y-323000D02*
X92064D01*
X84289Y-320047D02*
X96100D01*
X84289Y-325953D02*
X96100D01*
X84289D02*
Y-320047D01*
X96100Y-325953D02*
Y-320047D01*
X78194Y-324870D02*
Y-321130D01*
X76324Y-323000D02*
X80064D01*
X72289Y-320047D02*
X84100D01*
X72289Y-325953D02*
X84100D01*
X72289D02*
Y-320047D01*
X84100Y-325953D02*
Y-320047D01*
X66194Y-330870D02*
Y-327130D01*
X64324Y-329000D02*
X68065D01*
X60289Y-331953D02*
X72100D01*
X60289Y-326047D02*
X72100D01*
Y-331953D02*
Y-326047D01*
X60289Y-331953D02*
Y-326047D01*
X66194Y-324870D02*
Y-321130D01*
X64324Y-323000D02*
X68064D01*
X60289Y-320047D02*
X72100D01*
X60289Y-325953D02*
X72100D01*
X60289D02*
Y-320047D01*
X72100Y-325953D02*
Y-320047D01*
X83425Y-79850D02*
X136575D01*
X83425Y-135756D02*
X136575D01*
Y-79850D01*
X83425Y-135756D02*
Y-79850D01*
X143047Y-181405D02*
X148953D01*
X143047Y-169595D02*
X148953D01*
X143047Y-181405D02*
Y-169595D01*
X148953Y-181405D02*
Y-169595D01*
X146000Y-177370D02*
Y-173630D01*
X144130Y-175500D02*
X147870D01*
X143095Y-169453D02*
Y-163547D01*
X154905Y-169453D02*
Y-163547D01*
X143095D02*
X154905D01*
X143095Y-169453D02*
X154905D01*
X147130Y-166500D02*
X150870D01*
X149000Y-168370D02*
Y-164630D01*
X155472Y-175555D02*
X164528D01*
X155472Y-157445D02*
X164528D01*
X155472Y-175555D02*
Y-157445D01*
X164528Y-175555D02*
Y-157445D01*
X109517Y-183445D02*
X118572D01*
X109517Y-201555D02*
X118572D01*
Y-183445D01*
X109517Y-201555D02*
Y-183445D01*
X100517D02*
X109573D01*
X100517Y-201555D02*
X109573D01*
Y-183445D01*
X100517Y-201555D02*
Y-183445D01*
X95047Y-211595D02*
X100953D01*
X95047Y-223406D02*
X100953D01*
Y-211595D01*
X95047Y-223406D02*
Y-211595D01*
X98000Y-219370D02*
Y-215630D01*
X96130Y-217500D02*
X99870D01*
X142799Y-183055D02*
Y-164945D01*
X130201Y-183055D02*
Y-164945D01*
X142799D01*
X130201Y-183055D02*
X142799D01*
X60200Y-318500D02*
X93700D01*
X60200Y-290400D02*
X93700D01*
Y-318500D02*
Y-290400D01*
X60200Y-318500D02*
Y-290400D01*
M02*
