G04*
G04 #@! TF.GenerationSoftware,Altium Limited,Altium Designer,18.1.11 (251)*
G04*
G04 Layer_Color=8388736*
%FSLAX25Y25*%
%MOIN*%
G70*
G01*
G75*
%ADD30R,0.07008X0.08504*%
%ADD31R,0.19685X0.04724*%
%ADD32R,0.19685X0.06299*%
%ADD42R,0.08504X0.07008*%
%ADD46R,0.10249X0.13005*%
%ADD47R,0.06509X0.03162*%
%ADD48R,0.04343X0.03556*%
%ADD49R,0.05721X0.11233*%
%ADD50R,0.04343X0.03950*%
%ADD51R,0.03950X0.03950*%
%ADD52R,0.15170X0.69068*%
%ADD53R,0.05328X0.07887*%
%ADD54R,0.04343X0.04737*%
G04:AMPARAMS|DCode=55|XSize=29.65mil|YSize=57.21mil|CornerRadius=5.95mil|HoleSize=0mil|Usage=FLASHONLY|Rotation=180.000|XOffset=0mil|YOffset=0mil|HoleType=Round|Shape=RoundedRectangle|*
%AMROUNDEDRECTD55*
21,1,0.02965,0.04532,0,0,180.0*
21,1,0.01776,0.05721,0,0,180.0*
1,1,0.01190,-0.00888,0.02266*
1,1,0.01190,0.00888,0.02266*
1,1,0.01190,0.00888,-0.02266*
1,1,0.01190,-0.00888,-0.02266*
%
%ADD55ROUNDEDRECTD55*%
%ADD56R,0.04737X0.04343*%
%ADD57R,0.11233X0.05721*%
%ADD58R,0.07887X0.05328*%
%ADD59R,0.18123X0.11036*%
%ADD60R,0.05524X0.14580*%
%ADD61R,0.10839X0.16154*%
%ADD62R,0.07296X0.03556*%
%ADD63R,0.03950X0.04343*%
%ADD64R,0.03556X0.04343*%
%ADD65R,0.07887X0.14580*%
%ADD66R,0.16154X0.10839*%
%ADD67R,0.14186X0.51745*%
%ADD68R,0.03950X0.03950*%
%ADD69R,0.11036X0.18123*%
%ADD70R,0.51745X0.14186*%
%ADD71R,0.14580X0.07887*%
%ADD72C,0.07800*%
%ADD73C,0.07099*%
%ADD74R,0.07099X0.07099*%
%ADD75R,0.07099X0.07099*%
%ADD76R,0.06706X0.06706*%
%ADD77C,0.06706*%
%ADD78C,0.16548*%
%ADD79C,0.02965*%
D30*
X172028Y-186500D02*
D03*
X187972D02*
D03*
X66972Y-98500D02*
D03*
X51028D02*
D03*
D31*
X197917Y-20201D02*
D03*
D32*
Y-9295D02*
D03*
Y-31106D02*
D03*
D42*
X80500Y-269972D02*
D03*
Y-254028D02*
D03*
D46*
X42500Y-49500D02*
D03*
X116272Y-212500D02*
D03*
X32000Y-291000D02*
D03*
D47*
X53228Y-57000D02*
D03*
Y-52000D02*
D03*
Y-47000D02*
D03*
Y-42000D02*
D03*
X31772Y-57000D02*
D03*
Y-52000D02*
D03*
Y-47000D02*
D03*
Y-42000D02*
D03*
X127000Y-220000D02*
D03*
Y-215000D02*
D03*
Y-210000D02*
D03*
Y-205000D02*
D03*
X105543Y-220000D02*
D03*
Y-215000D02*
D03*
Y-210000D02*
D03*
Y-205000D02*
D03*
X21272Y-283500D02*
D03*
Y-288500D02*
D03*
Y-293500D02*
D03*
Y-298500D02*
D03*
X42728Y-283500D02*
D03*
Y-288500D02*
D03*
Y-293500D02*
D03*
Y-298500D02*
D03*
D48*
X115045Y-227244D02*
D03*
Y-232756D02*
D03*
X96500Y-297756D02*
D03*
Y-292244D02*
D03*
D49*
X132155Y-230000D02*
D03*
X120935D02*
D03*
D50*
X104982D02*
D03*
X97108Y-233740D02*
D03*
Y-226260D02*
D03*
D51*
X110045Y-233150D02*
D03*
Y-226850D02*
D03*
X31500Y-21150D02*
D03*
Y-14850D02*
D03*
X17000Y-43650D02*
D03*
Y-37350D02*
D03*
D52*
X183895Y-272000D02*
D03*
X125195D02*
D03*
D53*
X157709Y-119500D02*
D03*
X146291D02*
D03*
X104791Y-146500D02*
D03*
X116209D02*
D03*
X42291Y-33500D02*
D03*
X53709D02*
D03*
X61709Y-285500D02*
D03*
X50291D02*
D03*
X32906Y-307500D02*
D03*
X21094D02*
D03*
D54*
X145850Y-133500D02*
D03*
X152150D02*
D03*
X152150Y-127500D02*
D03*
X145850D02*
D03*
X104350Y-154500D02*
D03*
X110650D02*
D03*
X95650Y-280000D02*
D03*
X89350D02*
D03*
X182850Y-329000D02*
D03*
X189150D02*
D03*
X170850D02*
D03*
X177150D02*
D03*
X158746D02*
D03*
X165045D02*
D03*
X146850D02*
D03*
X153150D02*
D03*
X134850D02*
D03*
X141150D02*
D03*
X122850D02*
D03*
X129150D02*
D03*
X110850D02*
D03*
X117150D02*
D03*
X98850D02*
D03*
X105150D02*
D03*
X75045D02*
D03*
X81344D02*
D03*
X87045D02*
D03*
X93344D02*
D03*
X189150Y-323000D02*
D03*
X182850D02*
D03*
X177150D02*
D03*
X170850D02*
D03*
X165045D02*
D03*
X158746D02*
D03*
X153150D02*
D03*
X146850D02*
D03*
X141150D02*
D03*
X134850D02*
D03*
X129150D02*
D03*
X122850D02*
D03*
X117150D02*
D03*
X110850D02*
D03*
X105150D02*
D03*
X98850D02*
D03*
X93344D02*
D03*
X87045D02*
D03*
X81344D02*
D03*
X75045D02*
D03*
X63045Y-329000D02*
D03*
X69344D02*
D03*
X69344Y-323000D02*
D03*
X63045D02*
D03*
X152150Y-166500D02*
D03*
X145850D02*
D03*
D55*
X152500Y-139665D02*
D03*
X147500D02*
D03*
X142500D02*
D03*
X137500D02*
D03*
X132500D02*
D03*
X127500D02*
D03*
X122500D02*
D03*
X152500Y-160335D02*
D03*
X147500D02*
D03*
X142500D02*
D03*
X137500D02*
D03*
X132500D02*
D03*
X127500D02*
D03*
X122500D02*
D03*
D56*
X116500Y-154350D02*
D03*
Y-160650D02*
D03*
X24500Y-48150D02*
D03*
Y-41850D02*
D03*
X146000Y-172350D02*
D03*
Y-178650D02*
D03*
X98000Y-220650D02*
D03*
Y-214350D02*
D03*
D57*
X123000Y-168390D02*
D03*
Y-179610D02*
D03*
X109500Y-168390D02*
D03*
Y-179610D02*
D03*
X134045Y-198110D02*
D03*
Y-186890D02*
D03*
X136500Y-179610D02*
D03*
Y-168390D02*
D03*
D58*
X123045Y-186791D02*
D03*
Y-198209D02*
D03*
X51500Y-65095D02*
D03*
Y-76906D02*
D03*
X160000Y-160791D02*
D03*
Y-172209D02*
D03*
X114045Y-198209D02*
D03*
Y-186791D02*
D03*
X105045Y-198209D02*
D03*
Y-186791D02*
D03*
D59*
X151055Y-215000D02*
D03*
X182945D02*
D03*
D60*
X128000Y-66559D02*
D03*
X138000D02*
D03*
X148000D02*
D03*
X158000D02*
D03*
X168000D02*
D03*
X178000D02*
D03*
X128000Y-11441D02*
D03*
X138000D02*
D03*
X148000D02*
D03*
X158000D02*
D03*
X168000D02*
D03*
X178000D02*
D03*
D61*
X89000Y-11779D02*
D03*
Y-59220D02*
D03*
D62*
X5500Y-8783D02*
D03*
Y-21776D02*
D03*
X14650Y-21776D02*
D03*
Y-8783D02*
D03*
X23850Y-21776D02*
D03*
Y-8783D02*
D03*
D63*
X27000Y-28563D02*
D03*
X30740Y-36437D02*
D03*
X23260D02*
D03*
X80150Y-287937D02*
D03*
X76410Y-280063D02*
D03*
X83890D02*
D03*
D64*
X26016Y-57000D02*
D03*
X20504D02*
D03*
D65*
X32000Y-87752D02*
D03*
Y-69248D02*
D03*
D66*
X73721Y-135500D02*
D03*
X26280D02*
D03*
X73721Y-196000D02*
D03*
X26280D02*
D03*
D67*
X65697Y-252500D02*
D03*
X25303D02*
D03*
D68*
X95800Y-287500D02*
D03*
X89500D02*
D03*
D69*
X38000Y-354445D02*
D03*
Y-322555D02*
D03*
D70*
X110000Y-128000D02*
D03*
Y-87606D02*
D03*
D71*
X67748Y-304500D02*
D03*
X86252D02*
D03*
D72*
X200000Y-340000D02*
D03*
Y-330000D02*
D03*
Y-320000D02*
D03*
Y-310000D02*
D03*
Y-300000D02*
D03*
Y-290000D02*
D03*
Y-280000D02*
D03*
Y-270000D02*
D03*
Y-250000D02*
D03*
Y-240000D02*
D03*
Y-230000D02*
D03*
Y-220000D02*
D03*
Y-210000D02*
D03*
Y-200000D02*
D03*
Y-190000D02*
D03*
Y-180000D02*
D03*
X10000Y-110000D02*
D03*
Y-120000D02*
D03*
Y-130000D02*
D03*
Y-140000D02*
D03*
Y-150000D02*
D03*
Y-160000D02*
D03*
Y-170000D02*
D03*
Y-180000D02*
D03*
Y-200000D02*
D03*
Y-210000D02*
D03*
Y-220000D02*
D03*
Y-230000D02*
D03*
Y-240000D02*
D03*
Y-250000D02*
D03*
Y-260000D02*
D03*
Y-270000D02*
D03*
Y-290000D02*
D03*
Y-300000D02*
D03*
Y-310000D02*
D03*
Y-320000D02*
D03*
Y-330000D02*
D03*
Y-340000D02*
D03*
Y-350000D02*
D03*
Y-360000D02*
D03*
X30000Y-380000D02*
D03*
X40000D02*
D03*
X50000D02*
D03*
X60000D02*
D03*
X70000D02*
D03*
X80000D02*
D03*
X90000D02*
D03*
X100000D02*
D03*
X110000D02*
D03*
X120000D02*
D03*
X130000D02*
D03*
X140000D02*
D03*
X150000D02*
D03*
X160000D02*
D03*
X170000D02*
D03*
X180000D02*
D03*
X190000D02*
D03*
X30000Y-370000D02*
D03*
X40000D02*
D03*
X50000D02*
D03*
X60000D02*
D03*
X70000D02*
D03*
X80000D02*
D03*
X90000D02*
D03*
X100000D02*
D03*
X110000D02*
D03*
X200000Y-380000D02*
D03*
X120000Y-370000D02*
D03*
X130000D02*
D03*
X140000D02*
D03*
X150000D02*
D03*
X160000D02*
D03*
X170000D02*
D03*
X180000D02*
D03*
X190000D02*
D03*
X200000D02*
D03*
Y-164000D02*
D03*
Y-154000D02*
D03*
Y-74000D02*
D03*
Y-84000D02*
D03*
Y-94000D02*
D03*
Y-104000D02*
D03*
Y-114000D02*
D03*
Y-124000D02*
D03*
Y-134000D02*
D03*
Y-144000D02*
D03*
D73*
X179000Y-158150D02*
D03*
Y-119291D02*
D03*
X179500Y-87291D02*
D03*
X41000Y-15500D02*
D03*
D74*
X179000Y-168150D02*
D03*
Y-129291D02*
D03*
X179500Y-97291D02*
D03*
D75*
X51000Y-15500D02*
D03*
D76*
X65694Y-357700D02*
D03*
X77694D02*
D03*
X89694D02*
D03*
X101500D02*
D03*
X113500D02*
D03*
X125500D02*
D03*
X137500D02*
D03*
X149500D02*
D03*
X161500D02*
D03*
X173500D02*
D03*
X185500Y-357500D02*
D03*
D77*
X65694Y-347700D02*
D03*
Y-337700D02*
D03*
X77694Y-347700D02*
D03*
Y-337700D02*
D03*
X89694Y-347700D02*
D03*
Y-337700D02*
D03*
X101500Y-347700D02*
D03*
Y-337700D02*
D03*
X113500Y-347700D02*
D03*
Y-337700D02*
D03*
X125500Y-347700D02*
D03*
Y-337700D02*
D03*
X137500Y-347700D02*
D03*
Y-337700D02*
D03*
X149500Y-347700D02*
D03*
Y-337700D02*
D03*
X161500Y-347700D02*
D03*
Y-337700D02*
D03*
X173500Y-347700D02*
D03*
Y-337700D02*
D03*
X185500Y-347500D02*
D03*
Y-337500D02*
D03*
X170457Y-31106D02*
D03*
X138854Y-236000D02*
D03*
X166000Y-120500D02*
D03*
X161000Y-133500D02*
D03*
X172000Y-255500D02*
D03*
X97500Y-168390D02*
D03*
X56000Y-308500D02*
D03*
X47000Y-302000D02*
D03*
X176000Y-215500D02*
D03*
X160000Y-179000D02*
D03*
X129041Y-149541D02*
D03*
X97000Y-150000D02*
D03*
D78*
X200000Y-60000D02*
D03*
X10000Y-380000D02*
D03*
X200000Y-355000D02*
D03*
X10000Y-55000D02*
D03*
D79*
X165500Y-155000D02*
D03*
X40335Y-53831D02*
D03*
X44665D02*
D03*
X40335Y-49500D02*
D03*
X44665D02*
D03*
X40335Y-45169D02*
D03*
X44665D02*
D03*
X114106Y-208169D02*
D03*
X118437D02*
D03*
X114106Y-212500D02*
D03*
X118437D02*
D03*
X114106Y-216831D02*
D03*
X118437D02*
D03*
X34165Y-295331D02*
D03*
X29835D02*
D03*
X34165Y-291000D02*
D03*
X29835D02*
D03*
X34165Y-286669D02*
D03*
X29835D02*
D03*
X26016Y-302000D02*
D03*
X26000Y-186000D02*
D03*
X15000Y-191000D02*
D03*
X40000Y-135500D02*
D03*
X146000Y-99500D02*
D03*
X51500Y-71000D02*
D03*
X100740Y-301996D02*
D03*
X113272Y-221500D02*
D03*
X7850Y-90650D02*
D03*
X38500Y-60000D02*
D03*
X148000Y-10000D02*
D03*
X4750Y-75000D02*
D03*
X41000Y-310000D02*
D03*
X79000Y-214500D02*
D03*
X7000Y-190500D02*
D03*
X24000Y-52500D02*
D03*
X14650Y-30000D02*
D03*
X40000Y-338000D02*
D03*
X138000Y-76906D02*
D03*
X128000Y-76982D02*
D03*
X152000Y-315000D02*
D03*
X111500Y-160650D02*
D03*
X152500Y-179500D02*
D03*
X138000Y-22500D02*
D03*
X147500Y-91536D02*
D03*
X168000Y-84000D02*
D03*
X157500D02*
D03*
X178000Y-76982D02*
D03*
X170850Y-318500D02*
D03*
X158746D02*
D03*
X146850Y-318545D02*
D03*
X134850Y-318500D02*
D03*
X122850D02*
D03*
X110850Y-318545D02*
D03*
X98850D02*
D03*
X87045D02*
D03*
X75045D02*
D03*
X63045Y-318500D02*
D03*
M02*
