G04*
G04 #@! TF.GenerationSoftware,Altium Limited,Altium Designer,18.1.11 (251)*
G04*
G04 Layer_Color=255*
%FSLAX25Y25*%
%MOIN*%
G70*
G01*
G75*
%ADD32R,0.19685X0.06299*%
%ADD86C,0.07000*%
%ADD87C,0.06299*%
%ADD88R,0.06299X0.06299*%
%ADD89R,0.06299X0.06299*%
%ADD90R,0.05906X0.05906*%
%ADD91C,0.05906*%
%ADD92C,0.15748*%
D32*
X197917Y-31106D02*
D03*
Y-9295D02*
D03*
D86*
X200000Y-340000D02*
D03*
Y-330000D02*
D03*
Y-320000D02*
D03*
Y-310000D02*
D03*
Y-300000D02*
D03*
Y-290000D02*
D03*
Y-280000D02*
D03*
Y-270000D02*
D03*
Y-250000D02*
D03*
Y-240000D02*
D03*
Y-230000D02*
D03*
Y-220000D02*
D03*
Y-210000D02*
D03*
Y-200000D02*
D03*
Y-190000D02*
D03*
Y-180000D02*
D03*
X10000Y-110000D02*
D03*
Y-120000D02*
D03*
Y-130000D02*
D03*
Y-140000D02*
D03*
Y-150000D02*
D03*
Y-160000D02*
D03*
Y-170000D02*
D03*
Y-180000D02*
D03*
Y-200000D02*
D03*
Y-210000D02*
D03*
Y-220000D02*
D03*
Y-230000D02*
D03*
Y-240000D02*
D03*
Y-250000D02*
D03*
Y-260000D02*
D03*
Y-270000D02*
D03*
Y-290000D02*
D03*
Y-300000D02*
D03*
Y-310000D02*
D03*
Y-320000D02*
D03*
Y-330000D02*
D03*
Y-340000D02*
D03*
Y-350000D02*
D03*
Y-360000D02*
D03*
X30000Y-380000D02*
D03*
X40000D02*
D03*
X50000D02*
D03*
X60000D02*
D03*
X70000D02*
D03*
X80000D02*
D03*
X90000D02*
D03*
X100000D02*
D03*
X110000D02*
D03*
X120000D02*
D03*
X130000D02*
D03*
X140000D02*
D03*
X150000D02*
D03*
X160000D02*
D03*
X170000D02*
D03*
X180000D02*
D03*
X190000D02*
D03*
X30000Y-370000D02*
D03*
X40000D02*
D03*
X50000D02*
D03*
X60000D02*
D03*
X70000D02*
D03*
X80000D02*
D03*
X90000D02*
D03*
X100000D02*
D03*
X110000D02*
D03*
X200000Y-380000D02*
D03*
X120000Y-370000D02*
D03*
X130000D02*
D03*
X140000D02*
D03*
X150000D02*
D03*
X160000D02*
D03*
X170000D02*
D03*
X180000D02*
D03*
X190000D02*
D03*
X200000D02*
D03*
Y-164000D02*
D03*
Y-154000D02*
D03*
Y-74000D02*
D03*
Y-84000D02*
D03*
Y-94000D02*
D03*
Y-104000D02*
D03*
Y-114000D02*
D03*
Y-124000D02*
D03*
Y-134000D02*
D03*
Y-144000D02*
D03*
D87*
X179000Y-158150D02*
D03*
Y-119291D02*
D03*
X179500Y-87291D02*
D03*
X41000Y-15500D02*
D03*
D88*
X179000Y-168150D02*
D03*
Y-129291D02*
D03*
X179500Y-97291D02*
D03*
D89*
X51000Y-15500D02*
D03*
D90*
X65694Y-357700D02*
D03*
X77694D02*
D03*
X89694D02*
D03*
X101500D02*
D03*
X113500D02*
D03*
X125500D02*
D03*
X137500D02*
D03*
X149500D02*
D03*
X161500D02*
D03*
X173500D02*
D03*
X185500Y-357500D02*
D03*
D91*
X65694Y-347700D02*
D03*
Y-337700D02*
D03*
X77694Y-347700D02*
D03*
Y-337700D02*
D03*
X89694Y-347700D02*
D03*
Y-337700D02*
D03*
X101500Y-347700D02*
D03*
Y-337700D02*
D03*
X113500Y-347700D02*
D03*
Y-337700D02*
D03*
X125500Y-347700D02*
D03*
Y-337700D02*
D03*
X137500Y-347700D02*
D03*
Y-337700D02*
D03*
X149500Y-347700D02*
D03*
Y-337700D02*
D03*
X161500Y-347700D02*
D03*
Y-337700D02*
D03*
X173500Y-347700D02*
D03*
Y-337700D02*
D03*
X185500Y-347500D02*
D03*
Y-337500D02*
D03*
D92*
X200000Y-60000D02*
D03*
X10000Y-380000D02*
D03*
X200000Y-355000D02*
D03*
X10000Y-55000D02*
D03*
M02*
