G04*
G04 #@! TF.GenerationSoftware,Altium Limited,Altium Designer,18.1.11 (251)*
G04*
G04 Layer_Color=16711935*
%FSLAX25Y25*%
%MOIN*%
G70*
G01*
G75*
%ADD13C,0.00787*%
G36*
X183309Y-183233D02*
X183338Y-183236D01*
X183374Y-183240D01*
X183414Y-183247D01*
X183454Y-183255D01*
X183549Y-183280D01*
X183644Y-183317D01*
X183691Y-183338D01*
X183738Y-183364D01*
X183782Y-183397D01*
X183822Y-183433D01*
X183826Y-183437D01*
X183833Y-183440D01*
X183840Y-183455D01*
X183855Y-183469D01*
X183873Y-183488D01*
X183891Y-183513D01*
X183909Y-183538D01*
X183931Y-183571D01*
X183968Y-183641D01*
X184004Y-183728D01*
X184019Y-183772D01*
X184026Y-183823D01*
X184033Y-183873D01*
X184037Y-183928D01*
Y-183935D01*
Y-183953D01*
X184033Y-183983D01*
X184029Y-184023D01*
X184022Y-184066D01*
X184008Y-184117D01*
X183993Y-184172D01*
X183971Y-184227D01*
X183968Y-184234D01*
X183960Y-184252D01*
X183946Y-184281D01*
X183924Y-184321D01*
X183895Y-184365D01*
X183858Y-184419D01*
X183815Y-184474D01*
X183764Y-184536D01*
X183756Y-184543D01*
X183738Y-184565D01*
X183720Y-184583D01*
X183702Y-184601D01*
X183680Y-184623D01*
X183651Y-184652D01*
X183622Y-184681D01*
X183585Y-184714D01*
X183549Y-184751D01*
X183505Y-184791D01*
X183458Y-184831D01*
X183407Y-184878D01*
X183349Y-184925D01*
X183291Y-184976D01*
X183287Y-184980D01*
X183280Y-184987D01*
X183265Y-184998D01*
X183247Y-185013D01*
X183225Y-185035D01*
X183200Y-185056D01*
X183141Y-185104D01*
X183079Y-185158D01*
X183021Y-185213D01*
X182970Y-185260D01*
X182948Y-185278D01*
X182930Y-185297D01*
X182926Y-185300D01*
X182916Y-185311D01*
X182901Y-185326D01*
X182883Y-185348D01*
X182865Y-185373D01*
X182843Y-185399D01*
X182799Y-185460D01*
X184040D01*
Y-185759D01*
X182370D01*
Y-185755D01*
Y-185741D01*
Y-185719D01*
X182373Y-185690D01*
X182377Y-185657D01*
X182384Y-185621D01*
X182391Y-185584D01*
X182406Y-185544D01*
Y-185540D01*
X182410Y-185537D01*
X182417Y-185515D01*
X182431Y-185482D01*
X182453Y-185439D01*
X182482Y-185388D01*
X182519Y-185329D01*
X182559Y-185271D01*
X182610Y-185209D01*
Y-185206D01*
X182617Y-185202D01*
X182635Y-185180D01*
X182668Y-185147D01*
X182715Y-185100D01*
X182770Y-185046D01*
X182839Y-184980D01*
X182923Y-184907D01*
X183014Y-184831D01*
X183018Y-184827D01*
X183032Y-184816D01*
X183054Y-184798D01*
X183079Y-184776D01*
X183112Y-184747D01*
X183152Y-184714D01*
X183192Y-184678D01*
X183240Y-184638D01*
X183331Y-184550D01*
X183422Y-184463D01*
X183465Y-184419D01*
X183505Y-184376D01*
X183542Y-184336D01*
X183571Y-184296D01*
Y-184292D01*
X183578Y-184288D01*
X183585Y-184277D01*
X183593Y-184263D01*
X183618Y-184223D01*
X183647Y-184176D01*
X183673Y-184117D01*
X183698Y-184055D01*
X183713Y-183986D01*
X183720Y-183921D01*
Y-183917D01*
Y-183913D01*
X183716Y-183892D01*
X183713Y-183855D01*
X183702Y-183815D01*
X183687Y-183764D01*
X183662Y-183713D01*
X183629Y-183662D01*
X183585Y-183611D01*
X183578Y-183604D01*
X183560Y-183589D01*
X183534Y-183571D01*
X183494Y-183546D01*
X183443Y-183524D01*
X183385Y-183502D01*
X183316Y-183488D01*
X183240Y-183484D01*
X183218D01*
X183203Y-183488D01*
X183159Y-183491D01*
X183108Y-183502D01*
X183054Y-183517D01*
X182992Y-183542D01*
X182934Y-183575D01*
X182879Y-183619D01*
X182872Y-183626D01*
X182857Y-183644D01*
X182835Y-183673D01*
X182814Y-183717D01*
X182788Y-183768D01*
X182766Y-183833D01*
X182752Y-183906D01*
X182745Y-183990D01*
X182428Y-183957D01*
Y-183953D01*
X182431Y-183943D01*
Y-183924D01*
X182435Y-183899D01*
X182442Y-183870D01*
X182450Y-183837D01*
X182461Y-183797D01*
X182472Y-183757D01*
X182501Y-183670D01*
X182544Y-183582D01*
X182570Y-183538D01*
X182603Y-183495D01*
X182635Y-183455D01*
X182672Y-183418D01*
X182675Y-183415D01*
X182683Y-183411D01*
X182694Y-183400D01*
X182712Y-183389D01*
X182734Y-183375D01*
X182759Y-183360D01*
X182788Y-183342D01*
X182825Y-183324D01*
X182865Y-183306D01*
X182908Y-183287D01*
X182956Y-183273D01*
X183007Y-183258D01*
X183061Y-183247D01*
X183119Y-183236D01*
X183181Y-183233D01*
X183247Y-183229D01*
X183283D01*
X183309Y-183233D01*
D02*
G37*
G36*
X181034Y-183244D02*
X181106Y-183247D01*
X181179Y-183255D01*
X181252Y-183265D01*
X181314Y-183276D01*
X181318D01*
X181325Y-183280D01*
X181336D01*
X181350Y-183287D01*
X181390Y-183298D01*
X181441Y-183317D01*
X181500Y-183342D01*
X181562Y-183375D01*
X181623Y-183411D01*
X181682Y-183458D01*
X181685Y-183462D01*
X181689Y-183466D01*
X181700Y-183477D01*
X181714Y-183488D01*
X181751Y-183524D01*
X181795Y-183575D01*
X181842Y-183637D01*
X181893Y-183710D01*
X181940Y-183793D01*
X181980Y-183888D01*
Y-183892D01*
X181984Y-183899D01*
X181991Y-183913D01*
X181995Y-183935D01*
X182006Y-183961D01*
X182013Y-183990D01*
X182020Y-184023D01*
X182031Y-184063D01*
X182042Y-184103D01*
X182049Y-184150D01*
X182068Y-184252D01*
X182078Y-184365D01*
X182082Y-184489D01*
Y-184492D01*
Y-184500D01*
Y-184518D01*
Y-184536D01*
X182078Y-184561D01*
Y-184590D01*
X182075Y-184660D01*
X182064Y-184740D01*
X182053Y-184824D01*
X182035Y-184911D01*
X182013Y-184998D01*
Y-185002D01*
X182009Y-185009D01*
X182006Y-185020D01*
X182002Y-185035D01*
X181987Y-185075D01*
X181966Y-185126D01*
X181944Y-185184D01*
X181915Y-185242D01*
X181878Y-185304D01*
X181842Y-185362D01*
X181838Y-185370D01*
X181824Y-185388D01*
X181802Y-185413D01*
X181773Y-185446D01*
X181740Y-185482D01*
X181700Y-185519D01*
X181660Y-185559D01*
X181613Y-185591D01*
X181605Y-185595D01*
X181591Y-185606D01*
X181565Y-185621D01*
X181529Y-185639D01*
X181485Y-185661D01*
X181434Y-185679D01*
X181376Y-185701D01*
X181310Y-185719D01*
X181303D01*
X181292Y-185722D01*
X181281Y-185726D01*
X181245Y-185730D01*
X181194Y-185737D01*
X181136Y-185744D01*
X181067Y-185752D01*
X180990Y-185755D01*
X180906Y-185759D01*
X180000D01*
Y-183240D01*
X180968D01*
X181034Y-183244D01*
D02*
G37*
G36*
X218152Y-20510D02*
X218148D01*
X218141D01*
X218127D01*
X218105Y-20514D01*
X218083Y-20517D01*
X218057D01*
X217996Y-20528D01*
X217930Y-20539D01*
X217864Y-20561D01*
X217806Y-20583D01*
X217781Y-20597D01*
X217759Y-20616D01*
X217755Y-20619D01*
X217744Y-20634D01*
X217726Y-20656D01*
X217708Y-20685D01*
X217686Y-20725D01*
X217671Y-20769D01*
X217657Y-20823D01*
X217653Y-20881D01*
Y-20903D01*
X217657Y-20925D01*
X217661Y-20958D01*
X217668Y-20991D01*
X217675Y-21027D01*
X217690Y-21063D01*
X217708Y-21100D01*
X217712Y-21103D01*
X217719Y-21114D01*
X217733Y-21129D01*
X217748Y-21151D01*
X217774Y-21169D01*
X217799Y-21191D01*
X217828Y-21209D01*
X217864Y-21224D01*
X217868D01*
X217883Y-21231D01*
X217908Y-21235D01*
X217941Y-21242D01*
X217985Y-21249D01*
X218039Y-21253D01*
X218105Y-21260D01*
X218181D01*
X219917D01*
Y-21595D01*
X218199D01*
X218196D01*
X218185D01*
X218170D01*
X218148D01*
X218119Y-21591D01*
X218090D01*
X218021Y-21584D01*
X217941Y-21577D01*
X217857Y-21562D01*
X217781Y-21540D01*
X217708Y-21515D01*
X217704D01*
X217701Y-21511D01*
X217679Y-21500D01*
X217650Y-21482D01*
X217610Y-21456D01*
X217570Y-21420D01*
X217526Y-21380D01*
X217482Y-21329D01*
X217446Y-21271D01*
X217442Y-21264D01*
X217431Y-21242D01*
X217417Y-21209D01*
X217402Y-21162D01*
X217384Y-21103D01*
X217369Y-21038D01*
X217358Y-20965D01*
X217355Y-20885D01*
Y-20852D01*
X217358Y-20831D01*
X217362Y-20801D01*
X217366Y-20772D01*
X217380Y-20696D01*
X217402Y-20616D01*
X217435Y-20532D01*
X217457Y-20488D01*
X217482Y-20448D01*
X217511Y-20412D01*
X217544Y-20376D01*
X217548Y-20372D01*
X217551Y-20368D01*
X217566Y-20361D01*
X217581Y-20350D01*
X217599Y-20335D01*
X217624Y-20321D01*
X217653Y-20306D01*
X217686Y-20288D01*
X217723Y-20274D01*
X217766Y-20259D01*
X217810Y-20244D01*
X217861Y-20230D01*
X217915Y-20223D01*
X217977Y-20212D01*
X218039Y-20208D01*
X218108D01*
X218152Y-20510D01*
D02*
G37*
G36*
X218105Y-22327D02*
X218101D01*
X218094Y-22330D01*
X218079Y-22334D01*
X218061Y-22337D01*
X218039Y-22341D01*
X218014Y-22348D01*
X217959Y-22366D01*
X217894Y-22392D01*
X217832Y-22425D01*
X217774Y-22461D01*
X217723Y-22505D01*
X217719Y-22512D01*
X217704Y-22527D01*
X217686Y-22556D01*
X217668Y-22592D01*
X217646Y-22636D01*
X217628Y-22691D01*
X217613Y-22752D01*
X217610Y-22818D01*
Y-22840D01*
X217613Y-22854D01*
X217617Y-22894D01*
X217628Y-22945D01*
X217646Y-23004D01*
X217671Y-23065D01*
X217708Y-23127D01*
X217759Y-23186D01*
X217766Y-23193D01*
X217788Y-23211D01*
X217821Y-23233D01*
X217864Y-23262D01*
X217919Y-23291D01*
X217981Y-23313D01*
X218054Y-23331D01*
X218134Y-23338D01*
X218138D01*
X218145D01*
X218156D01*
X218170Y-23335D01*
X218210Y-23331D01*
X218258Y-23320D01*
X218316Y-23306D01*
X218374Y-23280D01*
X218432Y-23244D01*
X218487Y-23197D01*
X218494Y-23189D01*
X218509Y-23171D01*
X218531Y-23142D01*
X218556Y-23102D01*
X218582Y-23051D01*
X218603Y-22989D01*
X218618Y-22920D01*
X218625Y-22843D01*
Y-22811D01*
X218622Y-22785D01*
X218618Y-22752D01*
X218611Y-22716D01*
X218603Y-22672D01*
X218593Y-22625D01*
X218865Y-22661D01*
Y-22680D01*
X218862Y-22694D01*
Y-22741D01*
X218869Y-22782D01*
X218876Y-22829D01*
X218887Y-22883D01*
X218905Y-22945D01*
X218931Y-23004D01*
X218964Y-23065D01*
Y-23069D01*
X218967Y-23073D01*
X218982Y-23091D01*
X219007Y-23116D01*
X219040Y-23145D01*
X219088Y-23175D01*
X219142Y-23200D01*
X219204Y-23218D01*
X219240Y-23226D01*
X219280D01*
X219284D01*
X219288D01*
X219309D01*
X219339Y-23218D01*
X219379Y-23211D01*
X219422Y-23197D01*
X219470Y-23178D01*
X219517Y-23149D01*
X219561Y-23109D01*
X219564Y-23106D01*
X219579Y-23087D01*
X219597Y-23062D01*
X219619Y-23029D01*
X219637Y-22985D01*
X219655Y-22934D01*
X219670Y-22876D01*
X219673Y-22811D01*
Y-22782D01*
X219666Y-22749D01*
X219659Y-22705D01*
X219644Y-22658D01*
X219626Y-22610D01*
X219597Y-22559D01*
X219561Y-22512D01*
X219557Y-22509D01*
X219539Y-22494D01*
X219513Y-22472D01*
X219477Y-22447D01*
X219430Y-22421D01*
X219371Y-22396D01*
X219302Y-22374D01*
X219222Y-22359D01*
X219277Y-22050D01*
X219280D01*
X219291Y-22053D01*
X219306Y-22057D01*
X219328Y-22061D01*
X219353Y-22068D01*
X219382Y-22079D01*
X219451Y-22101D01*
X219532Y-22137D01*
X219612Y-22181D01*
X219688Y-22235D01*
X219757Y-22305D01*
X219761Y-22308D01*
X219765Y-22316D01*
X219772Y-22327D01*
X219783Y-22341D01*
X219797Y-22359D01*
X219812Y-22385D01*
X219826Y-22410D01*
X219845Y-22443D01*
X219874Y-22516D01*
X219903Y-22600D01*
X219921Y-22698D01*
X219928Y-22749D01*
Y-22840D01*
X219925Y-22880D01*
X219917Y-22927D01*
X219906Y-22985D01*
X219888Y-23051D01*
X219866Y-23116D01*
X219837Y-23182D01*
Y-23186D01*
X219834Y-23189D01*
X219823Y-23211D01*
X219801Y-23244D01*
X219776Y-23280D01*
X219739Y-23324D01*
X219699Y-23368D01*
X219652Y-23411D01*
X219597Y-23448D01*
X219590Y-23451D01*
X219572Y-23462D01*
X219539Y-23477D01*
X219499Y-23495D01*
X219451Y-23513D01*
X219397Y-23528D01*
X219335Y-23539D01*
X219273Y-23542D01*
X219266D01*
X219244D01*
X219215Y-23539D01*
X219175Y-23531D01*
X219128Y-23520D01*
X219077Y-23502D01*
X219026Y-23480D01*
X218975Y-23451D01*
X218967Y-23448D01*
X218953Y-23437D01*
X218927Y-23415D01*
X218898Y-23386D01*
X218865Y-23349D01*
X218829Y-23306D01*
X218796Y-23255D01*
X218763Y-23193D01*
Y-23197D01*
X218760Y-23204D01*
X218756Y-23215D01*
X218753Y-23229D01*
X218738Y-23269D01*
X218716Y-23320D01*
X218687Y-23379D01*
X218651Y-23437D01*
X218603Y-23491D01*
X218549Y-23542D01*
X218542Y-23546D01*
X218520Y-23561D01*
X218483Y-23582D01*
X218436Y-23604D01*
X218378Y-23626D01*
X218309Y-23648D01*
X218229Y-23662D01*
X218141Y-23666D01*
X218138D01*
X218127D01*
X218108D01*
X218087Y-23662D01*
X218057Y-23659D01*
X218025Y-23652D01*
X217988Y-23644D01*
X217948Y-23637D01*
X217861Y-23608D01*
X217813Y-23586D01*
X217770Y-23564D01*
X217723Y-23535D01*
X217675Y-23502D01*
X217628Y-23466D01*
X217584Y-23422D01*
X217581Y-23418D01*
X217573Y-23411D01*
X217562Y-23397D01*
X217548Y-23379D01*
X217530Y-23357D01*
X217511Y-23327D01*
X217490Y-23295D01*
X217471Y-23255D01*
X217449Y-23215D01*
X217428Y-23167D01*
X217409Y-23120D01*
X217391Y-23065D01*
X217377Y-23007D01*
X217366Y-22945D01*
X217358Y-22883D01*
X217355Y-22814D01*
Y-22782D01*
X217358Y-22760D01*
X217362Y-22730D01*
X217366Y-22698D01*
X217373Y-22661D01*
X217380Y-22621D01*
X217402Y-22534D01*
X217439Y-22443D01*
X217460Y-22396D01*
X217486Y-22352D01*
X217519Y-22308D01*
X217551Y-22265D01*
X217555Y-22261D01*
X217562Y-22254D01*
X217573Y-22243D01*
X217588Y-22232D01*
X217606Y-22214D01*
X217632Y-22196D01*
X217657Y-22174D01*
X217690Y-22152D01*
X217726Y-22130D01*
X217763Y-22108D01*
X217850Y-22068D01*
X217952Y-22035D01*
X218006Y-22024D01*
X218065Y-22017D01*
X218105Y-22327D01*
D02*
G37*
G36*
X59000Y-101760D02*
X58032D01*
X57966Y-101756D01*
X57894Y-101753D01*
X57821Y-101745D01*
X57748Y-101734D01*
X57686Y-101724D01*
X57682D01*
X57675Y-101720D01*
X57664D01*
X57650Y-101713D01*
X57610Y-101702D01*
X57559Y-101683D01*
X57500Y-101658D01*
X57438Y-101625D01*
X57377Y-101589D01*
X57318Y-101541D01*
X57315Y-101538D01*
X57311Y-101534D01*
X57300Y-101523D01*
X57286Y-101512D01*
X57249Y-101476D01*
X57205Y-101425D01*
X57158Y-101363D01*
X57107Y-101290D01*
X57060Y-101207D01*
X57020Y-101112D01*
Y-101108D01*
X57016Y-101101D01*
X57009Y-101086D01*
X57005Y-101065D01*
X56994Y-101039D01*
X56987Y-101010D01*
X56980Y-100977D01*
X56969Y-100937D01*
X56958Y-100897D01*
X56951Y-100850D01*
X56932Y-100748D01*
X56922Y-100635D01*
X56918Y-100511D01*
Y-100508D01*
Y-100501D01*
Y-100482D01*
Y-100464D01*
X56922Y-100439D01*
Y-100409D01*
X56925Y-100340D01*
X56936Y-100260D01*
X56947Y-100177D01*
X56965Y-100089D01*
X56987Y-100002D01*
Y-99998D01*
X56991Y-99991D01*
X56994Y-99980D01*
X56998Y-99965D01*
X57013Y-99925D01*
X57034Y-99874D01*
X57056Y-99816D01*
X57085Y-99758D01*
X57122Y-99696D01*
X57158Y-99638D01*
X57162Y-99631D01*
X57176Y-99612D01*
X57198Y-99587D01*
X57227Y-99554D01*
X57260Y-99518D01*
X57300Y-99481D01*
X57340Y-99441D01*
X57388Y-99409D01*
X57395Y-99405D01*
X57409Y-99394D01*
X57435Y-99379D01*
X57471Y-99361D01*
X57515Y-99339D01*
X57566Y-99321D01*
X57624Y-99299D01*
X57690Y-99281D01*
X57697D01*
X57708Y-99278D01*
X57719Y-99274D01*
X57755Y-99270D01*
X57806Y-99263D01*
X57864Y-99256D01*
X57933Y-99248D01*
X58010Y-99245D01*
X58094Y-99241D01*
X59000D01*
Y-101760D01*
D02*
G37*
G36*
X55597Y-99845D02*
X56692D01*
Y-100129D01*
X55538Y-101760D01*
X55287D01*
Y-100129D01*
X54945D01*
Y-99845D01*
X55287D01*
Y-99241D01*
X55597D01*
Y-99845D01*
D02*
G37*
G36*
X79155Y-258287D02*
X79759D01*
Y-258597D01*
X79155D01*
Y-259692D01*
X78871D01*
X77240Y-258538D01*
Y-258287D01*
X78871D01*
Y-257945D01*
X79155D01*
Y-258287D01*
D02*
G37*
G36*
X78561Y-259922D02*
X78591D01*
X78660Y-259925D01*
X78740Y-259936D01*
X78824Y-259947D01*
X78911Y-259965D01*
X78998Y-259987D01*
X79002D01*
X79009Y-259991D01*
X79020Y-259994D01*
X79035Y-259998D01*
X79075Y-260013D01*
X79126Y-260034D01*
X79184Y-260056D01*
X79242Y-260085D01*
X79304Y-260122D01*
X79362Y-260158D01*
X79369Y-260162D01*
X79388Y-260176D01*
X79413Y-260198D01*
X79446Y-260227D01*
X79482Y-260260D01*
X79519Y-260300D01*
X79559Y-260340D01*
X79592Y-260387D01*
X79595Y-260395D01*
X79606Y-260409D01*
X79621Y-260435D01*
X79639Y-260471D01*
X79661Y-260515D01*
X79679Y-260566D01*
X79701Y-260624D01*
X79719Y-260690D01*
Y-260697D01*
X79722Y-260708D01*
X79726Y-260719D01*
X79730Y-260755D01*
X79737Y-260806D01*
X79744Y-260864D01*
X79752Y-260933D01*
X79755Y-261010D01*
X79759Y-261094D01*
Y-262000D01*
X77240D01*
Y-261032D01*
X77244Y-260966D01*
X77247Y-260894D01*
X77255Y-260821D01*
X77266Y-260748D01*
X77276Y-260686D01*
Y-260682D01*
X77280Y-260675D01*
Y-260664D01*
X77287Y-260650D01*
X77298Y-260610D01*
X77316Y-260559D01*
X77342Y-260500D01*
X77375Y-260438D01*
X77411Y-260377D01*
X77459Y-260318D01*
X77462Y-260315D01*
X77466Y-260311D01*
X77477Y-260300D01*
X77488Y-260286D01*
X77524Y-260249D01*
X77575Y-260206D01*
X77637Y-260158D01*
X77710Y-260107D01*
X77793Y-260060D01*
X77888Y-260020D01*
X77892D01*
X77899Y-260016D01*
X77913Y-260009D01*
X77935Y-260005D01*
X77961Y-259994D01*
X77990Y-259987D01*
X78023Y-259980D01*
X78063Y-259969D01*
X78103Y-259958D01*
X78150Y-259951D01*
X78252Y-259932D01*
X78365Y-259922D01*
X78489Y-259918D01*
X78492D01*
X78500D01*
X78518D01*
X78536D01*
X78561Y-259922D01*
D02*
G37*
%LPC*%
G36*
X180917Y-183538D02*
X180335D01*
Y-185460D01*
X180932D01*
X180957Y-185457D01*
X181012Y-185453D01*
X181074Y-185450D01*
X181139Y-185442D01*
X181205Y-185431D01*
X181259Y-185417D01*
X181267Y-185413D01*
X181285Y-185409D01*
X181310Y-185399D01*
X181343Y-185384D01*
X181379Y-185362D01*
X181416Y-185340D01*
X181452Y-185315D01*
X181489Y-185286D01*
X181492Y-185278D01*
X181507Y-185264D01*
X181529Y-185238D01*
X181554Y-185202D01*
X181583Y-185155D01*
X181616Y-185100D01*
X181645Y-185038D01*
X181671Y-184969D01*
Y-184965D01*
X181674Y-184958D01*
X181678Y-184947D01*
X181682Y-184933D01*
X181685Y-184915D01*
X181693Y-184889D01*
X181700Y-184863D01*
X181707Y-184834D01*
X181718Y-184762D01*
X181729Y-184678D01*
X181736Y-184583D01*
X181740Y-184481D01*
Y-184478D01*
Y-184463D01*
Y-184445D01*
X181736Y-184416D01*
Y-184383D01*
X181733Y-184347D01*
X181729Y-184303D01*
X181725Y-184259D01*
X181707Y-184161D01*
X181685Y-184059D01*
X181652Y-183964D01*
X181631Y-183917D01*
X181609Y-183877D01*
Y-183873D01*
X181602Y-183866D01*
X181594Y-183855D01*
X181587Y-183841D01*
X181558Y-183804D01*
X181521Y-183761D01*
X181474Y-183713D01*
X181420Y-183666D01*
X181358Y-183626D01*
X181292Y-183593D01*
X181285Y-183589D01*
X181267Y-183586D01*
X181234Y-183575D01*
X181187Y-183564D01*
X181128Y-183557D01*
X181055Y-183546D01*
X181012Y-183542D01*
X180965D01*
X180917Y-183538D01*
D02*
G37*
G36*
X58665Y-99540D02*
X58068D01*
X58043Y-99543D01*
X57988Y-99547D01*
X57926Y-99550D01*
X57861Y-99558D01*
X57795Y-99569D01*
X57741Y-99583D01*
X57733Y-99587D01*
X57715Y-99590D01*
X57690Y-99601D01*
X57657Y-99616D01*
X57621Y-99638D01*
X57584Y-99660D01*
X57548Y-99685D01*
X57511Y-99714D01*
X57508Y-99722D01*
X57493Y-99736D01*
X57471Y-99762D01*
X57446Y-99798D01*
X57417Y-99845D01*
X57384Y-99900D01*
X57355Y-99962D01*
X57329Y-100031D01*
Y-100035D01*
X57326Y-100042D01*
X57322Y-100053D01*
X57318Y-100067D01*
X57315Y-100086D01*
X57307Y-100111D01*
X57300Y-100136D01*
X57293Y-100166D01*
X57282Y-100238D01*
X57271Y-100322D01*
X57264Y-100417D01*
X57260Y-100519D01*
Y-100522D01*
Y-100537D01*
Y-100555D01*
X57264Y-100584D01*
Y-100617D01*
X57267Y-100653D01*
X57271Y-100697D01*
X57275Y-100741D01*
X57293Y-100839D01*
X57315Y-100941D01*
X57348Y-101036D01*
X57369Y-101083D01*
X57391Y-101123D01*
Y-101127D01*
X57398Y-101134D01*
X57406Y-101145D01*
X57413Y-101159D01*
X57442Y-101196D01*
X57478Y-101239D01*
X57526Y-101287D01*
X57580Y-101334D01*
X57642Y-101374D01*
X57708Y-101407D01*
X57715Y-101410D01*
X57733Y-101414D01*
X57766Y-101425D01*
X57813Y-101436D01*
X57872Y-101443D01*
X57944Y-101454D01*
X57988Y-101458D01*
X58035D01*
X58083Y-101462D01*
X58665D01*
Y-99540D01*
D02*
G37*
G36*
X56390Y-100129D02*
X55597D01*
Y-101258D01*
X56390Y-100129D01*
D02*
G37*
G36*
X78871Y-258597D02*
X77742D01*
X78871Y-259390D01*
Y-258597D01*
D02*
G37*
G36*
X78481Y-260260D02*
X78478D01*
X78463D01*
X78445D01*
X78416Y-260264D01*
X78383D01*
X78347Y-260267D01*
X78303Y-260271D01*
X78259Y-260275D01*
X78161Y-260293D01*
X78059Y-260315D01*
X77964Y-260348D01*
X77917Y-260369D01*
X77877Y-260391D01*
X77873D01*
X77866Y-260399D01*
X77855Y-260406D01*
X77841Y-260413D01*
X77804Y-260442D01*
X77761Y-260478D01*
X77713Y-260526D01*
X77666Y-260580D01*
X77626Y-260642D01*
X77593Y-260708D01*
X77589Y-260715D01*
X77586Y-260733D01*
X77575Y-260766D01*
X77564Y-260813D01*
X77557Y-260872D01*
X77546Y-260945D01*
X77542Y-260988D01*
Y-261035D01*
X77539Y-261083D01*
Y-261665D01*
X79461D01*
Y-261068D01*
X79457Y-261043D01*
X79453Y-260988D01*
X79449Y-260926D01*
X79442Y-260861D01*
X79431Y-260795D01*
X79417Y-260741D01*
X79413Y-260733D01*
X79409Y-260715D01*
X79399Y-260690D01*
X79384Y-260657D01*
X79362Y-260620D01*
X79340Y-260584D01*
X79315Y-260548D01*
X79286Y-260511D01*
X79278Y-260508D01*
X79264Y-260493D01*
X79238Y-260471D01*
X79202Y-260446D01*
X79155Y-260417D01*
X79100Y-260384D01*
X79038Y-260355D01*
X78969Y-260329D01*
X78965D01*
X78958Y-260326D01*
X78947Y-260322D01*
X78933Y-260318D01*
X78914Y-260315D01*
X78889Y-260308D01*
X78864Y-260300D01*
X78834Y-260293D01*
X78762Y-260282D01*
X78678Y-260271D01*
X78583Y-260264D01*
X78481Y-260260D01*
D02*
G37*
%LPD*%
D13*
X168130Y-192642D02*
Y-180358D01*
Y-192642D02*
X191870D01*
Y-180358D01*
X168130D02*
X191870D01*
X186913Y-4984D02*
X246402D01*
X186913Y-35417D02*
Y-4984D01*
Y-35417D02*
X246402D01*
Y-4984D01*
X70870Y-104642D02*
Y-92358D01*
X47130D02*
X70870D01*
X47130Y-104642D02*
Y-92358D01*
Y-104642D02*
X70870D01*
X74358Y-273870D02*
X86642D01*
Y-250130D01*
X74358D02*
X86642D01*
X74358Y-273870D02*
Y-250130D01*
M02*
